<svg id="Layer_1" data-name="Layer 1" xmlns="http://www.w3.org/2000/svg" viewBox="0 0 211 149"><defs><style>.cls-1{fill:#4285f4;}</style></defs><title>add pluses logo</title><path class="cls-1" d="M22.52,115.25H14L12,120.53H10.38l7.12-18.81H19l7.12,18.81H24.47Zm-8-1.34H22l-3.77-10.24Z"/><path class="cls-1" d="M28.44,113.41a8.43,8.43,0,0,1,1.45-5.19,4.68,4.68,0,0,1,3.95-1.93,4.86,4.86,0,0,1,4.32,2.23v-7.84h1.54v19.84H38.24l-.06-1.86a5,5,0,0,1-4.37,2.12,4.66,4.66,0,0,1-3.9-1.94,8.47,8.47,0,0,1-1.48-5.25Zm1.56.27a7.29,7.29,0,0,0,1.07,4.22,3.47,3.47,0,0,0,3,1.54,4.16,4.16,0,0,0,4.06-2.52v-6.56a4.13,4.13,0,0,0-4-2.73,3.51,3.51,0,0,0-3,1.53A7.79,7.79,0,0,0,30,113.69Z"/><path class="cls-1" d="M43.67,113.41a8.43,8.43,0,0,1,1.45-5.19,4.68,4.68,0,0,1,3.95-1.93,4.86,4.86,0,0,1,4.32,2.23v-7.84h1.54v19.84H53.48l-.06-1.86A5,5,0,0,1,49,120.79a4.66,4.66,0,0,1-3.9-1.94,8.47,8.47,0,0,1-1.48-5.25Zm1.56.27a7.29,7.29,0,0,0,1.07,4.22,3.47,3.47,0,0,0,3,1.54,4.16,4.16,0,0,0,4.06-2.52v-6.56a4.13,4.13,0,0,0-4-2.73,3.51,3.51,0,0,0-3,1.53A7.79,7.79,0,0,0,45.23,113.69Z"/><path class="cls-1" d="M68.43,112.87v7.66H66.85V101.72h6.41a6.76,6.76,0,0,1,4.63,1.5,5.89,5.89,0,0,1,.06,8.21,7,7,0,0,1-4.73,1.44Zm0-1.34h4.82a5.08,5.08,0,0,0,3.53-1.1A3.93,3.93,0,0,0,78,107.36a4.11,4.11,0,0,0-1.21-3.11,4.85,4.85,0,0,0-3.43-1.18H68.43Z"/><path class="cls-1" d="M85,120.53H83.49V100.69H85Z"/><path class="cls-1" d="M98.76,118.76a5,5,0,0,1-4.46,2,4.33,4.33,0,0,1-3.4-1.3,5.69,5.69,0,0,1-1.19-3.84v-9.1h1.54v8.9q0,4,3.23,4t4.25-2.78V106.55h1.55v14h-1.5Z"/><path class="cls-1" d="M113.2,117a2.2,2.2,0,0,0-.92-1.85,7.13,7.13,0,0,0-2.78-1.09,12.56,12.56,0,0,1-2.89-.9,3.85,3.85,0,0,1-1.52-1.25,3.11,3.11,0,0,1-.5-1.78,3.33,3.33,0,0,1,1.38-2.73,5.59,5.59,0,0,1,3.54-1.08,5.75,5.75,0,0,1,3.75,1.16,3.71,3.71,0,0,1,1.41,3h-1.55a2.5,2.5,0,0,0-1-2,4.64,4.64,0,0,0-5-.14,2.09,2.09,0,0,0-.92,1.76,1.91,1.91,0,0,0,.77,1.62,8.13,8.13,0,0,0,2.8,1.05,13.18,13.18,0,0,1,3,1,4,4,0,0,1,1.5,1.3,3.59,3.59,0,0,1-.94,4.68,6.1,6.1,0,0,1-3.73,1.06,6.26,6.26,0,0,1-4-1.18,3.64,3.64,0,0,1-1.52-3h1.55a2.69,2.69,0,0,0,1.14,2.11,4.67,4.67,0,0,0,2.78.76,4.39,4.39,0,0,0,2.61-.71A2.13,2.13,0,0,0,113.2,117Z"/><path class="cls-1" d="M124.17,120.79a6.07,6.07,0,0,1-3.22-.88,6,6,0,0,1-2.24-2.45,7.63,7.63,0,0,1-.8-3.52v-.56a8.22,8.22,0,0,1,.78-3.63,6.22,6.22,0,0,1,2.18-2.54,5.37,5.37,0,0,1,3-.92,5,5,0,0,1,4,1.74,7,7,0,0,1,1.49,4.75v.87h-10v.3a5.85,5.85,0,0,0,1.36,4,4.34,4.34,0,0,0,3.43,1.58,5,5,0,0,0,2.19-.45,4.85,4.85,0,0,0,1.72-1.45l1,.74A5.64,5.64,0,0,1,124.17,120.79Zm-.28-13.18a3.86,3.86,0,0,0-2.94,1.28,5.91,5.91,0,0,0-1.45,3.44h8.38v-.17a5.13,5.13,0,0,0-1.15-3.28A3.56,3.56,0,0,0,123.88,107.61Z"/><path class="cls-1" d="M141.32,117a2.2,2.2,0,0,0-.92-1.85,7.13,7.13,0,0,0-2.78-1.09,12.56,12.56,0,0,1-2.89-.9,3.85,3.85,0,0,1-1.52-1.25,3.11,3.11,0,0,1-.5-1.78,3.33,3.33,0,0,1,1.38-2.73,5.59,5.59,0,0,1,3.54-1.08,5.75,5.75,0,0,1,3.75,1.16,3.71,3.71,0,0,1,1.41,3h-1.55a2.5,2.5,0,0,0-1-2,4.64,4.64,0,0,0-5-.14,2.09,2.09,0,0,0-.92,1.76,1.91,1.91,0,0,0,.77,1.62,8.13,8.13,0,0,0,2.8,1.05,13.18,13.18,0,0,1,3,1,4,4,0,0,1,1.5,1.3,3.59,3.59,0,0,1-.94,4.68,6.1,6.1,0,0,1-3.73,1.06,6.26,6.26,0,0,1-4-1.18,3.64,3.64,0,0,1-1.52-3h1.55a2.69,2.69,0,0,0,1.14,2.11,4.67,4.67,0,0,0,2.78.76,4.39,4.39,0,0,0,2.61-.71A2.13,2.13,0,0,0,141.32,117Z"/><path class="cls-1" d="M155.8,119.19h9.29v1.34H154.2V101.72h1.6Z"/><path class="cls-1" d="M177.88,103.07h-6.45v17.47h-1.59V103.07h-6.43v-1.34h14.47Z"/><path class="cls-1" d="M181.45,120.53V101.72h5.26a8.18,8.18,0,0,1,4.15,1.05,7.28,7.28,0,0,1,2.86,3,9.5,9.5,0,0,1,1,4.47V112a9.5,9.5,0,0,1-1,4.47,7.26,7.26,0,0,1-2.87,3,8.43,8.43,0,0,1-4.26,1.06ZM183,103.07v16.12h3.57a6.14,6.14,0,0,0,4.77-2,7.62,7.62,0,0,0,1.8-5.33v-1.65a7.44,7.44,0,0,0-1.77-5.2,6,6,0,0,0-4.66-2Z"/><path class="cls-1" d="M197.48,119.6a1.09,1.09,0,0,1,.29-.77,1,1,0,0,1,.81-.32,1.06,1.06,0,0,1,.81.32,1.08,1.08,0,0,1,.3.77,1,1,0,0,1-.3.74,1.11,1.11,0,0,1-.81.29,1.09,1.09,0,0,1-.81-.29A1,1,0,0,1,197.48,119.6Z"/><polygon class="cls-1" points="42.96 51.15 31.77 51.15 31.77 39.95 21.52 39.95 21.52 51.15 10.32 51.15 10.32 61.4 21.52 61.4 21.52 72.6 31.77 72.6 31.77 61.4 42.96 61.4 42.96 51.15"/><path class="cls-1" d="M60.41,45.4a25.8,25.8,0,0,0-10,10.53,26.91,26.91,0,0,0-3,12.28,25.55,25.55,0,0,0,8.1,19.12A27.29,27.29,0,0,0,75,95.09a30.09,30.09,0,0,0,9.29-1.77L85,93.1V82.45l-1.47.83a16.29,16.29,0,0,1-8.09,2.08A17.37,17.37,0,0,1,63,80.45a16.13,16.13,0,0,1-5.09-12.23A16.14,16.14,0,0,1,63.05,56a17.68,17.68,0,0,1,12.63-5H86V94.76h9.89V41.68H74.62A28,28,0,0,0,60.41,45.4Z"/><path class="cls-1" d="M138.54,41.68H127.11A28,28,0,0,0,112.9,45.4a25.78,25.78,0,0,0-10,10.52h0a26.91,26.91,0,0,0-3,12.28,25.08,25.08,0,0,0,8.07,19,27.56,27.56,0,0,0,19.54,7.58h20.91V28.21h-9.89Zm0,42.86H127.93A18.1,18.1,0,0,1,115.4,80a15,15,0,0,1-5-11.76A16.14,16.14,0,0,1,115.55,56a17.68,17.68,0,0,1,12.63-5h10.36Z"/><path class="cls-1" d="M190.79,28.21V41.68H179.36a28,28,0,0,0-14.21,3.73,25.78,25.78,0,0,0-10,10.52h0a26.91,26.91,0,0,0-3,12.28,25.08,25.08,0,0,0,8.07,19,27.56,27.56,0,0,0,19.54,7.58h20.91V28.21ZM180.18,84.54A18.1,18.1,0,0,1,167.65,80a15,15,0,0,1-5-11.76A16.14,16.14,0,0,1,167.8,56a17.68,17.68,0,0,1,12.63-5h10.36V84.54Z"/></svg>