<svg id="Layer_1" data-name="Layer 1" xmlns="http://www.w3.org/2000/svg" viewBox="0 0 235.43 580.78"><defs><style>.cls-1{fill:#4285f4;}</style></defs><title>add pluses logo</title><path class="cls-1" d="M322.74,345.87H312.63l-2.29,6.25h-2l8.43-22.26h1.79L327,352.12h-2Zm-9.53-1.59h8.93l-4.46-12.13Z" transform="translate(-298.17 -242.85)"/><path class="cls-1" d="M329.74,343.7a10,10,0,0,1,1.72-6.14,5.54,5.54,0,0,1,4.67-2.29,5.75,5.75,0,0,1,5.11,2.64v-9.28h1.82v23.49h-1.71l-.08-2.2a5.91,5.91,0,0,1-5.17,2.51,5.52,5.52,0,0,1-4.61-2.3,10,10,0,0,1-1.75-6.22Zm1.85.32a8.63,8.63,0,0,0,1.27,5,4.1,4.1,0,0,0,3.58,1.83,4.93,4.93,0,0,0,4.8-3v-7.77a4.89,4.89,0,0,0-4.77-3.23,4.15,4.15,0,0,0-3.59,1.81A9.22,9.22,0,0,0,331.59,344Z" transform="translate(-298.17 -242.85)"/><path class="cls-1" d="M347.77,343.7a10,10,0,0,1,1.72-6.14,5.54,5.54,0,0,1,4.67-2.29,5.75,5.75,0,0,1,5.11,2.64v-9.28h1.82v23.49h-1.71l-.08-2.2a5.91,5.91,0,0,1-5.17,2.51,5.52,5.52,0,0,1-4.61-2.3,10,10,0,0,1-1.75-6.22Zm1.85.32a8.63,8.63,0,0,0,1.27,5,4.1,4.1,0,0,0,3.58,1.83,4.93,4.93,0,0,0,4.8-3v-7.77a4.89,4.89,0,0,0-4.77-3.23,4.15,4.15,0,0,0-3.59,1.81A9.22,9.22,0,0,0,349.62,344Z" transform="translate(-298.17 -242.85)"/><path class="cls-1" d="M377.08,343.05v9.07H375.2V329.86h7.58a8,8,0,0,1,5.48,1.77,7,7,0,0,1,.08,9.72,8.22,8.22,0,0,1-5.6,1.7Zm0-1.59h5.7a6,6,0,0,0,4.17-1.3,4.65,4.65,0,0,0,1.44-3.63,4.86,4.86,0,0,0-1.43-3.68,5.74,5.74,0,0,0-4.06-1.4h-5.83Z" transform="translate(-298.17 -242.85)"/><path class="cls-1" d="M396.72,352.12h-1.83V328.63h1.83Z" transform="translate(-298.17 -242.85)"/><path class="cls-1" d="M413,350a6,6,0,0,1-5.28,2.4,5.12,5.12,0,0,1-4-1.54,6.73,6.73,0,0,1-1.41-4.55V335.58h1.82v10.54q0,4.72,3.82,4.72,4,0,5-3.29v-12h1.83v16.54H413Z" transform="translate(-298.17 -242.85)"/><path class="cls-1" d="M430.06,347.92a2.61,2.61,0,0,0-1.09-2.19,8.43,8.43,0,0,0-3.3-1.29,14.87,14.87,0,0,1-3.42-1.07,4.55,4.55,0,0,1-1.8-1.48,3.68,3.68,0,0,1-.59-2.11,3.94,3.94,0,0,1,1.64-3.23,6.61,6.61,0,0,1,4.19-1.28,6.8,6.8,0,0,1,4.44,1.37,4.39,4.39,0,0,1,1.67,3.57H430a3,3,0,0,0-1.22-2.42,5.49,5.49,0,0,0-6-.16,2.48,2.48,0,0,0-1.09,2.09,2.26,2.26,0,0,0,.91,1.92,9.62,9.62,0,0,0,3.32,1.25,15.6,15.6,0,0,1,3.61,1.21,4.67,4.67,0,0,1,1.78,1.54,4.25,4.25,0,0,1-1.11,5.53,7.22,7.22,0,0,1-4.41,1.25,7.41,7.41,0,0,1-4.69-1.4,4.31,4.31,0,0,1-1.8-3.54h1.83a3.18,3.18,0,0,0,1.35,2.5,5.53,5.53,0,0,0,3.29.89,5.2,5.2,0,0,0,3.09-.84A2.52,2.52,0,0,0,430.06,347.92Z" transform="translate(-298.17 -242.85)"/><path class="cls-1" d="M443,352.43a7.18,7.18,0,0,1-3.82-1,7.08,7.08,0,0,1-2.65-2.9,9,9,0,0,1-.95-4.17v-.66a9.73,9.73,0,0,1,.93-4.3,7.36,7.36,0,0,1,2.58-3,6.36,6.36,0,0,1,3.58-1.09,6,6,0,0,1,4.78,2.06,8.34,8.34,0,0,1,1.77,5.62v1h-11.8v.35a6.93,6.93,0,0,0,1.61,4.69,5.13,5.13,0,0,0,4.06,1.87,6,6,0,0,0,2.59-.54,5.74,5.74,0,0,0,2-1.71l1.15.87A6.67,6.67,0,0,1,443,352.43Zm-.34-15.6a4.57,4.57,0,0,0-3.48,1.51,7,7,0,0,0-1.72,4.07h9.92v-.2a6.07,6.07,0,0,0-1.36-3.88A4.22,4.22,0,0,0,442.7,336.83Z" transform="translate(-298.17 -242.85)"/><path class="cls-1" d="M463.34,347.92a2.61,2.61,0,0,0-1.09-2.19,8.43,8.43,0,0,0-3.3-1.29,14.87,14.87,0,0,1-3.42-1.07,4.55,4.55,0,0,1-1.8-1.48,3.68,3.68,0,0,1-.59-2.11,3.94,3.94,0,0,1,1.64-3.23,6.61,6.61,0,0,1,4.19-1.28,6.8,6.8,0,0,1,4.44,1.37,4.39,4.39,0,0,1,1.67,3.57h-1.83a3,3,0,0,0-1.22-2.42,5.49,5.49,0,0,0-6-.16,2.48,2.48,0,0,0-1.09,2.09,2.26,2.26,0,0,0,.91,1.92,9.62,9.62,0,0,0,3.32,1.25,15.6,15.6,0,0,1,3.61,1.21,4.67,4.67,0,0,1,1.78,1.54,4.25,4.25,0,0,1-1.11,5.53,7.22,7.22,0,0,1-4.41,1.25,7.41,7.41,0,0,1-4.69-1.4,4.31,4.31,0,0,1-1.8-3.54h1.83a3.18,3.18,0,0,0,1.35,2.5,5.53,5.53,0,0,0,3.29.89,5.2,5.2,0,0,0,3.09-.84A2.52,2.52,0,0,0,463.34,347.92Z" transform="translate(-298.17 -242.85)"/><path class="cls-1" d="M480.48,350.53h11v1.59H478.59V329.86h1.9Z" transform="translate(-298.17 -242.85)"/><path class="cls-1" d="M506.61,331.45H499v20.67H497.1V331.45h-7.61v-1.59h17.13Z" transform="translate(-298.17 -242.85)"/><path class="cls-1" d="M510.83,352.12V329.86h6.22A9.68,9.68,0,0,1,522,331.1a8.62,8.62,0,0,1,3.39,3.57,11.24,11.24,0,0,1,1.22,5.29v2a11.25,11.25,0,0,1-1.21,5.29,8.59,8.59,0,0,1-3.4,3.56,10,10,0,0,1-5,1.25Zm1.88-20.67v19.08h4.22a7.26,7.26,0,0,0,5.64-2.33,9,9,0,0,0,2.13-6.31v-2a8.81,8.81,0,0,0-2.09-6.15,7.14,7.14,0,0,0-5.52-2.33Z" transform="translate(-298.17 -242.85)"/><path class="cls-1" d="M529.81,351a1.3,1.3,0,0,1,.34-.91,1.23,1.23,0,0,1,1-.37,1.26,1.26,0,0,1,1,.37,1.28,1.28,0,0,1,.35.91,1.18,1.18,0,0,1-.35.88,1.32,1.32,0,0,1-1,.34,1.29,1.29,0,0,1-1-.34A1.19,1.19,0,0,1,529.81,351Z" transform="translate(-298.17 -242.85)"/><polygon class="cls-1" points="48.77 27.15 35.51 27.15 35.51 13.9 23.38 13.9 23.38 27.15 10.13 27.15 10.13 39.28 23.38 39.28 23.38 52.53 35.51 52.53 35.51 39.28 48.77 39.28 48.77 27.15"/><path class="cls-1" d="M367.57,263.2a30.53,30.53,0,0,0-11.86,12.46,31.85,31.85,0,0,0-3.51,14.54,30.24,30.24,0,0,0,9.59,22.63A32.3,32.3,0,0,0,384.88,322a35.61,35.61,0,0,0,11-2.09l.8-.27v-12.6l-1.74,1a19.28,19.28,0,0,1-9.57,2.46,20.56,20.56,0,0,1-14.75-5.81,20.36,20.36,0,0,1,.09-29,20.92,20.92,0,0,1,14.94-5.86h12.26v51.79h11.71V258.79H384.39A33.11,33.11,0,0,0,367.57,263.2Z" transform="translate(-298.17 -242.85)"/><path class="cls-1" d="M460,258.79H446.52a33.11,33.11,0,0,0-16.82,4.41,30.52,30.52,0,0,0-11.85,12.45h0a31.85,31.85,0,0,0-3.51,14.54,29.68,29.68,0,0,0,9.55,22.45,32.62,32.62,0,0,0,23.12,9h24.74V242.85H460Zm0,50.73H447.49a21.42,21.42,0,0,1-14.82-5.4,17.7,17.7,0,0,1-5.94-13.92,19.1,19.1,0,0,1,6.11-14.52,20.92,20.92,0,0,1,14.94-5.86H460Z" transform="translate(-298.17 -242.85)"/><path class="cls-1" d="M521.89,242.85v15.94H508.37a33.11,33.11,0,0,0-16.82,4.41,30.52,30.52,0,0,0-11.85,12.45h0a31.85,31.85,0,0,0-3.51,14.54,29.68,29.68,0,0,0,9.55,22.45,32.62,32.62,0,0,0,23.12,9h24.74V242.85Zm-12.55,66.67a21.42,21.42,0,0,1-14.82-5.4,17.7,17.7,0,0,1-5.94-13.92,19.1,19.1,0,0,1,6.11-14.52,20.92,20.92,0,0,1,14.94-5.86h12.26v39.7Z" transform="translate(-298.17 -242.85)"/><path class="cls-1" d="M300.56,822.54h-1.68l-.38,1h-.33l1.4-3.69h.3l1.4,3.69h-.32Zm-1.58-.26h1.48l-.74-2Z" transform="translate(-298.17 -242.85)"/><path class="cls-1" d="M301.72,822.18a1.65,1.65,0,0,1,.29-1,.92.92,0,0,1,.77-.38,1,1,0,0,1,.85.44v-1.54h.3v3.89h-.28v-.37a1,1,0,0,1-.86.42.91.91,0,0,1-.76-.38,1.66,1.66,0,0,1-.29-1Zm.31.05a1.43,1.43,0,0,0,.21.83.68.68,0,0,0,.59.3.82.82,0,0,0,.8-.49v-1.29a.81.81,0,0,0-.79-.53.69.69,0,0,0-.6.3A1.53,1.53,0,0,0,302,822.23Z" transform="translate(-298.17 -242.85)"/><path class="cls-1" d="M304.71,822.18a1.65,1.65,0,0,1,.29-1,.92.92,0,0,1,.77-.38,1,1,0,0,1,.85.44v-1.54h.3v3.89h-.28v-.37a1,1,0,0,1-.86.42.91.91,0,0,1-.76-.38,1.66,1.66,0,0,1-.29-1Zm.31.05a1.43,1.43,0,0,0,.21.83.68.68,0,0,0,.59.3.82.82,0,0,0,.8-.49v-1.29a.81.81,0,0,0-.79-.53.69.69,0,0,0-.6.3A1.53,1.53,0,0,0,305,822.23Z" transform="translate(-298.17 -242.85)"/><path class="cls-1" d="M309.57,822.07v1.5h-.31v-3.69h1.26a1.33,1.33,0,0,1,.91.29,1.16,1.16,0,0,1,0,1.61,1.36,1.36,0,0,1-.93.28Zm0-.26h.95a1,1,0,0,0,.69-.22.77.77,0,0,0,.24-.6.81.81,0,0,0-.24-.61,1,1,0,0,0-.67-.23h-1Z" transform="translate(-298.17 -242.85)"/><path class="cls-1" d="M312.83,823.57h-.3v-3.89h.3Z" transform="translate(-298.17 -242.85)"/><path class="cls-1" d="M315.52,823.23a1,1,0,0,1-.87.4.85.85,0,0,1-.67-.25,1.12,1.12,0,0,1-.23-.75v-1.78h.3v1.75q0,.78.63.78a.78.78,0,0,0,.83-.55v-2h.3v2.74h-.29Z" transform="translate(-298.17 -242.85)"/><path class="cls-1" d="M318.35,822.88a.43.43,0,0,0-.18-.36,1.4,1.4,0,0,0-.55-.21,2.47,2.47,0,0,1-.57-.18.75.75,0,0,1-.3-.24.61.61,0,0,1-.1-.35.65.65,0,0,1,.27-.54,1.1,1.1,0,0,1,.69-.21,1.13,1.13,0,0,1,.74.23.73.73,0,0,1,.28.59h-.3a.49.49,0,0,0-.2-.4.91.91,0,0,0-1,0,.41.41,0,0,0-.18.35.37.37,0,0,0,.15.32,1.59,1.59,0,0,0,.55.21,2.59,2.59,0,0,1,.6.2.77.77,0,0,1,.3.26.7.7,0,0,1-.18.92,1.2,1.2,0,0,1-.73.21,1.23,1.23,0,0,1-.78-.23.71.71,0,0,1-.3-.59h.3a.53.53,0,0,0,.22.41.92.92,0,0,0,.55.15.86.86,0,0,0,.51-.14A.42.42,0,0,0,318.35,822.88Z" transform="translate(-298.17 -242.85)"/><path class="cls-1" d="M320.5,823.63a1.19,1.19,0,0,1-.63-.17,1.17,1.17,0,0,1-.44-.48,1.5,1.5,0,0,1-.16-.69v-.11a1.61,1.61,0,0,1,.15-.71,1.22,1.22,0,0,1,.43-.5,1.05,1.05,0,0,1,.59-.18,1,1,0,0,1,.79.34,1.38,1.38,0,0,1,.29.93v.17h-2v.06a1.15,1.15,0,0,0,.27.78.85.85,0,0,0,.67.31,1,1,0,0,0,.43-.09,1,1,0,0,0,.34-.28l.19.14A1.11,1.11,0,0,1,320.5,823.63Zm-.06-2.59a.76.76,0,0,0-.58.25,1.16,1.16,0,0,0-.29.67h1.65v0a1,1,0,0,0-.23-.64A.7.7,0,0,0,320.45,821Z" transform="translate(-298.17 -242.85)"/><path class="cls-1" d="M323.87,822.88a.43.43,0,0,0-.18-.36,1.4,1.4,0,0,0-.55-.21,2.47,2.47,0,0,1-.57-.18.75.75,0,0,1-.3-.24.61.61,0,0,1-.1-.35.65.65,0,0,1,.27-.54,1.1,1.1,0,0,1,.69-.21,1.13,1.13,0,0,1,.74.23.73.73,0,0,1,.28.59h-.3a.49.49,0,0,0-.2-.4.91.91,0,0,0-1,0,.41.41,0,0,0-.18.35.37.37,0,0,0,.15.32,1.59,1.59,0,0,0,.55.21,2.59,2.59,0,0,1,.6.2.77.77,0,0,1,.3.26.7.7,0,0,1-.18.92,1.2,1.2,0,0,1-.73.21,1.23,1.23,0,0,1-.78-.23.71.71,0,0,1-.3-.59h.3a.53.53,0,0,0,.22.41.92.92,0,0,0,.55.15.86.86,0,0,0,.51-.14A.42.42,0,0,0,323.87,822.88Z" transform="translate(-298.17 -242.85)"/><path class="cls-1" d="M326.71,823.31h1.82v.26H326.4v-3.69h.31Z" transform="translate(-298.17 -242.85)"/><path class="cls-1" d="M331,820.15h-1.27v3.43h-.31v-3.43H328.2v-.26H331Z" transform="translate(-298.17 -242.85)"/><path class="cls-1" d="M331.74,823.57v-3.69h1a1.61,1.61,0,0,1,.81.21,1.43,1.43,0,0,1,.56.59,1.86,1.86,0,0,1,.2.88v.34a1.86,1.86,0,0,1-.2.88,1.42,1.42,0,0,1-.56.59,1.65,1.65,0,0,1-.84.21Zm.31-3.43v3.16h.7a1.2,1.2,0,0,0,.94-.39,1.5,1.5,0,0,0,.35-1v-.32a1.46,1.46,0,0,0-.35-1,1.18,1.18,0,0,0-.92-.39Z" transform="translate(-298.17 -242.85)"/><path class="cls-1" d="M334.89,823.39a.21.21,0,0,1,.06-.15.2.2,0,0,1,.16-.06.21.21,0,0,1,.16.06.21.21,0,0,1,.06.15.2.2,0,0,1-.06.15.22.22,0,0,1-.16.06.21.21,0,0,1-.16-.06A.2.2,0,0,1,334.89,823.39Z" transform="translate(-298.17 -242.85)"/><polygon class="cls-1" points="6.41 567.11 4.21 567.11 4.21 564.91 2.2 564.91 2.2 567.11 0 567.11 0 569.12 2.2 569.12 2.2 571.32 4.21 571.32 4.21 569.12 6.41 569.12 6.41 567.11"/><path class="cls-1" d="M308,808.83a5.06,5.06,0,0,0-2,2.07,5.28,5.28,0,0,0-.58,2.41,5,5,0,0,0,1.59,3.75,5.35,5.35,0,0,0,3.83,1.52,5.9,5.9,0,0,0,1.82-.35l.13,0V816.1l-.29.16a3.2,3.2,0,0,1-1.59.41,3.41,3.41,0,0,1-2.45-1,3.37,3.37,0,0,1,0-4.81,3.47,3.47,0,0,1,2.48-1h2v8.59H315V808.1h-4.18A5.49,5.49,0,0,0,308,808.83Z" transform="translate(-298.17 -242.85)"/><path class="cls-1" d="M323.32,808.1h-2.24a5.49,5.49,0,0,0-2.79.73,5.06,5.06,0,0,0-2,2.06h0a5.28,5.28,0,0,0-.58,2.41,4.92,4.92,0,0,0,1.58,3.72,5.41,5.41,0,0,0,3.83,1.49h4.1V805.46h-1.94Zm0,8.41h-2.08a3.55,3.55,0,0,1-2.46-.9,2.94,2.94,0,0,1-1-2.31,3.17,3.17,0,0,1,1-2.41,3.47,3.47,0,0,1,2.48-1h2Z" transform="translate(-298.17 -242.85)"/><path class="cls-1" d="M333.58,805.46v2.64h-2.24a5.49,5.49,0,0,0-2.79.73,5.06,5.06,0,0,0-2,2.06h0a5.28,5.28,0,0,0-.58,2.41,4.92,4.92,0,0,0,1.58,3.72,5.41,5.41,0,0,0,3.83,1.49h4.1V805.46Zm-2.08,11.05a3.55,3.55,0,0,1-2.46-.9,2.94,2.94,0,0,1-1-2.31,3.17,3.17,0,0,1,1-2.41,3.47,3.47,0,0,1,2.48-1h2v6.58Z" transform="translate(-298.17 -242.85)"/></svg>