<svg id="Layer_1" data-name="Layer 1" xmlns="http://www.w3.org/2000/svg" viewBox="0 0 38 19"><defs><style>.cls-1{fill:#4285f4;}</style></defs><title>add pluses logo</title><path class="cls-1" d="M2.72,17.5H1l-.38,1H.34l1.4-3.69H2l1.4,3.69H3.1Zm-1.58-.26H2.62l-.74-2Z"/><path class="cls-1" d="M3.88,17.14a1.65,1.65,0,0,1,.29-1,.92.92,0,0,1,.77-.38,1,1,0,0,1,.85.44V14.64h.3v3.89H5.8v-.37a1,1,0,0,1-.86.42.91.91,0,0,1-.76-.38,1.66,1.66,0,0,1-.29-1Zm.31.05A1.43,1.43,0,0,0,4.4,18a.68.68,0,0,0,.59.3.82.82,0,0,0,.8-.49V16.54A.81.81,0,0,0,5,16a.69.69,0,0,0-.6.3A1.53,1.53,0,0,0,4.19,17.19Z"/><path class="cls-1" d="M6.87,17.14a1.65,1.65,0,0,1,.29-1,.92.92,0,0,1,.77-.38,1,1,0,0,1,.85.44V14.64h.3v3.89H8.79v-.37a1,1,0,0,1-.86.42.91.91,0,0,1-.76-.38,1.66,1.66,0,0,1-.29-1Zm.31.05a1.43,1.43,0,0,0,.21.83.68.68,0,0,0,.59.3.82.82,0,0,0,.8-.49V16.54A.81.81,0,0,0,8,16a.69.69,0,0,0-.6.3A1.53,1.53,0,0,0,7.17,17.19Z"/><path class="cls-1" d="M11.73,17v1.5h-.31V14.84h1.26a1.33,1.33,0,0,1,.91.29,1.16,1.16,0,0,1,0,1.61,1.36,1.36,0,0,1-.93.28Zm0-.26h.95a1,1,0,0,0,.69-.22.77.77,0,0,0,.24-.6.81.81,0,0,0-.24-.61,1,1,0,0,0-.67-.23h-1Z"/><path class="cls-1" d="M15,18.53h-.3V14.64H15Z"/><path class="cls-1" d="M17.68,18.19a1,1,0,0,1-.87.4.85.85,0,0,1-.67-.25,1.12,1.12,0,0,1-.23-.75V15.79h.3v1.75q0,.78.63.78a.78.78,0,0,0,.83-.55v-2H18v2.74h-.29Z"/><path class="cls-1" d="M20.51,17.84a.43.43,0,0,0-.18-.36,1.4,1.4,0,0,0-.55-.21,2.47,2.47,0,0,1-.57-.18.75.75,0,0,1-.3-.24.61.61,0,0,1-.1-.35.65.65,0,0,1,.27-.54,1.1,1.1,0,0,1,.69-.21,1.13,1.13,0,0,1,.74.23.73.73,0,0,1,.28.59h-.3a.49.49,0,0,0-.2-.4.91.91,0,0,0-1,0,.41.41,0,0,0-.18.35.37.37,0,0,0,.15.32,1.59,1.59,0,0,0,.55.21,2.59,2.59,0,0,1,.6.2.77.77,0,0,1,.3.26.7.7,0,0,1-.18.92,1.2,1.2,0,0,1-.73.21,1.23,1.23,0,0,1-.78-.23.71.71,0,0,1-.3-.59H19a.53.53,0,0,0,.22.41.92.92,0,0,0,.55.15.86.86,0,0,0,.51-.14A.42.42,0,0,0,20.51,17.84Z"/><path class="cls-1" d="M22.66,18.58a1.19,1.19,0,0,1-.63-.17,1.17,1.17,0,0,1-.44-.48,1.5,1.5,0,0,1-.16-.69v-.11a1.61,1.61,0,0,1,.15-.71,1.22,1.22,0,0,1,.43-.5,1.05,1.05,0,0,1,.59-.18,1,1,0,0,1,.79.34,1.38,1.38,0,0,1,.29.93v.17h-2v.06A1.15,1.15,0,0,0,22,18a.85.85,0,0,0,.67.31,1,1,0,0,0,.43-.09,1,1,0,0,0,.34-.28l.19.14A1.11,1.11,0,0,1,22.66,18.58ZM22.61,16a.76.76,0,0,0-.58.25,1.16,1.16,0,0,0-.29.67h1.65v0a1,1,0,0,0-.23-.64A.7.7,0,0,0,22.61,16Z"/><path class="cls-1" d="M26,17.84a.43.43,0,0,0-.18-.36,1.4,1.4,0,0,0-.55-.21,2.47,2.47,0,0,1-.57-.18.75.75,0,0,1-.3-.24.61.61,0,0,1-.1-.35.65.65,0,0,1,.27-.54,1.1,1.1,0,0,1,.69-.21A1.13,1.13,0,0,1,26,16a.73.73,0,0,1,.28.59H26a.49.49,0,0,0-.2-.4.91.91,0,0,0-1,0,.41.41,0,0,0-.18.35.37.37,0,0,0,.15.32,1.59,1.59,0,0,0,.55.21,2.59,2.59,0,0,1,.6.2.77.77,0,0,1,.3.26.7.7,0,0,1-.18.92,1.2,1.2,0,0,1-.73.21,1.23,1.23,0,0,1-.78-.23.71.71,0,0,1-.3-.59h.3a.53.53,0,0,0,.22.41.92.92,0,0,0,.55.15.86.86,0,0,0,.51-.14A.42.42,0,0,0,26,17.84Z"/><path class="cls-1" d="M28.87,18.27h1.82v.26H28.56V14.84h.31Z"/><path class="cls-1" d="M33.2,15.11H31.94v3.43h-.31V15.11H30.36v-.26H33.2Z"/><path class="cls-1" d="M33.9,18.53V14.84h1a1.61,1.61,0,0,1,.81.21,1.43,1.43,0,0,1,.56.59,1.86,1.86,0,0,1,.2.88v.34a1.86,1.86,0,0,1-.2.88,1.42,1.42,0,0,1-.56.59,1.65,1.65,0,0,1-.84.21Zm.31-3.43v3.16h.7a1.2,1.2,0,0,0,.94-.39,1.5,1.5,0,0,0,.35-1v-.32a1.46,1.46,0,0,0-.35-1,1.18,1.18,0,0,0-.92-.39Z"/><path class="cls-1" d="M37,18.35a.21.21,0,0,1,.06-.15.2.2,0,0,1,.16-.06.21.21,0,0,1,.16.06.21.21,0,0,1,.06.15.2.2,0,0,1-.06.15.22.22,0,0,1-.16.06.21.21,0,0,1-.16-.06A.2.2,0,0,1,37,18.35Z"/><polygon class="cls-1" points="6.73 4.92 4.53 4.92 4.53 2.72 2.52 2.72 2.52 4.92 0.32 4.92 0.32 6.93 2.52 6.93 2.52 9.13 4.53 9.13 4.53 6.93 6.73 6.93 6.73 4.92"/><path class="cls-1" d="M10.15,3.79a5.06,5.06,0,0,0-2,2.07A5.28,5.28,0,0,0,7.6,8.27,5,5,0,0,0,9.19,12,5.35,5.35,0,0,0,13,13.54a5.9,5.9,0,0,0,1.82-.35l.13,0V11.06l-.29.16a3.2,3.2,0,0,1-1.59.41,3.41,3.41,0,0,1-2.45-1,3.17,3.17,0,0,1-1-2.4,3.17,3.17,0,0,1,1-2.41,3.47,3.47,0,0,1,2.48-1h2v8.59h1.94V3.06H12.94A5.49,5.49,0,0,0,10.15,3.79Z"/><path class="cls-1" d="M25.48,3.06H23.24a5.49,5.49,0,0,0-2.79.73,5.06,5.06,0,0,0-2,2.06h0a5.28,5.28,0,0,0-.58,2.41A4.92,4.92,0,0,0,19.49,12a5.41,5.41,0,0,0,3.83,1.49h4.1V.42H25.48Zm0,8.41H23.4a3.55,3.55,0,0,1-2.46-.9,2.94,2.94,0,0,1-1-2.31,3.17,3.17,0,0,1,1-2.41,3.47,3.47,0,0,1,2.48-1h2Z"/><path class="cls-1" d="M35.74.42V3.06H33.49a5.49,5.49,0,0,0-2.79.73,5.06,5.06,0,0,0-2,2.06h0a5.28,5.28,0,0,0-.58,2.41A4.92,4.92,0,0,0,29.74,12a5.41,5.41,0,0,0,3.83,1.49h4.1V.42ZM33.65,11.47a3.55,3.55,0,0,1-2.46-.9,2.94,2.94,0,0,1-1-2.31,3.17,3.17,0,0,1,1-2.41,3.47,3.47,0,0,1,2.48-1h2v6.58Z"/></svg>