<svg id="Layer_1" data-name="Layer 1" xmlns="http://www.w3.org/2000/svg" width="172.36" height="222.48" viewBox="0 0 172.36 222.48"><defs><style>.cls-1{fill:#4285f4;}.cls-2,.cls-3{fill:none;stroke:#4285f4;stroke-linecap:round;stroke-miterlimit:10;}.cls-2{stroke-width:2.81px;}.cls-3{stroke-width:2.38px;}</style></defs><title>branding</title><path class="cls-1" d="M136.88,85.94a7.38,7.38,0,0,0-7.4-7.4h0l-86.8.1a7.38,7.38,0,0,0-7.4,7.4v5.1H38v-5.2a4.69,4.69,0,0,1,4.7-4.7l86.8-.1h0a4.69,4.69,0,0,1,4.7,4.7v5.3h2.7Z"/><path class="cls-1" d="M136.88,90.14h-2.7l.1,46.2a4.69,4.69,0,0,1-4.7,4.7l-86.8.1a4.37,4.37,0,0,1-3.3-1.4,4.77,4.77,0,0,1-1.4-3.3V90.14h-2.7l.1,46.4a7.38,7.38,0,0,0,7.4,7.4l86.8-.1a7.26,7.26,0,0,0,5.2-2.2,7.44,7.44,0,0,0,2.2-5.2Z"/><polygon class="cls-1" points="62.48 95.24 67.38 105.24 78.48 106.84 70.48 114.64 72.38 125.64 62.48 120.44 52.58 125.64 54.48 114.64 46.48 106.84 57.58 105.24 62.48 95.24"/><line class="cls-2" x1="88.48" y1="103.64" x2="124.48" y2="103.64"/><line class="cls-3" x1="88.48" y1="111.64" x2="114.38" y2="111.64"/><line class="cls-3" x1="88.48" y1="119.64" x2="114.38" y2="119.64"/></svg>