<svg id="Layer_1" data-name="Layer 1" xmlns="http://www.w3.org/2000/svg" width="172.36" height="222.48" viewBox="0 0 172.36 222.48"><defs><style>.cls-1{fill:#4285f4;}.cls-2,.cls-3{fill:none;stroke:#4285f4;stroke-linecap:round;stroke-miterlimit:10;}.cls-2{stroke-width:2.96px;}.cls-3{stroke-width:2.51px;}</style></defs><title>branding</title><path class="cls-1" d="M139.48,84.64a7.76,7.76,0,0,0-7.78-7.78h0L40.45,77a7.76,7.76,0,0,0-7.78,7.78v5.36h2.84V84.64a4.94,4.94,0,0,1,4.94-4.94l91.25-.11h0a4.94,4.94,0,0,1,4.94,4.94v5.57h2.84Z"/><path class="cls-1" d="M139.48,89.06h-2.84l.11,48.57a4.94,4.94,0,0,1-4.94,4.94l-91.25.11a4.6,4.6,0,0,1-3.47-1.47,5,5,0,0,1-1.47-3.47V89.06H32.77l.11,48.78a7.76,7.76,0,0,0,7.78,7.78l91.25-.11a7.63,7.63,0,0,0,5.47-2.31,7.82,7.82,0,0,0,2.31-5.47Z"/><polygon class="cls-1" points="61.26 94.42 66.42 104.93 78.08 106.61 69.67 114.81 71.67 126.38 61.26 120.91 50.86 126.38 52.85 114.81 44.44 106.61 56.11 104.93 61.26 94.42"/><line class="cls-2" x1="88.6" y1="103.25" x2="126.44" y2="103.25"/><line class="cls-3" x1="88.6" y1="111.66" x2="115.83" y2="111.66"/><line class="cls-3" x1="88.6" y1="120.07" x2="115.83" y2="120.07"/></svg>