<?xml version="1.0" encoding="utf-8"?>
<!-- Generator: Adobe Illustrator 21.0.0, SVG Export Plug-In . SVG Version: 6.00 Build 0)  -->
<svg version="1.1" id="Layer_1" xmlns="http://www.w3.org/2000/svg" xmlns:xlink="http://www.w3.org/1999/xlink" x="0px" y="0px"
	 viewBox="0 0 200 146" style="enable-background:new 0 0 200 146;" xml:space="preserve">
<style type="text/css">
	.st0{fill:none;stroke:#4285F4;stroke-width:3.4008;stroke-linecap:round;stroke-miterlimit:10;}
</style>
<g>
	<circle class="st0" cx="93" cy="80" r="9.8"/>
	<line class="st0" x1="79.4" y1="85.6" x2="84" y2="83.7"/>
	<line class="st0" x1="102.1" y1="76.2" x2="106.7" y2="74.3"/>
	<line class="st0" x1="87.4" y1="66.4" x2="89.3" y2="70.9"/>
	<line class="st0" x1="96.8" y1="89" x2="98.7" y2="93.6"/>
	<line class="st0" x1="79.4" y1="74.3" x2="84" y2="76.2"/>
	<line class="st0" x1="102.1" y1="83.7" x2="106.7" y2="85.6"/>
	<line class="st0" x1="98.7" y1="66.4" x2="96.8" y2="70.9"/>
	<line class="st0" x1="89.3" y1="89" x2="87.4" y2="93.6"/>
	<ellipse transform="matrix(0.9239 -0.3827 0.3827 0.9239 -15.2632 47.2083)" class="st0" cx="111" cy="62" rx="7.9" ry="7.9"/>
	<line class="st0" x1="102.6" y1="70.4" x2="105.4" y2="67.6"/>
	<line class="st0" x1="116.6" y1="56.4" x2="119.5" y2="53.6"/>
	<line class="st0" x1="102.6" y1="53.6" x2="105.4" y2="56.4"/>
	<line class="st0" x1="116.6" y1="67.6" x2="119.5" y2="70.4"/>
	<line class="st0" x1="99.1" y1="62" x2="103.1" y2="62"/>
	<line class="st0" x1="119" y1="62" x2="122.9" y2="62"/>
	<line class="st0" x1="111" y1="50.1" x2="111" y2="54"/>
	<line class="st0" x1="111" y1="69.9" x2="111" y2="73.9"/>
	<g>
		<path class="st0" d="M103,35.7C89.3,34.6,75.6,41,67.8,53.4C59.2,67,60.5,84,69.5,96.2"/>
		<path class="st0" d="M96.8,111.4c13.7,1.1,27.6-5.2,35.4-17.7c8.6-13.6,7.3-30.6-1.7-42.8"/>
	</g>
	<polyline class="st0" points="92.1,27.8 103.7,35.1 96.4,46.8 	"/>
	<polyline class="st0" points="106.2,118.2 96.3,112 102.5,102.1 	"/>
</g>
</svg>
