<svg id="Layer_1" data-name="Layer 1" xmlns="http://www.w3.org/2000/svg" width="172.36" height="222.48" viewBox="0 0 172.36 222.48"><defs><style>.cls-1{fill:none;stroke:#4285f4;stroke-linecap:round;stroke-miterlimit:10;stroke-width:4.79px;}</style></defs><title>business process</title><circle class="cls-1" cx="76.32" cy="121.1" r="13.8"/><line class="cls-1" x1="57.17" y1="128.98" x2="63.65" y2="126.31"/><line class="cls-1" x1="89.14" y1="115.75" x2="95.62" y2="113.07"/><line class="cls-1" x1="68.44" y1="101.95" x2="71.11" y2="108.28"/><line class="cls-1" x1="81.67" y1="133.77" x2="84.35" y2="140.25"/><line class="cls-1" x1="57.17" y1="113.07" x2="63.65" y2="115.75"/><line class="cls-1" x1="89.14" y1="126.31" x2="95.62" y2="128.98"/><line class="cls-1" x1="84.35" y1="101.95" x2="81.67" y2="108.28"/><line class="cls-1" x1="71.11" y1="133.77" x2="68.44" y2="140.25"/><circle class="cls-1" cx="101.7" cy="95.76" r="11.13" transform="translate(-28.91 46.21) rotate(-22.5)"/><line class="cls-1" x1="89.84" y1="107.58" x2="93.78" y2="103.64"/><line class="cls-1" x1="109.56" y1="87.86" x2="113.64" y2="83.92"/><line class="cls-1" x1="89.84" y1="83.92" x2="93.78" y2="87.86"/><line class="cls-1" x1="109.56" y1="103.64" x2="113.64" y2="107.58"/><line class="cls-1" x1="84.91" y1="95.75" x2="90.55" y2="95.75"/><line class="cls-1" x1="112.94" y1="95.75" x2="118.43" y2="95.75"/><line class="cls-1" x1="101.67" y1="78.99" x2="101.67" y2="84.48"/><line class="cls-1" x1="101.67" y1="106.87" x2="101.67" y2="112.51"/><path class="cls-1" d="M90.4,58.71a53.48,53.48,0,0,0-47.18,85.2"/><path class="cls-1" d="M81.67,165.32a53.5,53.5,0,0,0,47.46-85.2"/><polyline class="cls-1" points="75.06 47.59 91.39 57.87 81.11 74.34"/><polyline class="cls-1" points="94.91 174.89 80.97 166.16 89.7 152.22"/></svg>