<svg id="Layer_1" data-name="Layer 1" xmlns="http://www.w3.org/2000/svg" width="172.36" height="222.48" viewBox="0 0 172.36 222.48"><defs><style>.cls-1{fill:none;stroke:#4285f4;stroke-linecap:round;stroke-miterlimit:10;stroke-width:3.5px;}</style></defs><title>business process</title><circle class="cls-1" cx="78.3" cy="119.12" r="11.04"/><line class="cls-1" x1="62.98" y1="125.43" x2="68.16" y2="123.29"/><line class="cls-1" x1="88.55" y1="114.85" x2="93.73" y2="112.7"/><line class="cls-1" x1="71.99" y1="103.8" x2="74.13" y2="108.87"/><line class="cls-1" x1="82.57" y1="129.26" x2="84.72" y2="134.45"/><line class="cls-1" x1="62.98" y1="112.7" x2="68.16" y2="114.85"/><line class="cls-1" x1="88.55" y1="123.29" x2="93.73" y2="125.43"/><line class="cls-1" x1="84.72" y1="103.8" x2="82.57" y2="108.87"/><line class="cls-1" x1="74.13" y1="129.26" x2="71.99" y2="134.45"/><circle class="cls-1" cx="98.59" cy="98.86" r="8.9" transform="translate(-30.33 45.25) rotate(-22.5)"/><line class="cls-1" x1="89.11" y1="108.31" x2="92.27" y2="105.16"/><line class="cls-1" x1="104.88" y1="92.54" x2="108.15" y2="89.39"/><line class="cls-1" x1="89.11" y1="89.39" x2="92.27" y2="92.54"/><line class="cls-1" x1="104.88" y1="105.16" x2="108.15" y2="108.31"/><line class="cls-1" x1="85.17" y1="98.85" x2="89.67" y2="98.85"/><line class="cls-1" x1="107.59" y1="98.85" x2="111.98" y2="98.85"/><line class="cls-1" x1="98.57" y1="85.44" x2="98.57" y2="89.84"/><line class="cls-1" x1="98.57" y1="107.75" x2="98.57" y2="112.26"/><path class="cls-1" d="M89.58,69.22a42.76,42.76,0,0,0-37.73,68.14"/><path class="cls-1" d="M82.57,154.5a42.76,42.76,0,0,0,38-68.14"/><polyline class="cls-1" points="77.28 60.33 90.35 68.55 82.13 81.73"/><polyline class="cls-1" points="93.17 162.16 82.01 155.17 89 144.02"/></svg>