<?xml version="1.0" encoding="utf-8"?>
<!-- Generator: Adobe Illustrator 21.0.0, SVG Export Plug-In . SVG Version: 6.00 Build 0)  -->
<svg version="1.1" id="Layer_1" xmlns="http://www.w3.org/2000/svg" xmlns:xlink="http://www.w3.org/1999/xlink" x="0px" y="0px"
	 viewBox="0 0 244 188" style="enable-background:new 0 0 244 188;" xml:space="preserve">
<style type="text/css">
	.st0{fill:none;stroke:#4285F4;stroke-width:5;stroke-linecap:round;stroke-miterlimit:10;}
	.st1{fill:none;stroke:#4285F4;stroke-width:5;stroke-linecap:round;stroke-linejoin:round;stroke-miterlimit:10;}
</style>
<g>
	<path class="st0" d="M155.8,130.7h40.5l0,0c15.4-0.3,27.7-12.8,27.7-28.2c0-15.6-12.6-28.2-28.2-28.2c-1.1,0-2.2,0.1-3.3,0.2
		c-6.2-13-19.5-22-34.8-22c-5.5,0-10.7,1.2-15.4,3.2c-8-13.2-22.5-22-39-22c-15.6,0-29.4,7.9-37.6,19.9c-1-0.1-1.9-0.1-2.9-0.1
		c-21.3,0-38.6,17.3-38.6,38.6c0,21,16.8,38.1,37.6,38.6l0,0h19.8"/>
	<line class="st1" x1="139.8" y1="157.9" x2="139.8" y2="99.1"/>
	<line class="st1" x1="102.5" y1="157.9" x2="102.5" y2="99.1"/>
	<line class="st1" x1="139.8" y1="99.1" x2="150.3" y2="107.5"/>
	<line class="st1" x1="139.8" y1="99.1" x2="129.3" y2="107.5"/>
	<line class="st1" x1="102.4" y1="158.3" x2="91.9" y2="150"/>
	<line class="st1" x1="102.5" y1="158.3" x2="113" y2="150"/>
</g>
</svg>
