<?xml version="1.0" encoding="utf-8"?>
<!-- Generator: Adobe Illustrator 21.1.0, SVG Export Plug-In . SVG Version: 6.00 Build 0)  -->
<svg version="1.1" id="Layer_1" xmlns="http://www.w3.org/2000/svg" xmlns:xlink="http://www.w3.org/1999/xlink" x="0px" y="0px"
	 viewBox="0 0 131 120" style="enable-background:new 0 0 131 120;" xml:space="preserve">
<style type="text/css">
	.st0{fill:none;stroke:#4285F4;stroke-width:3;stroke-linecap:round;stroke-linejoin:round;stroke-miterlimit:10;}
	.st1{fill:#4285F4;}
</style>
<g>
	<polyline class="st0" points="51.2,24.5 30.2,24.5 30.2,106.9 101.8,106.9 101.8,24.5 80.7,24.5 	"/>
	<g>
		<g>
			<path class="st1" d="M66,13.1c3,0,5.4,2.4,5.4,5.4h8v10.7H52.6V18.5h8C60.7,15.5,63.1,13.1,66,13.1 M66,10.1
				c-3.6,0-6.6,2.2-7.8,5.4h-5.6c-1.7,0-3,1.3-3,3v10.7c0,1.7,1.3,3,3,3h26.8c1.7,0,3-1.3,3-3V18.5c0-1.7-1.3-3-3-3h-5.6
				C72.6,12.4,69.6,10.1,66,10.1L66,10.1z"/>
		</g>
	</g>
	<g>
		<line class="st0" x1="42.3" y1="55.9" x2="90.3" y2="55.9"/>
		<polyline class="st0" points="50.3,64.4 41.8,55.9 50.3,47.4 		"/>
		<line class="st0" x1="89.8" y1="82.9" x2="41.8" y2="82.9"/>
		<polyline class="st0" points="81.8,74.4 90.3,82.9 81.8,91.4 		"/>
	</g>
</g>
</svg>
