<svg id="Layer_1" data-name="Layer 1" xmlns="http://www.w3.org/2000/svg" width="164" height="150" viewBox="0 0 164 150"><defs><style>.cls-1{fill:none;stroke:#4285f4;stroke-linecap:round;stroke-linejoin:round;stroke-width:3px;}.cls-2{fill:#4285f4;}</style></defs><title>communication</title><polyline class="cls-1" points="67.2 41 46.2 41 46.2 123.4 117.8 123.4 117.8 41 96.7 41"/><path class="cls-2" d="M82,29.6A5.38,5.38,0,0,1,87.4,35h8V45.7H68.6V35h8A5.51,5.51,0,0,1,82,29.6m0-3A8.25,8.25,0,0,0,74.2,32H68.6a3,3,0,0,0-3,3V45.7a3,3,0,0,0,3,3H95.4a3,3,0,0,0,3-3V35a3,3,0,0,0-3-3H89.8A8.4,8.4,0,0,0,82,26.6Z"/><line class="cls-1" x1="58.3" y1="72.4" x2="106.3" y2="72.4"/><polyline class="cls-1" points="66.3 80.9 57.8 72.4 66.3 63.9"/><line class="cls-1" x1="105.8" y1="99.4" x2="57.8" y2="99.4"/><polyline class="cls-1" points="97.8 90.9 106.3 99.4 97.8 107.9"/></svg>