<?xml version="1.0" encoding="utf-8"?>
<!-- Generator: Adobe Illustrator 21.0.0, SVG Export Plug-In . SVG Version: 6.00 Build 0)  -->
<svg version="1.1" id="Layer_1" xmlns="http://www.w3.org/2000/svg" xmlns:xlink="http://www.w3.org/1999/xlink" x="0px" y="0px"
	 viewBox="0 0 156 132" style="enable-background:new 0 0 156 132;" xml:space="preserve">
<style type="text/css">
	.st0{fill:none;stroke:#4E85F2;stroke-width:1.8249;stroke-linejoin:round;stroke-miterlimit:10;}
	.st1{fill:none;stroke:#4E85F2;stroke-width:2;stroke-linejoin:round;stroke-miterlimit:10;}
	
		.st2{opacity:0.15;fill:none;stroke:#4E85F2;stroke-width:2;stroke-linejoin:round;stroke-miterlimit:10;enable-background:new    ;}
	.st3{fill:#4E85F2;}
	.st4{fill:none;stroke:#4E85F2;stroke-width:1.5737;stroke-linecap:round;stroke-linejoin:round;stroke-miterlimit:10;}
</style>
<g>
	<g>
		<polygon class="st0" points="60.3,63 56.7,63.2 56.2,56 59.8,55.7 87,45.7 88.4,69.7 		"/>
		<path class="st0" d="M71.4,65.7L71.1,67c-0.5,2-2.5,3.3-4.6,2.8l0,0c-2-0.5-3.3-2.5-2.8-4.6l0.3-1.3"/>
	</g>
	<g>
		<path class="st1" d="M98.4,108.6c-0.5-0.9-0.8-1.9-0.8-3c0-2.2,0-4.6,0-7h0.2C97.7,103.6,97.7,106.6,98.4,108.6z"/>
		<path class="st1" d="M99.4,110.1h-2.2l0,0H68.4c0.7-0.8,0.4-1.6,0.8-4.1v-7.4h1.2l0,0h27.2c0,2.4,0,4.8,0,7c0,1,0.4,2.1,0.8,3
			C98.7,109.2,99,109.7,99.4,110.1L99.4,110.1z"/>
		<path class="st2" d="M99.4,110.1c-0.4-0.4-0.7-0.9-1-1.5C98.7,109.1,99,109.7,99.4,110.1z"/>
		<rect x="130.9" y="35.5" class="st1" width="0.1" height="1.2"/>
		<path class="st1" d="M134.8,44.8l0.1,41.2L33.2,86.1v8.5c0,2.3,1.8,4.1,4.1,4.1h31.9h1.2l0,0h27.2h0.2l33.1-0.1
			c2.3,0,4.1-1.8,4.1-4.1L134.8,44.8z M87,92.6c0,0.6-0.3,1.2-0.6,1.6c-0.5,0.7-1.4,1.1-2.3,1.1c-0.9,0-1.8-0.4-2.3-1.1
			c-0.2-0.2-0.3-0.5-0.5-0.8c-0.1-0.3-0.2-0.7-0.2-1.1c0-1.6,1.3-3,3-3c1.6,0,3,1.3,3,3C87,92.4,87,92.5,87,92.6z"/>
		<path class="st1" d="M134.8,44.8v-9.3V27c0-2.3-1.8-4.1-4.1-4.1L37.2,23c-2.3,0-4.1,1.8-4.1,4.1v8.5v9.3l0.1,41.2L134.9,86
			L134.8,44.8z M131,80.4l-93.9,0.1L37,35.6v-0.8l0,0v-6l0,0v-0.2l93.9-0.1v0.2h0.2v6H131v2h-0.1L131,80.4z"/>
		<polygon class="st1" points="33.2,86.1 33.2,86.1 33.1,44.9 		"/>
		<polygon class="st1" points="131.1,34.6 131,34.6 131,36.7 130.9,36.7 130.9,35.5 37.1,35.6 37,35.6 37,34.8 37,34.8 37,28.7 
			37,28.7 37,28.6 130.9,28.4 130.9,28.6 131.1,28.6 		"/>
		<polygon class="st1" points="130.9,35.5 37.1,35.6 37,35.6 37,34.8 37,28.7 37,28.6 130.9,28.4 130.9,28.6 		"/>
		<polygon class="st1" points="131.1,34.6 131,34.6 131,36.7 130.9,36.7 130.9,35.5 37.1,35.6 37.1,34.8 37,34.8 37,28.7 37,28.7 
			130.9,28.6 131.1,28.6 		"/>
		<path class="st1" d="M104.9,113.1l-42.7,0.1c0-0.8,0.3-1.5,0.9-2.1c0.5-0.6,1.3-0.9,2.1-0.9h3.2h28.8l0,0h2.2h2.5
			C103.5,110.1,104.9,111.5,104.9,113.1z"/>
		<g>
			<g>
				<path class="st3" d="M40.9,30.8L40.9,30.8c-0.8,0-1.5,0.5-1.5,1.2c0,0.6,0.7,1.1,1.5,1.1l0,0c0.8,0,1.5-0.5,1.5-1.1
					C42.5,31.3,41.8,30.8,40.9,30.8L40.9,30.8z"/>
			</g>
			<g>
				<path class="st3" d="M47.5,30.8L47.5,30.8c-0.8,0-1.5,0.5-1.5,1.2c0,0.6,0.7,1.1,1.5,1.1l0,0c0.8,0,1.5-0.5,1.5-1.1
					C49,31.3,48.4,30.8,47.5,30.8L47.5,30.8z"/>
			</g>
			<g>
				<path class="st3" d="M54.1,30.8L54.1,30.8c-0.8,0-1.5,0.5-1.5,1.2c0,0.6,0.7,1.1,1.5,1.1l0,0c0.8,0,1.5-0.5,1.5-1.2
					C55.6,31.3,54.9,30.8,54.1,30.8L54.1,30.8z"/>
			</g>
		</g>
	</g>
	<path class="st4" d="M93.1,50.2c4.8,4.3,5.2,11.7,0.9,16.5"/>
	<path class="st4" d="M98,44.8c7.8,7,8.5,19.1,1.4,26.9"/>
	<path class="st4" d="M102.4,39.9c10.5,9.4,11.4,25.6,1.9,36.1"/>
</g>
</svg>
