<svg id="Layer_1" data-name="Layer 1" xmlns="http://www.w3.org/2000/svg" width="172.36" height="222.48" viewBox="0 0 172.36 222.48"><defs><style>.cls-1,.cls-2,.cls-3,.cls-5{fill:none;stroke:#4e85f2;stroke-linejoin:round;}.cls-1{stroke-width:1.92px;}.cls-2,.cls-3{stroke-width:2.1px;}.cls-3{opacity:0.15;isolation:isolate;}.cls-4{fill:#4e85f2;}.cls-5{stroke-linecap:round;stroke-width:1.65px;}</style></defs><title>dig adv</title><polygon class="cls-1" points="61.24 105.94 57.45 106.15 56.93 98.58 60.71 98.27 89.28 87.77 90.75 112.97 61.24 105.94"/><path class="cls-1" d="M72.89,108.77l-.32,1.37a4,4,0,0,1-4.83,2.94h0a4,4,0,0,1-2.94-4.83l.32-1.37"/><path class="cls-2" d="M101.25,153.83a6.42,6.42,0,0,1-.84-3.15v-7.35h.21C100.52,148.58,100.52,151.73,101.25,153.83Z"/><path class="cls-2" d="M102.3,155.4H69.74c.74-.84.42-1.68.84-4.31v-7.77h29.83v7.35a8.27,8.27,0,0,0,.84,3.15,5.89,5.89,0,0,0,1.05,1.58Z"/><path class="cls-3" d="M102.3,155.4a5.89,5.89,0,0,1-1.05-1.58A8.23,8.23,0,0,0,102.3,155.4Z"/><rect class="cls-2" x="135.38" y="77.05" width="0.11" height="1.26"/><path class="cls-2" d="M139.48,86.82l.11,43.27-106.81.11v8.93a4.26,4.26,0,0,0,4.31,4.31h63.54l34.76-.11a4.26,4.26,0,0,0,4.31-4.31ZM89.28,137a3.07,3.07,0,0,1-5.46,1.68,5.86,5.86,0,0,1-.53-.84,3.78,3.78,0,0,1-.21-1.16,3.15,3.15,0,0,1,6.3,0A.39.39,0,0,0,89.28,137Z"/><path class="cls-2" d="M139.48,86.82V68.13a4.26,4.26,0,0,0-4.31-4.31L37,63.93a4.26,4.26,0,0,0-4.31,4.31V86.93l.11,43.27,106.81-.11Zm-4,37.39-98.62.11-.11-47.16v-.84h0V70h0v-.21l98.62-.11v.21h.21v6.3h-.11v2.1h-.11Z"/><polygon class="cls-2" points="32.77 130.2 32.77 130.2 32.67 86.93 32.77 130.2"/><polygon class="cls-2" points="135.59 76.11 135.49 76.11 135.49 78.31 135.38 78.31 135.38 77.05 36.87 77.16 36.77 77.16 36.77 76.32 36.77 76.32 36.77 69.91 36.77 69.91 36.77 69.81 135.38 69.6 135.38 69.81 135.59 69.81 135.59 76.11"/><polygon class="cls-2" points="135.38 77.05 36.87 77.16 36.77 77.16 36.77 76.32 36.77 69.91 36.77 69.81 135.38 69.6 135.38 69.81 135.38 77.05"/><polygon class="cls-2" points="135.59 76.11 135.49 76.11 135.49 78.31 135.38 78.31 135.38 77.05 36.87 77.16 36.87 76.32 36.77 76.32 36.77 69.91 36.77 69.91 135.38 69.81 135.59 69.81 135.59 76.11"/><path class="cls-2" d="M108.08,158.55l-44.85.11a3,3,0,0,1,.95-2.21,2.86,2.86,0,0,1,2.21-.95h38.54A3.07,3.07,0,0,1,108.08,158.55Z"/><path class="cls-4" d="M40.86,72.12h0a1.44,1.44,0,0,0-1.58,1.26c0,.63.74,1.16,1.58,1.16h0c.84,0,1.58-.53,1.58-1.16s-.63-1.26-1.58-1.26Z"/><path class="cls-4" d="M47.79,72.12h0a1.44,1.44,0,0,0-1.58,1.26c0,.63.74,1.16,1.58,1.16h0c.84,0,1.58-.53,1.58-1.16s-.63-1.26-1.58-1.26Z"/><path class="cls-4" d="M54.72,72.12h0a1.44,1.44,0,0,0-1.58,1.26c0,.63.74,1.16,1.58,1.16h0a1.44,1.44,0,0,0,1.58-1.26c0-.63-.74-1.16-1.58-1.16Z"/><path class="cls-5" d="M95.68,92.49a12.28,12.28,0,0,1,.95,17.33"/><path class="cls-5" d="M100.83,86.82a20,20,0,0,1,1.47,28.25"/><path class="cls-5" d="M105.45,81.68a26.79,26.79,0,0,1,2,37.91"/></svg>