<?xml version="1.0" encoding="utf-8"?>
<!-- Generator: Adobe Illustrator 21.0.0, SVG Export Plug-In . SVG Version: 6.00 Build 0)  -->
<svg version="1.1" id="Layer_1" xmlns="http://www.w3.org/2000/svg" xmlns:xlink="http://www.w3.org/1999/xlink" x="0px" y="0px"
	 viewBox="0 0 99 85" style="enable-background:new 0 0 99 85;" xml:space="preserve">
<style type="text/css">
	.st0{fill:#4285F4;}
	.st1{fill:none;stroke:#4285F4;stroke-width:2;stroke-linecap:round;stroke-linejoin:round;stroke-miterlimit:10;}
</style>
<g>
	<g>
		<path class="st0" d="M30.3,50.3C30.2,50.3,30.2,50.3,30.3,50.3l-5.1,1.1c-0.1,0-0.2,0.1-0.2,0.2v0.7v0.8c0,0.1,0.1,0.3,0.2,0.4
			l5.1,6.3c0.1,0.2,0.3,0.2,0.4,0.2c0.1,0,0.2-0.1,0.2-0.3v-1.9c0-0.1-0.1-0.3-0.2-0.4l-3.1-3.8h0.1l3-0.6c0.1,0,0.2-0.1,0.2-0.2
			v-1.9C30.8,50.7,30.5,50.3,30.3,50.3L30.3,50.3z"/>
	</g>
	<g>
		<path class="st0" d="M40.4,55.6c-0.1,0-0.2,0.1-0.2,0.3v1.9c0,0.1,0.1,0.3,0.2,0.4l3,3.7l0.1,0.1l-3.1,0.6c-0.1,0-0.2,0.1-0.2,0.2
			v1.9c0,0.3,0.3,0.7,0.5,0.7c0,0,0,0,0.1,0l5.1-1.1c0.1,0,0.2-0.1,0.2-0.2v-0.8v-0.7c0-0.1-0.1-0.3-0.2-0.4l-5.1-6.3
			C40.6,55.7,40.5,55.6,40.4,55.6L40.4,55.6z"/>
	</g>
	<g>
		<path class="st0" d="M36.4,51.3c-0.1,0-0.2,0-0.2,0.1L32.4,62c-0.1,0.2,0.1,0.6,0.4,0.7l1.7,0.8c0.1,0,0.1,0,0.1,0
			c0.1,0,0.2-0.1,0.2-0.1l3.5-10.7c0.1-0.2-0.1-0.6-0.4-0.7L36.4,51.3C36.5,51.3,36.5,51.3,36.4,51.3L36.4,51.3z"/>
	</g>
	<polygon class="st1" points="49.6,75.5 19,59.5 19,28 49.6,44 	"/>
	<line class="st1" x1="49.6" y1="12" x2="80.3" y2="28"/>
	<polyline class="st1" points="80.3,59.5 80.3,28 49.6,44 49.6,75.5 80.3,59.5 	"/>
	<line class="st1" x1="49.6" y1="12" x2="19" y2="28"/>
</g>
</svg>
