<svg id="Layer_1" data-name="Layer 1" xmlns="http://www.w3.org/2000/svg" width="172.36" height="222.48" viewBox="0 0 172.36 222.48"><defs><style>.cls-1{fill:#4285f4;}.cls-2{fill:none;stroke:#4285f4;stroke-linecap:round;stroke-linejoin:round;stroke-width:3.49px;}</style></defs><title>dig products</title><path class="cls-1" d="M52.4,122.68h0l-8.9,1.92a.38.38,0,0,0-.35.35v2.62a1.32,1.32,0,0,0,.35.7l8.9,11a.7.7,0,0,0,.7.35c.17,0,.35-.17.35-.52v-3.32a1.32,1.32,0,0,0-.35-.7l-5.41-6.63h.17l5.24-1a.38.38,0,0,0,.35-.35v-3.32c-.17-.35-.7-1-1-1Z"/><path class="cls-1" d="M70,131.93c-.17,0-.35.17-.35.52v3.32a1.32,1.32,0,0,0,.35.7l5.24,6.46.17.17-5.41,1a.38.38,0,0,0-.35.35v3.32c0,.52.52,1.22.87,1.22h.17l8.9-1.92a.38.38,0,0,0,.35-.35v-2.62a1.32,1.32,0,0,0-.35-.7l-8.9-11c-.35-.35-.52-.52-.7-.52Z"/><path class="cls-1" d="M63,124.42c-.17,0-.35,0-.35.17L56.06,143.1c-.17.35.17,1,.7,1.22l3,1.4h.17a.61.61,0,0,0,.35-.17l6.11-18.68c.17-.35-.17-1-.7-1.22L63,124.42Z"/><polygon class="cls-2" points="86.09 166.67 32.67 138.74 32.67 83.74 86.09 111.68 86.09 166.67"/><line class="cls-2" x1="86.09" y1="55.81" x2="139.69" y2="83.74"/><polyline class="cls-2" points="139.69 138.74 139.69 83.74 86.09 111.68 86.09 166.67 139.69 138.74"/><line class="cls-2" x1="86.09" y1="55.81" x2="32.67" y2="83.74"/></svg>