<svg id="Layer_1" data-name="Layer 1" xmlns="http://www.w3.org/2000/svg" width="172.36" height="222.48" viewBox="0 0 172.36 222.48"><defs><style>.cls-1,.cls-2,.cls-3,.cls-4{fill:none;stroke:#4e85f2;}.cls-1,.cls-2,.cls-3{stroke-linejoin:round;stroke-width:2.1px;}.cls-2{opacity:0.15;}.cls-2,.cls-3{isolation:isolate;}.cls-3{opacity:0.67;}.cls-4{stroke-miterlimit:10;stroke-width:2.6px;}</style></defs><title>dig experience</title><path class="cls-1" d="M101.25,153.83a6.42,6.42,0,0,1-.84-3.15v-7.35h.21C100.52,148.58,100.52,151.73,101.25,153.83Z"/><path class="cls-1" d="M102.3,155.4H69.74c.74-.84.42-1.68.84-4.31v-7.77h29.83v7.35a8.27,8.27,0,0,0,.84,3.15,5.89,5.89,0,0,0,1.05,1.58Z"/><path class="cls-2" d="M102.3,155.4a5.89,5.89,0,0,1-1.05-1.58A8.23,8.23,0,0,0,102.3,155.4Z"/><rect class="cls-1" x="135.38" y="77.05" width="0.11" height="1.26"/><path class="cls-1" d="M139.48,86.82l.11,43.27-106.81.11v8.93a4.26,4.26,0,0,0,4.31,4.31h63.54l34.76-.11a4.26,4.26,0,0,0,4.31-4.31ZM89.28,137a3.07,3.07,0,0,1-5.46,1.68,5.86,5.86,0,0,1-.53-.84,3.78,3.78,0,0,1-.21-1.16,3.15,3.15,0,0,1,6.3,0A.39.39,0,0,0,89.28,137Z"/><path class="cls-1" d="M139.48,86.82V68.13a4.26,4.26,0,0,0-4.31-4.31L37,63.93a4.26,4.26,0,0,0-4.31,4.31V86.93l.11,43.27,106.81-.11Zm-4,37.39-98.62.11-.11-47.16v-.84h0V70h0v-.21l98.62-.11v.21h.21v6.3h-.11v2.1h-.11Z"/><polygon class="cls-1" points="32.77 130.2 32.77 130.2 32.67 86.93 32.77 130.2"/><path class="cls-3" d="M89.28,136.71V137a3.07,3.07,0,0,1-5.46,1.68,5.86,5.86,0,0,1-.53-.84,3.78,3.78,0,0,1-.21-1.16,3.16,3.16,0,0,1,3.15-3.15A3.21,3.21,0,0,1,89.28,136.71Z"/><path class="cls-1" d="M108.08,158.55l-44.85.11a3,3,0,0,1,.95-2.21,2.86,2.86,0,0,1,2.21-.95h38.54A3.07,3.07,0,0,1,108.08,158.55Z"/><path class="cls-4" d="M89.38,97.22a1.11,1.11,0,0,1-1.05-.84l-.95-2-1.05-2.31a.3.3,0,0,0-.53,0l-1.05,2.31-.95,2a1.67,1.67,0,0,1-1.05.84l-2.21.21L78,97.64a.23.23,0,0,0-.11.42l1.89,1.68,1.68,1.47a1.44,1.44,0,0,1,.42,1.26l-.42,2.21L81,107.09c0,.21.21.42.42.32l2.21-1.26L85.5,105a1.56,1.56,0,0,1,1.37,0l1.89,1.16L91,107.41c.21.11.42-.11.42-.32l-.53-2.42-.42-2.21a1.44,1.44,0,0,1,.42-1.26l1.68-1.47,1.89-1.68a.23.23,0,0,0-.11-.42l-2.52-.21Z"/><path class="cls-4" d="M104,93.44,93,92.28a1.11,1.11,0,0,1-1.05-.84L87.39,81.36a1.32,1.32,0,0,0-2.42,0L80.46,91.44a1.67,1.67,0,0,1-1.05.84l-11,1.16a1.33,1.33,0,0,0-.74,2.31l8.19,7.35a1.44,1.44,0,0,1,.42,1.26l-2.31,10.82a1.37,1.37,0,0,0,2,1.47l9.56-5.57a1.56,1.56,0,0,1,1.37,0l9.56,5.57a1.35,1.35,0,0,0,2-1.47l-2.31-10.82a1.44,1.44,0,0,1,.42-1.26l8.19-7.35A1.34,1.34,0,0,0,104,93.44ZM92.43,99.84l-1.68,1.47a1.44,1.44,0,0,0-.42,1.26l.42,2.21.53,2.42c0,.21-.21.42-.42.32l-2.21-1.26-1.89-1.16a1.56,1.56,0,0,0-1.37,0l-1.89,1.16-2.21,1.26c-.21.11-.42-.11-.42-.32l.53-2.42.42-2.21a1.44,1.44,0,0,0-.42-1.26l-1.68-1.47-1.89-1.68a.23.23,0,0,1,.11-.42l2.52-.21,2.21-.21a1.11,1.11,0,0,0,1.05-.84l.95-2,1.05-2.31a.3.3,0,0,1,.53,0l1.05,2.31.95,2a1.67,1.67,0,0,0,1.05.84l2.21.21,2.52.21a.23.23,0,0,1,.11.42Z"/></svg>