<svg id="Layer_1" data-name="Layer 1" xmlns="http://www.w3.org/2000/svg" width="172.36" height="222.48" viewBox="0 0 172.36 222.48"><defs><style>.cls-1,.cls-3{fill:none;stroke:#4285f4;stroke-linejoin:round;stroke-width:4.1px;}.cls-1{stroke-linecap:round;}.cls-2{fill:#4285f4;}</style></defs><title>dig trans</title><path class="cls-1" d="M124.95,123.66a29.58,29.58,0,0,0-25.8-47.37"/><path class="cls-1" d="M47.41,104.28a29.65,29.65,0,0,0,25.8,47.5"/><polyline class="cls-1" points="139.69 117.52 125.08 124.48 118.12 109.88"/><polyline class="cls-1" points="32.67 110.56 47.27 103.6 54.24 118.2"/><rect class="cls-1" x="39.77" y="63.6" width="38.77" height="29.08"/><path class="cls-1" d="M52.74,63.05a6.55,6.55,0,0,1,6.55-6.55,6.64,6.64,0,0,1,6.55,6.55"/><line class="cls-1" x1="39.77" y1="81.34" x2="78.67" y2="81.34"/><circle class="cls-2" cx="59.29" cy="76.43" r="1.64"/><path class="cls-2" d="M109.11,150.42c-.14,0-.27,0-.27.14l-7.51,5.19c-.14.14-.27.27-.27.41v2c0,.14.14.41.27.41l7.51,5.19a.42.42,0,0,0,.27.14.59.59,0,0,0,.55-.55v-2.59c0-.14-.14-.41-.27-.41l-4.5-3.14.14-.14,4.37-3c.14-.14.27-.27.27-.41V151.1a.62.62,0,0,0-.55-.68Z"/><path class="cls-2" d="M124.13,150.42a.59.59,0,0,0-.55.55v2.59c0,.14.14.41.27.41l4.37,3,.14.14-4.5,3.14c-.14.14-.27.27-.27.41v2.59a.59.59,0,0,0,.55.55c.14,0,.27,0,.27-.14l7.51-5.19c.14-.14.27-.27.27-.41v-2c0-.14-.14-.41-.27-.41l-7.51-5.19Z"/><path class="cls-2" d="M120.31,147.28h0l-2,.14c-.27,0-.41.14-.55.41l-5.6,17.47c-.14.41.14.68.55.68h0l2.46-.14c.27,0,.41-.14.55-.41L120.85,148c.14-.41-.14-.68-.55-.68Z"/><circle class="cls-3" cx="96.83" cy="133.23" r="9.28" transform="translate(-43.61 47.2) rotate(-22.5)"/><line class="cls-3" x1="87" y1="143.18" x2="90.28" y2="139.91"/><line class="cls-3" x1="103.52" y1="126.67" x2="106.79" y2="123.39"/><line class="cls-3" x1="87" y1="123.39" x2="90.28" y2="126.67"/><line class="cls-3" x1="103.52" y1="139.91" x2="106.79" y2="143.18"/><line class="cls-3" x1="82.9" y1="133.22" x2="87.55" y2="133.22"/><line class="cls-3" x1="106.25" y1="133.22" x2="110.89" y2="133.22"/><line class="cls-3" x1="96.83" y1="119.29" x2="96.83" y2="123.94"/><line class="cls-3" x1="96.83" y1="142.64" x2="96.83" y2="147.28"/></svg>