<?xml version="1.0" encoding="utf-8"?>
<!-- Generator: Adobe Illustrator 21.0.0, SVG Export Plug-In . SVG Version: 6.00 Build 0)  -->
<svg version="1.1" id="Layer_1" xmlns="http://www.w3.org/2000/svg" xmlns:xlink="http://www.w3.org/1999/xlink" x="0px" y="0px"
	 viewBox="0 0 131 108" style="enable-background:new 0 0 131 108;" xml:space="preserve">
<style type="text/css">
	.st0{fill:none;stroke:#4E85F2;stroke-width:2;stroke-linejoin:round;stroke-miterlimit:10;}
	
		.st1{opacity:0.15;fill:none;stroke:#4E85F2;stroke-width:2;stroke-linejoin:round;stroke-miterlimit:10;enable-background:new    ;}
	
		.st2{opacity:0.67;fill:none;stroke:#4E85F2;stroke-width:2;stroke-linejoin:round;stroke-miterlimit:10;enable-background:new    ;}
	.st3{fill:none;stroke:#4E85F2;stroke-width:2.4712;stroke-miterlimit:10;}
</style>
<g>
	<path class="st0" d="M81.4,95.6c-0.5-0.9-0.8-1.9-0.8-3c0-2.2,0-4.6,0-7h0.2C80.7,90.6,80.7,93.6,81.4,95.6z"/>
	<path class="st0" d="M82.4,97.1h-2.2l0,0H51.4c0.7-0.8,0.4-1.6,0.8-4.1v-7.4h1.2l0,0h27.2c0,2.4,0,4.8,0,7c0,1,0.4,2.1,0.8,3
		C81.7,96.2,82,96.7,82.4,97.1L82.4,97.1z"/>
	<path class="st1" d="M82.4,97.1c-0.4-0.4-0.7-0.9-1-1.5C81.7,96.1,82,96.7,82.4,97.1z"/>
	<rect x="113.9" y="22.5" class="st0" width="0.1" height="1.2"/>
	<path class="st0" d="M117.8,31.8l0.1,41.2L16.2,73.1v8.5c0,2.3,1.8,4.1,4.1,4.1h31.9h1.2l0,0h27.2h0.2l33.1-0.1
		c2.3,0,4.1-1.8,4.1-4.1L117.8,31.8z M70,79.6c0,0.6-0.3,1.2-0.6,1.6c-0.5,0.7-1.4,1.1-2.3,1.1c-0.9,0-1.8-0.4-2.3-1.1
		c-0.2-0.2-0.3-0.5-0.5-0.8c-0.1-0.3-0.2-0.7-0.2-1.1c0-1.6,1.3-3,3-3c1.6,0,3,1.3,3,3C70,79.4,70,79.5,70,79.6z"/>
	<path class="st0" d="M117.8,31.8v-9.3V14c0-2.3-1.8-4.1-4.1-4.1L20.2,10c-2.3,0-4.1,1.8-4.1,4.1v8.5v9.3l0.1,41.2L117.9,73
		L117.8,31.8z M114,67.4l-93.9,0.1L20,22.6v-0.8l0,0v-6l0,0v-0.2l93.9-0.1v0.2h0.2v6H114v2h-0.1L114,67.4z"/>
	<polygon class="st0" points="16.2,73.1 16.2,73.1 16.1,31.9 	"/>
	<path class="st2" d="M70,79.3c0,0.1,0,0.2,0,0.3c0,0.6-0.3,1.2-0.6,1.6c-0.5,0.7-1.4,1.1-2.3,1.1c-0.9,0-1.8-0.4-2.3-1.1
		c-0.2-0.2-0.3-0.5-0.5-0.8c-0.1-0.3-0.2-0.7-0.2-1.1c0-1.6,1.3-3,3-3C68.7,76.4,70,77.7,70,79.3z"/>
	<path class="st0" d="M87.9,100.1l-42.7,0.1c0-0.8,0.3-1.5,0.9-2.1c0.5-0.6,1.3-0.9,2.1-0.9h3.2h28.8l0,0h2.2h2.5
		C86.5,97.1,87.9,98.5,87.9,100.1z"/>
	<g>
		<path class="st3" d="M70.1,41.7c-0.5,0-0.8-0.3-1-0.8L68.2,39l-1-2.2c-0.1-0.2-0.4-0.2-0.5,0l-1,2.2l-0.9,1.9
			c-0.2,0.4-0.6,0.7-1,0.8l-2.1,0.2l-2.4,0.2c-0.2,0-0.3,0.3-0.1,0.4l1.8,1.6l1.6,1.4c0.3,0.3,0.5,0.8,0.4,1.2l-0.4,2.1l-0.5,2.3
			c0,0.2,0.2,0.4,0.4,0.3l2.1-1.2l1.8-1.1c0.4-0.2,0.9-0.2,1.3,0l1.8,1.1l2.1,1.2c0.2,0.1,0.4-0.1,0.4-0.3l-0.5-2.3l-0.4-2.1
			c-0.1-0.4,0.1-0.9,0.4-1.2l1.6-1.4l1.8-1.6c0.2-0.1,0.1-0.4-0.1-0.4l-2.4-0.2L70.1,41.7z"/>
		<path class="st3" d="M84,38.1L73.5,37c-0.5,0-0.8-0.3-1-0.8l-4.3-9.6c-0.4-1-1.9-1-2.3,0l-4.3,9.6c-0.2,0.4-0.6,0.7-1,0.8
			l-10.5,1.1c-1.1,0.1-1.5,1.5-0.7,2.2l7.8,7c0.3,0.3,0.5,0.8,0.4,1.2l-2.2,10.3c-0.2,1.1,0.9,1.9,1.9,1.4l9.1-5.3
			c0.4-0.2,0.9-0.2,1.3,0l9.1,5.3c1,0.6,2.1-0.3,1.9-1.4l-2.2-10.3c-0.1-0.4,0.1-0.9,0.4-1.2l7.8-7C85.5,39.6,85.1,38.3,84,38.1z
			 M73,44.2l-1.6,1.4c-0.3,0.3-0.5,0.8-0.4,1.2l0.4,2.1l0.5,2.3c0,0.2-0.2,0.4-0.4,0.3l-2.1-1.2l-1.8-1.1c-0.4-0.2-0.9-0.2-1.3,0
			l-1.8,1.1l-2.1,1.2c-0.2,0.1-0.4-0.1-0.4-0.3l0.5-2.3l0.4-2.1c0.1-0.4-0.1-0.9-0.4-1.2l-1.6-1.4l-1.8-1.6
			c-0.2-0.1-0.1-0.4,0.1-0.4l2.4-0.2l2.1-0.2c0.5,0,0.8-0.3,1-0.8l0.9-1.9l1-2.2c0.1-0.2,0.4-0.2,0.5,0l1,2.2L69,41
			c0.2,0.4,0.6,0.7,1,0.8l2.1,0.2l2.4,0.2c0.2,0,0.3,0.3,0.1,0.4L73,44.2z"/>
	</g>
</g>
</svg>
