<svg id="Layer_1" data-name="Layer 1" xmlns="http://www.w3.org/2000/svg" width="172.36" height="149.36" viewBox="0 0 172.36 149.36"><defs><style>.cls-1{fill:#4e85f2;}.cls-2,.cls-3,.cls-4{fill:none;stroke:#4e85f2;stroke-linejoin:round;stroke-width:2.1px;}.cls-3{opacity:0.15;}.cls-3,.cls-4{isolation:isolate;}.cls-4{opacity:0.67;}</style></defs><title>ecom</title><g id="SHOPPING_CART" data-name="SHOPPING CART"><path class="cls-1" d="M105.18,53H75.88l-1.3-3.7a1.17,1.17,0,0,0-1.1-.8h-5.8a1.2,1.2,0,0,0,0,2.4h5l8,22.9h-4.6a3.1,3.1,0,1,0,3.1,3.1v-.8h19.6v.8a3.1,3.1,0,1,0,3.1-3.1H83.08l-1.5-4.2,17.8-1.2a1.2,1.2,0,0,0,1-.7l5.5-12.2.3-.8a.9.9,0,0,0,.1-.5A1,1,0,0,0,105.18,53Zm-6.6,13-17.7,1.2-4.1-11.8h26.6Z"/></g><path class="cls-2" d="M101.25,117.22a6.42,6.42,0,0,1-.84-3.15v-7.35h.21C100.52,112.07,100.41,115.22,101.25,117.22Z"/><path class="cls-2" d="M102.3,118.9H69.74c.74-.84.42-1.68.84-4.31v-7.77h29.83v7.35a8.27,8.27,0,0,0,.84,3.15,4.59,4.59,0,0,0,1.05,1.58Z"/><path class="cls-3" d="M102.3,118.9a5.89,5.89,0,0,1-1.05-1.58A13.68,13.68,0,0,0,102.3,118.9Z"/><rect class="cls-2" x="135.38" y="40.55" width="0.11" height="1.26"/><path class="cls-2" d="M139.48,50.21l.11,43.27-106.81.11v8.93a4.26,4.26,0,0,0,4.31,4.31h63.54l34.76-.11a4.26,4.26,0,0,0,4.31-4.31Zm-50.2,50.31a3.07,3.07,0,0,1-5.46,1.68,5.86,5.86,0,0,1-.53-.84,3.78,3.78,0,0,1-.21-1.16,3.15,3.15,0,0,1,6.3,0A.39.39,0,0,0,89.28,100.52Z"/><path class="cls-2" d="M139.48,50.21V31.51a4.26,4.26,0,0,0-4.31-4.31L37,27.31a4.26,4.26,0,0,0-4.31,4.31V50.31l.11,43.27,106.81-.11Zm-4,37.49-98.62.11-.11-47.16v-.84h0v-6.3h0V33.3l98.62-.11v.21h.21v6.3h-.11v2.1h-.11Z"/><polygon class="cls-2" points="32.77 93.69 32.67 93.69 32.67 50.42 32.77 93.69"/><polygon class="cls-2" points="135.59 39.6 135.49 39.6 135.49 41.81 135.38 41.81 135.38 40.55 36.87 40.65 36.77 40.65 36.77 39.81 36.77 39.81 36.66 33.41 36.77 33.41 36.77 33.2 135.38 33.09 135.38 33.3 135.59 33.3 135.59 39.6"/><polygon class="cls-2" points="135.38 40.55 36.87 40.65 36.77 40.65 36.77 39.81 36.77 33.41 36.77 33.2 135.38 33.09 135.38 33.3 135.38 40.55"/><polygon class="cls-2" points="135.59 39.6 135.49 39.6 135.49 41.81 135.38 41.81 135.38 40.55 36.87 40.65 36.87 39.81 36.77 39.81 36.66 33.41 36.77 33.41 135.38 33.3 135.59 33.3 135.59 39.6"/><path class="cls-4" d="M89.28,100.2v.32a3.07,3.07,0,0,1-5.46,1.68,5.86,5.86,0,0,1-.53-.84,3.78,3.78,0,0,1-.21-1.16,3.1,3.1,0,1,1,6.2,0Z"/><path class="cls-2" d="M108,122l-44.85.11a3,3,0,0,1,.95-2.21,2.86,2.86,0,0,1,2.21-.95h38.54A3,3,0,0,1,108,122Z"/><path class="cls-1" d="M40.86,35.61h0a1.44,1.44,0,0,0-1.58,1.26c0,.63.74,1.16,1.58,1.16h0c.84,0,1.58-.53,1.58-1.16s-.63-1.26-1.58-1.26Z"/><path class="cls-1" d="M47.79,35.61h0a1.44,1.44,0,0,0-1.58,1.26c0,.63.74,1.16,1.58,1.16h0c.84,0,1.58-.53,1.58-1.16a1.44,1.44,0,0,0-1.58-1.26Z"/><path class="cls-1" d="M54.72,35.61h0a1.44,1.44,0,0,0-1.58,1.26c0,.63.74,1.16,1.58,1.16h0a1.44,1.44,0,0,0,1.58-1.26c0-.63-.74-1.16-1.58-1.16Z"/></svg>