<?xml version="1.0" encoding="utf-8"?>
<!-- Generator: Adobe Illustrator 21.0.0, SVG Export Plug-In . SVG Version: 6.00 Build 0)  -->
<svg version="1.1" id="Layer_1" xmlns="http://www.w3.org/2000/svg" xmlns:xlink="http://www.w3.org/1999/xlink" x="0px" y="0px"
	 viewBox="0 0 131 120" style="enable-background:new 0 0 131 120;" xml:space="preserve">
<style type="text/css">
	.st0{fill:#4E85F2;}
	.st1{fill:none;stroke:#4E85F2;stroke-width:2;stroke-linejoin:round;stroke-miterlimit:10;}
	
		.st2{opacity:0.15;fill:none;stroke:#4E85F2;stroke-width:2;stroke-linejoin:round;stroke-miterlimit:10;enable-background:new    ;}
	
		.st3{opacity:0.67;fill:none;stroke:#4E85F2;stroke-width:2;stroke-linejoin:round;stroke-miterlimit:10;enable-background:new    ;}
</style>
<g id="SHOPPING_CART_2_">
	<path class="st0" d="M84.5,38.3H55.2l-1.3-3.7c-0.2-0.5-0.6-0.8-1.1-0.8H47c-0.7,0-1.2,0.5-1.2,1.2s0.5,1.2,1.2,1.2h5l8,22.9h-4.6
		c-1.7,0-3.1,1.4-3.1,3.1s1.4,3.1,3.1,3.1s3.1-1.4,3.1-3.1v-0.8h19.6v0.8c0,1.7,1.4,3.1,3.1,3.1c1.7,0,3.1-1.4,3.1-3.1
		s-1.4-3.1-3.1-3.1H62.4l-1.5-4.2l17.8-1.2c0.4,0,0.8-0.3,1-0.7l5.5-12.2l0.3-0.8c0.1-0.2,0.1-0.3,0.1-0.5
		C85.7,38.8,85.2,38.3,84.5,38.3z M77.9,51.3l-17.7,1.2l-4.1-11.8h26.6L77.9,51.3z"/>
</g>
<g>
	<path class="st1" d="M82.8,100.7c-0.5-0.9-0.8-1.9-0.8-3c0-2.2,0-4.6,0-7h0.2C82.1,95.8,82,98.8,82.8,100.7z"/>
	<path class="st1" d="M83.8,102.3h-2.2l0,0H52.8c0.7-0.8,0.4-1.6,0.8-4.1v-7.4h1.2l0,0H82c0,2.4,0,4.8,0,7c0,1,0.4,2.1,0.8,3
		C83,101.3,83.3,101.8,83.8,102.3L83.8,102.3z"/>
	<path class="st2" d="M83.8,102.3c-0.4-0.4-0.7-0.9-1-1.5C83.1,101.3,83.4,101.8,83.8,102.3z"/>
	<rect x="115.3" y="27.7" class="st1" width="0.1" height="1.2"/>
	<path class="st1" d="M119.2,36.9l0.1,41.2L17.6,78.2v8.5c0,2.3,1.8,4.1,4.1,4.1h31.9h1.2l0,0H82h0.2l33.1-0.1
		c2.3,0,4.1-1.8,4.1-4.1L119.2,36.9z M71.4,84.8c0,0.6-0.3,1.2-0.6,1.6c-0.5,0.7-1.4,1.1-2.3,1.1c-0.9,0-1.8-0.4-2.3-1.1
		c-0.2-0.2-0.3-0.5-0.5-0.8c-0.1-0.3-0.2-0.7-0.2-1.1c0-1.6,1.3-3,3-3c1.6,0,3,1.3,3,3C71.4,84.6,71.4,84.7,71.4,84.8z"/>
	<path class="st1" d="M119.2,36.9v-9.3v-8.5c0-2.3-1.8-4.1-4.1-4.1l-93.5,0.1c-2.3,0-4.1,1.8-4.1,4.1v8.5V37l0.1,41.2l101.7-0.1
		L119.2,36.9z M115.4,72.6l-93.9,0.1l-0.1-44.9V27l0,0v-6l0,0v-0.2l93.9-0.1v0.2h0.2v6h-0.1v2h-0.1L115.4,72.6z"/>
	<polygon class="st1" points="17.6,78.3 17.5,78.3 17.5,37.1 	"/>
	<polygon class="st1" points="115.5,26.8 115.4,26.8 115.4,28.9 115.3,28.9 115.3,27.7 21.5,27.8 21.4,27.8 21.4,27 21.4,27 
		21.3,20.9 21.4,20.9 21.4,20.7 115.3,20.6 115.3,20.8 115.5,20.8 	"/>
	<polygon class="st1" points="115.3,27.7 21.5,27.8 21.4,27.8 21.4,27 21.4,20.9 21.4,20.7 115.3,20.6 115.3,20.8 	"/>
	<polygon class="st1" points="115.5,26.8 115.4,26.8 115.4,28.9 115.3,28.9 115.3,27.7 21.5,27.8 21.5,27 21.4,27 21.3,20.9 
		21.4,20.9 115.3,20.8 115.5,20.8 	"/>
	<path class="st3" d="M71.4,84.5c0,0.1,0,0.2,0,0.3c0,0.6-0.3,1.2-0.6,1.6c-0.5,0.7-1.4,1.1-2.3,1.1c-0.9,0-1.8-0.4-2.3-1.1
		c-0.2-0.2-0.3-0.5-0.5-0.8c-0.1-0.3-0.2-0.7-0.2-1.1c0-1.6,1.3-3,3-3C70.1,81.5,71.4,82.9,71.4,84.5z"/>
	<path class="st1" d="M89.2,105.3l-42.7,0.1c0-0.8,0.3-1.5,0.9-2.1c0.5-0.6,1.3-0.9,2.1-0.9h3.2h28.8l0,0h2.2h2.5
		C87.9,102.3,89.2,103.6,89.2,105.3z"/>
	<g>
		<g>
			<path class="st0" d="M25.3,23L25.3,23c-0.8,0-1.5,0.5-1.5,1.2c0,0.6,0.7,1.1,1.5,1.1l0,0c0.8,0,1.5-0.5,1.5-1.1
				C26.8,23.5,26.2,23,25.3,23L25.3,23z"/>
		</g>
		<g>
			<path class="st0" d="M31.9,23L31.9,23c-0.8,0-1.5,0.5-1.5,1.2c0,0.6,0.7,1.1,1.5,1.1l0,0c0.8,0,1.5-0.5,1.5-1.1
				C33.4,23.5,32.7,23,31.9,23L31.9,23z"/>
		</g>
		<g>
			<path class="st0" d="M38.5,23L38.5,23c-0.8,0-1.5,0.5-1.5,1.2c0,0.6,0.7,1.1,1.5,1.1l0,0c0.8,0,1.5-0.5,1.5-1.2
				C40,23.5,39.3,23,38.5,23L38.5,23z"/>
		</g>
	</g>
</g>
</svg>
