<svg id="Layer_1" data-name="Layer 1" xmlns="http://www.w3.org/2000/svg" width="172.36" height="222.48" viewBox="0 0 172.36 222.48"><defs><style>.cls-1{fill:#4e85f2;}.cls-2,.cls-3,.cls-4{fill:none;stroke:#4e85f2;stroke-linejoin:round;stroke-width:2.1px;}.cls-3{opacity:0.15;}.cls-3,.cls-4{isolation:isolate;}.cls-4{opacity:0.67;}</style></defs><title>ecom</title><g id="SHOPPING_CART" data-name="SHOPPING CART"><path class="cls-1" d="M103,88.24H72.26L70.9,84.35a1.23,1.23,0,0,0-1.16-.84H63.65a1.26,1.26,0,1,0,0,2.52H68.9l8.4,24.05H72.47a3.26,3.26,0,1,0,3.26,3.26v-.84H96.32v.84a3.26,3.26,0,1,0,3.26-3.26H79.83l-1.58-4.41,18.69-1.26a1.26,1.26,0,0,0,1.05-.74l5.78-12.81.32-.84a1,1,0,0,0,.11-.53A1.08,1.08,0,0,0,103,88.24Zm-6.93,13.65-18.59,1.26L73.21,90.76h27.94Z"/></g><path class="cls-2" d="M101.25,153.78a6.42,6.42,0,0,1-.84-3.15v-7.35h.21C100.52,148.63,100.41,151.78,101.25,153.78Z"/><path class="cls-2" d="M102.3,155.46H69.74c.74-.84.42-1.68.84-4.31v-7.77h29.83v7.35a8.27,8.27,0,0,0,.84,3.15,4.59,4.59,0,0,0,1.05,1.58Z"/><path class="cls-3" d="M102.3,155.46a5.89,5.89,0,0,1-1.05-1.58A13.68,13.68,0,0,0,102.3,155.46Z"/><rect class="cls-2" x="135.38" y="77.11" width="0.11" height="1.26"/><path class="cls-2" d="M139.48,86.77l.11,43.27-106.81.11v8.93a4.26,4.26,0,0,0,4.31,4.31h63.54l34.76-.11a4.26,4.26,0,0,0,4.31-4.31Zm-50.2,50.31a3.07,3.07,0,0,1-5.46,1.68,5.86,5.86,0,0,1-.53-.84,3.78,3.78,0,0,1-.21-1.16,3.15,3.15,0,0,1,6.3,0A.39.39,0,0,0,89.28,137.08Z"/><path class="cls-2" d="M139.48,86.77V68.07a4.26,4.26,0,0,0-4.31-4.31L37,63.87a4.26,4.26,0,0,0-4.31,4.31V86.87l.11,43.27L139.59,130Zm-4,37.49-98.62.11-.11-47.16v-.84h0v-6.3h0v-.21l98.62-.11V70h.21v6.3h-.11v2.1h-.11Z"/><polygon class="cls-2" points="32.77 130.25 32.67 130.25 32.67 86.98 32.77 130.25"/><polygon class="cls-2" points="135.59 76.16 135.49 76.16 135.49 78.37 135.38 78.37 135.38 77.11 36.87 77.21 36.77 77.21 36.77 76.37 36.77 76.37 36.66 69.97 36.77 69.97 36.77 69.75 135.38 69.65 135.38 69.86 135.59 69.86 135.59 76.16"/><polygon class="cls-2" points="135.38 77.11 36.87 77.21 36.77 77.21 36.77 76.37 36.77 69.97 36.77 69.75 135.38 69.65 135.38 69.86 135.38 77.11"/><polygon class="cls-2" points="135.59 76.16 135.49 76.16 135.49 78.37 135.38 78.37 135.38 77.11 36.87 77.21 36.87 76.37 36.77 76.37 36.66 69.97 36.77 69.97 135.38 69.86 135.59 69.86 135.59 76.16"/><path class="cls-4" d="M89.28,136.76v.32a3.07,3.07,0,0,1-5.46,1.68,5.86,5.86,0,0,1-.53-.84,3.78,3.78,0,0,1-.21-1.16,3.1,3.1,0,1,1,6.2,0Z"/><path class="cls-2" d="M108,158.61l-44.85.11a3,3,0,0,1,.95-2.21,2.86,2.86,0,0,1,2.21-.95h38.54A3,3,0,0,1,108,158.61Z"/><path class="cls-1" d="M40.86,72.17h0a1.44,1.44,0,0,0-1.58,1.26c0,.63.74,1.16,1.58,1.16h0c.84,0,1.58-.53,1.58-1.16s-.63-1.26-1.58-1.26Z"/><path class="cls-1" d="M47.79,72.17h0a1.44,1.44,0,0,0-1.58,1.26c0,.63.74,1.16,1.58,1.16h0c.84,0,1.58-.53,1.58-1.16a1.44,1.44,0,0,0-1.58-1.26Z"/><path class="cls-1" d="M54.72,72.17h0a1.44,1.44,0,0,0-1.58,1.26c0,.63.74,1.16,1.58,1.16h0a1.44,1.44,0,0,0,1.58-1.26c0-.63-.74-1.16-1.58-1.16Z"/></svg>