<svg id="Layer_1" data-name="Layer 1" xmlns="http://www.w3.org/2000/svg" width="172.36" height="222.48" viewBox="0 0 172.36 222.48"><defs><style>.cls-1,.cls-3,.cls-4{fill:none;stroke:#4285f4;stroke-linecap:round;stroke-miterlimit:10;}.cls-1{stroke-width:2.7px;}.cls-2{fill:#4285f4;}.cls-3{stroke-width:2.96px;}.cls-4{stroke-width:2.51px;}</style></defs><title>interactive social</title><circle class="cls-1" cx="63.61" cy="104.29" r="11.02"/><path class="cls-1" d="M47.08,131.85a16.53,16.53,0,0,1,33.07,0"/><path class="cls-2" d="M139.59,84.56a7.79,7.79,0,0,0-7.78-7.77h0l-25.22,0h-2.86l-63.27.09a7.78,7.78,0,0,0-7.77,7.79v5.44h2.86V84.72a4.93,4.93,0,0,1,4.92-4.94l63.28-.08h2.86l25.21,0h0a4.92,4.92,0,0,1,4.92,4.92v5.59h2.86v-5.6Z"/><path class="cls-2" d="M139.62,89.11h-2.86v1.05l.07,47.6a4.92,4.92,0,0,1-4.92,4.94l-91.35.13a4.93,4.93,0,0,1-4.93-4.92l0-26.71v-2.86l0-19.23H32.7v1.05l0,18.18v2.85l0,26.72a7.79,7.79,0,0,0,7.78,7.77l91.36-.14a7.78,7.78,0,0,0,7.77-7.79Z"/><line class="cls-3" x1="90.73" y1="103.32" x2="128.63" y2="103.32"/><line class="cls-4" x1="90.73" y1="111.74" x2="118" y2="111.74"/><line class="cls-4" x1="90.73" y1="120.16" x2="118" y2="120.16"/></svg>