<?xml version="1.0" encoding="utf-8"?>
<!-- Generator: Adobe Illustrator 21.1.0, SVG Export Plug-In . SVG Version: 6.00 Build 0)  -->
<svg version="1.1" id="Layer_1" xmlns="http://www.w3.org/2000/svg" xmlns:xlink="http://www.w3.org/1999/xlink" x="0px" y="0px"
	 viewBox="0 0 131 120" style="enable-background:new 0 0 131 120;" xml:space="preserve">
<style type="text/css">
	.st0{fill:none;stroke:#4285F4;stroke-width:3;stroke-linecap:round;stroke-linejoin:round;stroke-miterlimit:10;}
	.st1{fill:#4285F4;}
</style>
<g>
	<polyline class="st0" points="50.6,24.5 29.7,24.5 29.7,106.9 101.3,106.9 101.3,24.5 80.1,24.5 	"/>
	<g>
		<g>
			<path class="st1" d="M65.5,13.1c3,0,5.4,2.4,5.4,5.4h8v10.7H52.1V18.5h8C60.1,15.5,62.5,13.1,65.5,13.1 M65.5,10.1
				c-3.6,0-6.6,2.2-7.8,5.4h-5.6c-1.7,0-3,1.3-3,3v10.7c0,1.7,1.3,3,3,3h26.8c1.7,0,3-1.3,3-3V18.5c0-1.7-1.3-3-3-3h-5.6
				C72.1,12.4,69.1,10.1,65.5,10.1L65.5,10.1z"/>
		</g>
	</g>
	<g>
		<g>
			<path class="st1" d="M55.3,45.7v8h-8v-8H55.3 M55.3,42.7h-8c-1.7,0-3,1.3-3,3v8c0,1.7,1.3,3,3,3h8c1.7,0,3-1.3,3-3v-8
				C58.3,44.1,57,42.7,55.3,42.7L55.3,42.7z"/>
		</g>
	</g>
	<g>
		<g>
			<path class="st1" d="M55.3,65.7v8h-8v-8H55.3 M55.3,62.7h-8c-1.7,0-3,1.3-3,3v8c0,1.7,1.3,3,3,3h8c1.7,0,3-1.3,3-3v-8
				C58.3,64,57,62.7,55.3,62.7L55.3,62.7z"/>
		</g>
	</g>
	<line class="st0" x1="67.3" y1="48.4" x2="85.9" y2="48.4"/>
	<line class="st0" x1="67.3" y1="69" x2="85.9" y2="69"/>
	<g>
		<g>
			<path class="st1" d="M55.3,85.6v8h-8v-8H55.3 M55.3,82.6h-8c-1.7,0-3,1.3-3,3v8c0,1.7,1.3,3,3,3h8c1.7,0,3-1.3,3-3v-8
				C58.3,84,57,82.6,55.3,82.6L55.3,82.6z"/>
		</g>
	</g>
	<line class="st0" x1="67.3" y1="89.6" x2="85.9" y2="89.6"/>
</g>
</svg>
