<svg id="Layer_1" data-name="Layer 1" xmlns="http://www.w3.org/2000/svg" width="164" height="150" viewBox="0 0 164 150"><defs><style>.cls-1{fill:none;stroke:#4285f4;stroke-linecap:round;stroke-linejoin:round;stroke-width:3px;}.cls-2{fill:#4285f4;}</style></defs><title>list</title><polyline class="cls-1" points="67.1 41 46.2 41 46.2 123.4 117.8 123.4 117.8 41 96.6 41"/><path class="cls-2" d="M82,29.6A5.38,5.38,0,0,1,87.4,35h8V45.7H68.6V35h8A5.38,5.38,0,0,1,82,29.6m0-3A8.25,8.25,0,0,0,74.2,32H68.6a3,3,0,0,0-3,3V45.7a3,3,0,0,0,3,3H95.4a3,3,0,0,0,3-3V35a3,3,0,0,0-3-3H89.8A8.4,8.4,0,0,0,82,26.6Z"/><path class="cls-2" d="M71.8,62.2v8h-8v-8h8m0-3h-8a3,3,0,0,0-3,3v8a3,3,0,0,0,3,3h8a3,3,0,0,0,3-3v-8a3,3,0,0,0-3-3Z"/><path class="cls-2" d="M71.8,82.2v8h-8v-8h8m0-3h-8a3,3,0,0,0-3,3v8a3,3,0,0,0,3,3h8a3,3,0,0,0,3-3v-8a3,3,0,0,0-3-3Z"/><line class="cls-1" x1="83.8" y1="64.9" x2="102.4" y2="64.9"/><line class="cls-1" x1="83.8" y1="85.5" x2="102.4" y2="85.5"/><path class="cls-2" d="M71.8,102.1v8h-8v-8h8m0-3h-8a3,3,0,0,0-3,3v8a3,3,0,0,0,3,3h8a3,3,0,0,0,3-3v-8a3,3,0,0,0-3-3Z"/><line class="cls-1" x1="83.8" y1="106.1" x2="102.4" y2="106.1"/></svg>