<?xml version="1.0" encoding="utf-8"?>
<!-- Generator: Adobe Illustrator 21.1.0, SVG Export Plug-In . SVG Version: 6.00 Build 0)  -->
<svg version="1.1" id="Layer_1" xmlns="http://www.w3.org/2000/svg" xmlns:xlink="http://www.w3.org/1999/xlink" x="0px" y="0px"
	 viewBox="0 0 131 120" style="enable-background:new 0 0 131 120;" xml:space="preserve">
<style type="text/css">
	.st0{fill:none;stroke:#4E85F2;stroke-width:2.052;stroke-linecap:round;stroke-linejoin:round;stroke-miterlimit:10;}
</style>
<g>
	<path class="st0" d="M12.6,40.4c0,0-0.1-0.1-0.1-0.1c0-0.2,0.3-0.4,0.5-0.2C12.9,40.3,12.8,40.3,12.6,40.4z"/>
	<path class="st0" d="M34.7,36.3c0,0.1-0.5,0.4-0.5,0.1c0,0,0-0.1,0.1-0.2C34.4,36.2,34.7,36.2,34.7,36.3z"/>
	<path class="st0" d="M38.2,34.4c-0.1-0.2,0.5-0.5,0.7-0.2C38.9,34.4,38.2,34.7,38.2,34.4z"/>
	<path class="st0" d="M47.1,68.3c-0.1-1.8-3.3-2.4-4.6-2.7c-0.7-0.1-1.4-0.2-1.9-0.7c-0.6-0.5-0.7-1.4-1.2-2c-0.5-0.6-1.4-0.8-2.2-1
		c-0.9-0.3-1.9-0.8-1.9-1.8c-0.9,0-2,0.1-2.9-0.2c-0.6-0.2-1.3-0.5-1.7-0.1c-0.1-0.2-0.2-0.4-0.3-0.6c-0.7,0.5-1.4,1-2.1,1.5
		c-0.1,0.1-0.3,0.2-0.4,0.2c-0.2,0-0.3-0.1-0.5-0.2c-0.4-0.1-0.9,0.2-1.3,0.1c-0.6,0-1-0.6-1-1.2c0-0.5,0.5-1.4,0.2-1.8
		c-0.4-0.5-1.8,0.2-2.1-0.2c-0.1-0.2,0.1-0.3,0.2-0.4c0-0.1,0-0.2,0.1-0.3c0.1-0.2,0.2-0.3,0.3-0.4c0.1-0.1,0.1-0.3,0.1-0.5
		c0.1-0.2,0.2-0.3,0.2-0.4c0-0.2,0-0.4-0.2-0.5c-0.4,0-0.7,0-0.9,0.2c-0.5,0.2-0.4,1-1,1.1c-0.2,0.1-0.4,0.1-0.6,0.1
		c-0.2,0-0.4,0.1-0.6,0.1c-0.2,0-0.6-0.2-0.7-0.3c-0.1-0.1-0.4-0.7-0.4-0.8c-0.5-1.7,1.1-4.3,3-4c0.3,0,0.6,0.1,1,0.1
		c0.3-0.1,0.5-0.2,0.8-0.3c1.3-0.5,2.5,0.7,3.3,1.7c-0.1-0.9-0.2-1.9,0.4-2.5c0.4-0.5,1.2-0.8,1.8-1.1c0.6-0.3,1.2-0.9,1.1-1.6
		c0.8-0.8,1.9-1.5,3-1.9c0.5-0.9,1.4-1.4,2.4-1.4c0,0.2-0.1,0.4-0.1,0.5c1-0.2,2-0.6,2.8-1.2c-0.5,0.2-1,0.3-1.4,0.1
		c-0.4-0.3-0.3-1.1,0.2-1.1c-0.3-0.2-0.6-0.2-0.6-0.6c0.2-0.2,0.7-0.3,1,0c0.1,0.1,0,0.2,0.1,0.3c0.1,0.1,0.3,0.1,0.4,0.1
		c0.1-0.3-0.4-0.2-0.3-0.4c0.3-0.2,0.9,0,1.3-0.1c0.2,0,0.5-0.2,0.7-0.3c0.2-0.1,0.5-0.3,0.7-0.1c0.1,0.2-0.2,0.3-0.3,0.4
		c-0.4,0.3-0.8,0.7-1.1,1.1c0.2,0.2,0.5,0.1,0.8,0.1c0.1,0,0.3,0.1,0.4,0.1c0.1,0,0.3,0,0.4,0.1c0.2,0.1,0.3,0.3,0.5,0.3
		c0.1,0-0.1-2.3-0.1-2.7c0.1-0.8-1-1.2-1.1-1.9c0-0.3,0.1-0.7-0.2-0.9c-0.4-0.3-0.9,0.4-1.4,0.3c-0.4,0-0.6-0.6-0.9-0.9
		c-0.6-0.9-2.1-0.9-2.6,0c-0.5,0.8-0.3,2-1.1,2.4c-0.5,0.3-1.2,0.2-1.5,0.7C33,40.4,33,40.8,32.8,41c-0.3,0.3-0.8-0.1-0.8-0.5
		c0-0.2,0.2-0.5,0-0.7c-0.1-0.1-0.2-0.2-0.4-0.3c-0.6-0.2-1.1-0.5-1.7-0.7c-0.3-0.1-0.6-0.3-0.7-0.6c-0.1-0.5,0.3-0.9,0.8-1.1
		c1.2-0.7,2.5-1.5,3.9-1.2c0.5,0.1,1.2,0.3,1.6-0.1c-0.2-0.2-0.3-0.5-0.5-0.7c0.6-0.1,1.1-0.5,1.6-0.8c0.5-0.4,1-0.7,1.6-0.8
		c0.6,0,1.3,0.4,1.3,1c-0.7,0.5-1.6,0.9-2.5,1.1c0.6,0,1.2,0.2,1.7,0.5c0.3,0.2,0.5,0.5,0.9,0.5c0.2,0,0.4,0,0.6-0.1
		c0.3-0.1,0.6-0.3,0.8-0.5c0.2-0.3,0.3-0.7,0-0.9c0.2,0.8,2.3-0.8-0.1-2.2c-0.7-0.4-1.5-0.6-2.4-0.8c-0.6-0.1-1.2-0.2-1.7-0.1
		c-0.6,0.1-1.1,0.5-1.2,1.1c-0.1,0.3,0,0.7-0.3,1c-0.4,0.4-1.1-0.2-1.1-0.8s0.6-0.9,1.1-1.3c-1,0.6-2.4-0.3-3.3,0.5
		c0.5,0.4,0.7,1.2,0.3,1.8c-0.1-0.6-1-0.5-1.5-0.2c-0.5,0.3-1.3,0.5-1.6,0c0.9-0.1,1.7-0.8,1.7-1.7c-1.3-0.2-2.5-0.3-3.8-0.5
		c-1-0.1-2.4-0.1-2.8,0.9c0.4,0,0.7,0,1.1,0c0.1,0,0.3,0,0.3,0.1c0.3,0.2-0.1,0.7-0.5,0.7c-1.4,0.3-3.1-0.3-4.5-0.3
		c-2,0-3.9,0.1-5.8-0.1c-0.1,0-0.2-0.1-0.3-0.1c-0.2,0-0.3,0-0.5,0c-0.2,0-0.3-0.1-0.4-0.2c-0.2,0-0.5,0.1-0.7,0.2
		c-0.2,0-0.5,0-0.7,0c-0.3,0-0.6,0.2-1,0.2c-0.3,0-0.7,0.1-0.9,0.3c-0.3,0.1-0.6,0.2-0.9,0.3c-0.3,0-0.7,0-0.9,0.3
		c0.1,0.2,0.2,0.4,0.2,0.7c-0.2,0.4-0.5,0-0.8,0c-0.3,0-0.7,0.1-1,0.2c-0.3,0.1-0.7,0.2-0.7,0.4c0,0.5,1.1,0.1,1.4,0.3
		c0,0.3-0.4,0.3-0.8,0.3c-0.2,0-0.3,0.1-0.4,0.2c-0.1,0-0.3-0.1-0.3-0.1c-0.2,0-0.4,0.2-0.8,0.3c-0.2,0.1-0.7,0.2-0.7,0.3
		c0,0.2,0.5,0.4,0.8,0.5c0.4,0.2,0.6,0.3,1,0.4c0.9,0.2,8.4-1.3,6.7,1.9c0.4-0.1,0.7,0.4,0.6,0.8c-0.2,1.4-0.2,2.9-1.1,4
		c-0.6,0.8-1.4,1.6-1.5,2.6c-0.1,1.2,0.9,2.1,1.3,3.2c0.5,1.4,0.5,3.2,1.8,3.8c-0.6-1.1-0.9-2.4-0.8-3.7c0.9,1.7,1.8,3.3,2.7,5
		c1.1,2,2.5,1.8,4.5,2.5c2.1,0.8,4,2.1,5.5,3.8c0.4-0.2,0.8-0.4,1.2-0.7c0.7,0.6,0.6,1.8,0.2,2.6c-0.4,0.8-1.1,1.6-1.2,2.5
		c-0.1,0.7,0.1,1.3,0.4,1.9c0.8,1.8,2.1,3.5,3.7,4.7c0.4,0.3,0.8,0.6,1.1,1c0.9,1.3,0.4,3.8,0.5,5.3c0.2,2.3,0.6,4.6,1.2,6.8
		c0.3,1.1,0.7,2.2,1.4,3.1c0.4,0.5,3.9,2.7,4.2,1.3c-0.2-0.3-0.7-0.3-1-0.5c-1.6-0.9-0.1-2.6-1-3.1c-0.1-0.1-0.3-0.1-0.4-0.2
		c-0.1-0.2,0-0.3,0.1-0.5c0.4-0.6,0.4-1.3,0-1.9c0.2,0.2,0.6,0,0.7-0.2c0.1-0.2,0.2-0.5,0.5-0.7c0.2-0.1,0.5-0.1,0.7-0.2
		c0.8-0.2,1-1.5,0.2-1.9c0.5,0.2,1.1,0.1,1.5-0.3c0.4-0.3,0.7-0.8,1-1.3c0.3-0.5,0.6-1.1,0.7-1.7c0.1-0.4,0-0.8,0.2-1.1
		c0.4-0.8,1.6-0.7,2.4-1.2c1.2-0.7,0.9-2.2,1.2-3.3C45.6,70.9,47.1,69.4,47.1,68.3z M28.3,44.1c-0.4,0.2-0.6,0.5-0.7,1
		c0,0.1-0.4,0.5-0.5,0.4c-0.4-0.1,0.1-0.8,0.2-0.9c0.1-0.1,0.2-0.2,0.3-0.4c0.1-0.1,0.2-0.3,0.3-0.4c0.2-0.1,0.7-0.2,0.8-0.1
		C28.7,44,28.5,44,28.3,44.1z M29.7,43.6c0.1,0,0.3,0.1,0.4,0.2c0.1,0,0.2-0.1,0.3-0.1c0.2,0.1,0.3,0.4,0.1,0.5
		c-0.2,0-0.2-0.1-0.3-0.1c-0.3,0.1-0.5,0.7-0.7,0.7c-0.2,0-0.4-0.6-0.1-0.8c0-0.2-0.1-0.2-0.1-0.3C29.3,43.7,29.5,43.6,29.7,43.6z
		 M28.8,42.4c0.2,0.1,0.8,0.7,0.3,0.9c0,0-0.7,0.1-0.9,0.1c-0.2,0-0.3-0.3-0.4-0.3c-0.3-0.1-0.8,0.4-1,0c0.1-0.2,0.3-0.2,0.6-0.3
		C27.8,42.7,28.4,42.3,28.8,42.4z"/>
	<path class="st0" d="M55,40.9c0-0.2,0.3-0.3,0.3-0.4c0-0.1-0.1-0.2-0.1-0.4c0-0.2,0.2-0.1,0.4-0.2c0.1-0.1,0.2-0.2,0.4-0.3
		c0.3-0.2,0.9,0,0.9,0.2c0,0.2-0.2,0.2-0.2,0.4c-0.1,0.2,0,0.4-0.1,0.5c-0.1,0.1-0.3,0.1-0.4,0.1C55.8,41,55.2,41.3,55,40.9z"/>
	<path class="st0" d="M56.8,38.6c0-0.1,0.4-0.4,0.5-0.5c0.2-0.1,0.4,0,0.6-0.2c0.1,0,0.1,0,0.1,0c0,0.2-0.1,0.2-0.1,0.3
		c0,0.2,0.4,0.1,0.5,0.3c0,0.2-0.2,0.3-0.3,0.4c0,0.1,0.3,0.4,0.4,0.6c0.1,0.1,0.3,0.3,0.4,0.4c0.1,0.1,0.1,0.3,0.2,0.3
		c0.1,0.1,0.4,0.1,0.4,0.3c0,0.2-0.3,0.3-0.3,0.6c-0.3,0.3-0.9,0.1-1.5,0.2c-0.3,0-0.5,0.3-0.8,0.1c-0.1-0.2,0.2-0.2,0.2-0.3
		c0-0.1-0.2-0.1-0.2-0.3c0.1-0.2,0.3-0.2,0.3-0.5c0.1-0.2,0.4-0.1,0.4-0.3c0-0.1-0.1-0.3-0.2-0.4c-0.1,0-0.2,0-0.3-0.1
		c-0.2-0.1-0.3-0.4-0.5-0.5C56.8,38.9,56.7,38.7,56.8,38.6z"/>
	<path class="st0" d="M75.6,33.8c-0.1-0.3,0.4-0.2,0.3,0C75.9,33.9,75.6,33.9,75.6,33.8z"/>
	<path class="st0" d="M81,71.6c0,0.1,0.1,0.3,0.1,0.3c0,0.2-0.3,0.2-0.3,0.4c0,0.5-0.2,1-0.4,1.5c-0.2,0.4-0.3,0.8-0.4,1.1
		c0,0.1-0.2,0.2-0.2,0.3c-0.2,0.4-0.2,1.1-0.6,1.3c-0.1,0.1-0.6,0.2-0.7,0.2c-0.3,0-0.6-0.2-0.6-0.5c0-0.1,0-0.3,0-0.4
		c0-0.2-0.1-0.4-0.1-0.6c0.1-0.5,0.5-0.8,0.6-1.2c0-0.3-0.2-0.6-0.1-0.9c0-0.2,0.2-0.5,0.3-0.7c0.2-0.2,0.5-0.2,0.8-0.3
		c0.2-0.1,0.5-0.3,0.6-0.4c0.1-0.2,0.1-0.3,0.2-0.4c0.1-0.1,0.2-0.1,0.3-0.2c0.1-0.1,0.1-0.3,0.2-0.3C80.9,70.5,81,71.1,81,71.6z"/>
	<path class="st0" d="M95.4,61.8c-0.1,0.1-0.3,0.3-0.5,0.3c-0.5-0.1-0.4-1.2-0.2-1.6c0,0,0-0.1,0.1-0.1
		C94.9,60.5,95.6,61.3,95.4,61.8z"/>
	<path class="st0" d="M106.3,67.5c-0.1,0.1-0.3,0-0.5,0c-0.5-0.3-0.8-0.7-1.2-1.1c-0.1-0.2-0.3-0.3-0.4-0.4
		c-0.1-0.2-0.2-0.5-0.3-0.7c-0.1-0.2-0.4-0.3-0.5-0.5c-0.1-0.2-0.1-0.4-0.2-0.6c-0.1-0.2-0.3-0.2-0.4-0.3c-0.1-0.1-0.1-0.2-0.2-0.3
		c-0.3-0.4-0.9-0.6-0.9-1.1c0.1-0.1,0.3,0.1,0.5,0.1c0.2,0,0.3,0,0.4,0c0.2,0.1,0.4,0.4,0.6,0.6c0.1,0.1,0.3,0.2,0.4,0.3
		c0.1,0.1,0.3,0.3,0.4,0.4c0.2,0.1,0.4,0.2,0.6,0.3c0.3,0.2,0.8,0.4,0.9,0.8c0,0.1,0,0.3,0,0.3c0,0.1,0.2,0.2,0.3,0.3
		c0.1,0.1,0.1,0.3,0.3,0.4c0.2,0,0.2-0.2,0.4-0.2c0.1,0,0.4,0.4,0.3,0.5c0,0.2-0.3,0.2-0.3,0.4C106.4,66.9,106.5,67.3,106.3,67.5z"
		/>
	<path class="st0" d="M107.4,66.7c-0.6,0-0.6-1,0-1C108.1,65.8,108.1,66.7,107.4,66.7z"/>
	<path class="st0" d="M109,68.8c-0.3,0-0.7-0.2-1-0.3c-0.2,0-0.4,0-0.6,0c-0.2,0-1.1-0.4-1.1-0.6c0-0.2,0.4-0.3,0.7-0.3
		c0.4,0.1,0.7,0.5,1.3,0.4c0.1,0,0.2-0.1,0.4-0.1c0.3,0,0.6,0.2,0.9,0.2c0.1,0.1,0,0.1,0,0.3c0.3,0.2,0.8,0.1,0.9,0.4
		c-0.2,0.2-0.5,0.1-0.8,0C109.5,68.8,109.3,68.8,109,68.8z"/>
	<path class="st0" d="M112.3,68.9c-0.1,0.2-0.6,0-0.7,0.2c-0.3,0-0.5,0-0.6-0.2c0.1-0.2,0.3-0.1,0.5-0.1
		C111.8,68.7,112.2,68.5,112.3,68.9z"/>
	<path class="st0" d="M112.4,62.4c-0.1,0.4-0.6,0.5-0.5,1.1c0,0.1,0.1,0.3,0.2,0.4c0.1,0.1,0.3,0.3,0.3,0.4c0,0.2-0.4,0.2-0.5,0.4
		c-0.1,0.2,0,0.2,0,0.5c-0.1,0.2-0.4,0.3-0.5,0.5c-0.1,0.3,0,0.7-0.2,0.9c-0.2,0-0.3,0.1-0.5,0.1c-0.2,0-0.4-0.3-0.8-0.3
		c-0.1,0-0.3,0.1-0.4,0.1c-0.1,0-0.2-0.1-0.3-0.2c-0.2-0.1-0.4,0-0.4-0.1c-0.2-0.1-0.1-0.4-0.2-0.6c-0.3-0.8-1.1-1.3,0.2-1.8
		c0.9-0.3,1.7-1,2.3-1.8c0.2-0.3,0.4-0.4,0.7-0.5C111.6,61.7,112.4,62.4,112.4,62.4z"/>
	<path class="st0" d="M113,69.5c0,0-0.1,0.1-0.1,0.1c-0.2-0.1-0.4-0.1-0.4-0.3C112.6,69.1,113,69.3,113,69.5z"/>
	<path class="st0" d="M112.8,68.8c0.1-0.2,0.6-0.1,0.6,0.1C113.4,69.1,112.8,69,112.8,68.8z"/>
	<path class="st0" d="M113.3,66.3c-0.4,0.1,0,1.3-0.5,1.1c-0.3-0.1,0-0.4,0-0.7c0-0.2-0.3-0.3-0.3-0.5c0-0.2,0.2-0.3,0.2-0.5
		c0.1-0.2,0-0.7,0.3-0.7c0.1,0,0.3,0.3,0.4,0.3c0.3,0.1,0.7-0.3,1.1-0.2c0,0.3-0.4,0.4-0.6,0.6c0.2,0.3,0.3,0.8,0.5,1
		c0,0.2,0,0.4-0.1,0.5C113.7,67.5,113.5,66.6,113.3,66.3z"/>
	<path class="st0" d="M113.2,64.7c-0.1,0-0.2,0.1-0.3,0.1c0-0.2,0.2-0.4,0.5-0.4c0.2,0,0.5,0.1,0.7,0.1c0.3,0,0.6-0.1,0.8,0
		C114.9,65.1,113.9,64.6,113.2,64.7z"/>
	<path class="st0" d="M114.3,69.6c0-0.3,0.3-0.3,0.5-0.4c0.3-0.2,0.6-0.5,1.1-0.3c-0.1,0.3-0.5,0.3-0.7,0.4
		c-0.2,0.1-0.4,0.4-0.7,0.4C114.4,69.6,114.4,69.6,114.3,69.6z"/>
	<path class="st0" d="M115.9,42.8c0.2,0.1,0.8,0.4,0.4,0.7C116.1,43.4,115.8,43.1,115.9,42.8z"/>
	<path class="st0" d="M117.7,70.2c0,0.2-0.3,0.2-0.4,0C117.3,70.1,117.6,70,117.7,70.2z"/>
	<path class="st0" d="M116.9,44.8c0.1-0.3-0.1-0.4-0.2-0.7c0,0,0,0,0-0.1c0.2-0.1,0.7,0.4,1.3,0.5c0.4,0.1,0.7,0,0.7,0.4
		c-0.1,0.1-0.2,0.1-0.3,0.2c-0.1,0.1-0.2,0.3-0.3,0.3c-0.2,0-0.4-0.2-0.6-0.1c-0.2,0.1-0.1,0.2-0.2,0.4c-0.2,0-0.5-0.3-0.5-0.5
		C116.6,45,116.8,44.9,116.9,44.8z"/>
	<path class="st0" d="M117.5,48.9c-0.2,0.1-0.2,0.4-0.4,0.4c-0.1,0-0.3-0.1-0.4-0.1c-0.4,0-0.5,0.6-1,0.4c-0.3,0.2,0,0.7-0.3,0.8
		c-0.2,0-0.3-0.2-0.5-0.4c-0.2-0.2-0.4-0.3-0.4-0.5c0-0.2,0.4-0.5,0.5-0.6c0.1-0.2,0.4-0.4,0.6-0.5c0.3-0.1,0.7,0,0.9-0.1
		c0.2-0.1,0.2-0.4,0.3-0.5c0.1-0.1,0.2-0.1,0.3-0.1c0.2-0.1,0.5-0.6,0.3-1c-0.1-0.3-0.5-0.6-0.2-0.9c0.4,0,1,0.5,1.1,0.9
		c0,0.2-0.1,0.3,0,0.5c0,0.1,0.1,0.2,0.1,0.3c0.1,0.3,0.2,0.6,0.3,0.9C118.5,48.8,117.9,48.7,117.5,48.9z"/>
	<path class="st0" d="M120.5,83.9c-0.1,0.3-0.3,0.7-0.6,0.9c-0.2,0.2-0.9,0.5-1,0c0-0.1,0.1-0.7,0.2-0.8c0.2-0.3,0.4-0.1,0.7-0.1
		C120,83.9,120.2,83.7,120.5,83.9z"/>
	<path class="st0" d="M62.6,45.2c0,0.2-0.1,0.3-0.2,0.4C62.1,45.5,62.4,45,62.6,45.2z"/>
	<path class="st0" d="M62.7,46.6c-0.1,0.2-0.4,0.5-0.6,0.2c0.1-0.2,0-0.4,0-0.7C62.5,45.7,62.8,45.9,62.7,46.6z"/>
	<path class="st0" d="M65.2,47.3c-0.1,0.2-0.1,0.4-0.2,0.5c-0.4-0.1-0.8-0.2-1-0.5C64.2,47.1,64.8,47.3,65.2,47.3z"/>
	<path class="st0" d="M73.1,48.6c0,0.2-0.5,0.3-0.6,0.1C72.5,48.5,73,48.4,73.1,48.6z"/>
	<path class="st0" d="M122.8,34.4c-0.2,0-0.4-0.1-0.6-0.1c-4.2-0.5-8.4-0.9-12.6-1.4c-1.9-0.2-3.9-0.4-5.9-0.2
		c-0.8,0.1-1.6,0.2-2.4,0c-0.4-0.1-0.7-0.3-1.1-0.4c-0.6-0.2-1.2-0.1-1.8-0.2c-2.4-0.1-4.6-0.9-7-1.2c-2.9-0.4-5.8,1.1-8.5,2
		c0-0.5-0.7-0.9-1.2-0.6c-0.4,0.3-0.3,1.1,0.2,1.3c-2.5,0.2-5,0.4-7.6,0.6c-1.1,0.1-1.5,1.7-2.7,1c0.4-0.3,0.9-0.5,1.4-0.7
		c-1.8-1.2-4.2-1.7-6.3-1.2c-2.2,0.4-4.1,1.7-5.4,3.6c-0.2,0.3-0.4,0.6-0.2,0.9c0.2,0.4,0.7,0.4,1,0.4c0.4-0.1,0.8-0.2,1.2,0.1
		s0.3,0.9-0.1,0.9c-0.3,0-0.5-0.5-0.8-0.5c-0.4,0.1-0.2,0.7-0.3,1.1c-0.1,0.1-0.2,0.2-0.3,0.3c-1.4,1-2.9,1.8-4.5,2.6
		c0.3,0.2,0.8,0.7,0.9,1.1c0,0.1,0,0.7-0.1,0.8c-0.2,0.4-0.5,0.3-1,0.3c-0.1,0-0.3,0-0.4,0c-0.8-0.1-1.5-0.3-1.9,0.2
		c0.1,0.8-0.4,1.9,0,2.7c0.2-0.3,0.8,0,0.9,0.4c0.3,2.2-3.4,4.4-4.4,6.2c-0.8,1.6-0.9,3.5-0.2,5.1c0.8,1.9,2.7,3.3,4.7,3.2
		c1.6-0.1,3.3-1,4.7-0.3c0.4,0.2,0.7,0.4,1.1,0.5c0.3,0.1,0.7,0,1,0.3c0.4,0.4,0.1,1,0,1.5c-0.2,1.4,1.3,2.5,1.6,3.9
		c0.2,1-0.1,2-0.3,3c-0.3,2.4,0.7,4.8,1.7,7c0.5,1.1,1.2,2.4,2.5,2.6c1.2,0.2,2.2-0.8,3.1-1.8c1.1-1.3,2.3-2.6,2.8-4.3
		c0.1-0.4,0.2-0.9,0.5-1.3c0.5-0.8,1.6-1.1,2-1.9c0.6-1.1-0.3-2.5-0.4-3.8c-0.2-3.5,5.7-5.3,5.2-8.8c-0.8,0.7-2.2,0.6-3.1,0.1
		c-1-0.6-1.6-1.5-2.3-2.4c-1.1-1.6-2.2-3.3-2.3-5.2c1.9,2.1,3.4,4.5,4.4,7.1c2.8-0.4,5.4-2,7.1-4.3c-0.7-0.5-1.3-1.1-2-1.6
		c-0.5,0.7-1.6,0.7-2.2,0.2c-0.7-0.5-1-1.3-1.2-2.1c0.1,0.3,2.7,1.6,3.2,1.5c0.2-0.1,0.3-0.2,0.6-0.2c0.2,0,0.2,0.4,0.3,0.5
		c0.2,0.2,0.6,0.2,0.9,0.3c0.3,0,0.6,0.1,0.8,0.1c0.4,0,0.7,0,1-0.1c0.2,0,0.6,0,0.8,0c0.1,0,0.2-0.1,0.3,0c0.3,0,0.5,0.4,0.7,0.6
		c0.3,0.3,0.8,0.4,0.9,0.7c-0.2,0.4,0.5,0.9,0.8,0.9c0.3,0,0.4-0.2,0.6-0.3c0.3,0.1,0.2,0.3,0.2,0.7c0,0.2,0.1,0.6,0.2,0.8
		c0.1,0.3,0.2,0.6,0.3,0.8c0.1,0.3,0.3,0.6,0.5,0.8c0.2,0.3,0.2,0.7,0.3,0.9c0.1,0.2,0.3,0.4,0.4,0.6c0.2,0.4,0.4,1.5,0.9,1.4
		c0.1,0,0.1-0.1,0.3-0.3c0.1-0.1,0.2-0.2,0.3-0.3c0.1-0.1,0.1-0.2,0.1-0.3c0.1-0.1,0.2-0.2,0.2-0.3c0-0.2,0-0.3,0-0.5
		c0-0.2,0.2-0.3,0.2-0.5c0-0.4-0.2-0.7-0.2-1.1c0.2-0.3,0.6-0.4,0.8-0.6c0.1-0.1,0.1-0.3,0.2-0.3c0.1-0.1,0.3-0.2,0.4-0.3
		c1-0.9,1.6-1.9,3.1-1.9c1,0,1.1,1.9,2,2.3c0.4,0.2,0.8,0.3,1.1,0.6c0.7,0.6,0.6,1.5,0.8,2.4c0.2,1.4,0.9,3.5,2.4,3.9
		c0.6-1.6-2.6-2.9-2-4.5c0.1-0.2,0.2-0.4,0.4-0.4c0.1,0,0.3,0.1,0.4,0.1c0.7,0.4,1.3,0.9,1.7,1.5c1.2-0.1,2-1.7,1.4-2.7
		c-0.2-0.4-0.6-0.7-0.9-1.1c-0.3-0.4-0.6-0.8-0.5-1.3c0.1-0.5,0.7-0.8,1.1-0.5c0.3,0.3,0.2,0.8,0.1,1.2c0.2,0.2,0.7,0.1,0.8-0.2
		s0-0.6-0.1-0.9c1.2-0.2,2.4-0.7,3.2-1.5c0.8-0.9,1.1-2.3,0.4-3.3c-0.3-0.4-0.8-0.7-1.1-1.2c-0.3-0.5,0-1-0.3-1.4
		c-0.3-0.4-1.1-0.6-1.5-0.8c1-0.7,2.5-0.4,3.4,0.4c0.3,0.3,0.9,1.4,1.3,1.3c0.8,0,0.6-0.8,0.1-1.2c-0.4-0.3-0.8-0.6-0.9-1
		c-0.1-0.4,0.3-0.8,0.6-1.1c0.4-0.2,0.8-0.4,1.1-0.7c0.4-0.4,0.6-1.1,0.5-1.7c-0.1-0.6-0.3-1.2-0.6-1.7c0.3-0.2,0.6,0.1,0.7,0.3
		s0.2,0.6,0.4,0.8c0.2,0.2,0.7,0,0.6-0.2c0-0.1-0.1-0.2-0.1-0.2c-0.7-0.7-1.4-1.5-2.4-1.7c-0.6-0.2-1.3-0.1-1.9-0.3
		c-0.2-0.1-0.4-0.1-0.6-0.3c-0.1-0.1-0.1-0.3-0.1-0.5c0-0.5,0.5-1,1-1.2c0.5-0.2,1.1-0.2,1.6-0.2c0.2,0,2.3,0.5,2.3,0.1
		c0-0.1-0.3-0.3-0.3-0.4c-0.1-0.4,0.2-0.7,0.4-0.7c0.7-0.2,0.8,0.5,1.3,0.4c0.2,0,0.3-0.2,0.4-0.3c0-0.1-0.1-0.3,0-0.3
		c0.2,0.1,0.5,0.4,0.5,0.6c0,0.2-0.2,0.5-0.3,0.7c0,0.1,0,0.2,0,0.3c0,0.2-0.3,0.3-0.3,0.4c0.1,0.8,0.9,1.3,1.4,1.7
		c0.5,0.4,0.9,0.8,1.4,1.1c0.1-0.1,0.2-0.1,0.2-0.3c0-0.1-0.1-0.3-0.1-0.4c0-0.1,0.1-0.2,0.1-0.3c0-0.2-0.2-0.2-0.1-0.3
		c0-0.2,0.3-0.1,0.2-0.3c0-0.1-0.3-0.2-0.4-0.4c0-0.1,0.1-0.1,0.1-0.3c-0.1-0.1-0.2-0.1-0.3-0.2c-0.2-0.1-0.2-0.3-0.4-0.4
		c-0.2-0.1-0.3,0-0.4-0.1c-0.2-0.1-0.1-0.4-0.2-0.7c0.2-0.3,0.5-0.1,0.8-0.2c0.1,0,0.2-0.2,0.3-0.2c0.3-0.1,0.7,0.2,0.9,0.1
		c0.2,0,0.3-0.4,0.5-0.6c0.1-0.1,0.5-0.4,0.7-0.4c0.1,0,0.3,0.1,0.5,0c-0.1-0.4-1.2-0.4-1.2-0.8c-0.1-0.7,2.5,0,2.8-0.1
		C124.2,34.8,123.5,34.5,122.8,34.4z M63.6,39.6c0.2,0,0.2-0.2,0.3-0.3c0.1,0,0.2,0.1,0.4,0.1c0.2,0,0.3-0.3,0.5-0.3
		c0.3-0.1,0.6-0.1,0.6-0.3c0-0.1-0.1-0.4,0-0.5c0.1-0.4,0.8-0.3,0.7-0.7c0-0.2-0.5-0.3-0.6-0.5c0-0.2,0-0.4,0.1-0.5
		c0.2-0.4,0.9-0.5,1.2-0.8c0.1-0.2,0.1-0.3,0.2-0.4c0.2-0.2,0.8-0.3,1-0.1c0,0.6-1.1,0.6-1.1,1.1c0,0.1,0.1,0.3,0.1,0.4
		c0,0.1,0,0.2,0,0.3c0.1,0.2,0.4,0.4,0.7,0.4c0.6,0,1.5-0.6,2-0.1c-0.2,0.5-1.1,0.1-1.6,0.3c-0.1,0-0.2,0.2-0.3,0.2
		c-0.1,0.1-0.4,0-0.4,0.2c0.1,0.2,0.3,0,0.4-0.1c0.2,0,0.4,0.2,0.4,0.4c0,0.5-0.5,0-0.7,0c-0.4,0-0.5,0.6-0.4,1
		c-0.2,0.1-0.4,0.4-0.6,0.4c-0.2,0-0.3-0.1-0.5-0.2c-0.4,0-0.9,0.4-1.3,0.3c-0.2,0-0.4-0.2-0.7-0.2c-0.2,0-0.3,0.1-0.4,0.1
		c-0.2,0-0.5-0.1-0.5-0.2C63,39.5,63.4,39.7,63.6,39.6z M73.7,49.5c-0.1,0.4,0,0.8-0.4,0.9c-0.5,0.2-0.8-0.2-1.3-0.2
		c-0.3,0-0.4,0.3-0.7,0.3c-0.4,0.1-0.8-0.3-1.3-0.3c-0.1,0-0.2,0-0.3,0c-0.1,0-0.2-0.2-0.3-0.2c-0.2-0.1-0.4,0-0.5-0.1
		c-0.2-0.4-1.5-0.5-1.6,0.2c0,0.3,0.1,0.7-0.3,0.7c-0.3,0-0.5-0.3-0.9-0.3c-0.1,0-0.4,0-0.5-0.1c-0.3-0.1-0.2-0.4-0.5-0.5
		c-0.1-0.1-0.5-0.2-0.7-0.3c-0.1,0-0.3,0-0.4,0c-0.2,0-0.4-0.1-0.5-0.2c-0.1-0.1-0.4-0.2-0.4-0.3c-0.1-0.2,0.3-0.4,0.3-0.5
		c0-0.1-0.1-0.2-0.2-0.4c0-0.1,0-0.2,0-0.3c0-0.1-0.2-0.3-0.4-0.3c-0.2,0-0.3,0.1-0.5,0.2c-0.2,0-0.6-0.1-0.8-0.1
		c-0.2,0-0.3,0.1-0.5,0.1c-0.4,0-0.8,0-1.1,0c-0.2,0-0.7,0.1-0.9,0.2c-0.1,0.1-0.2,0.2-0.3,0.3c-0.1,0-0.2,0-0.3,0.1
		c-0.1,0.1-0.3,0.2-0.4,0.3c-0.2,0-0.5,0-0.8,0c-0.3,0-0.7,0-0.7-0.3c0-0.5,0.8-0.3,1.2-0.4c0.2,0,0.3-0.2,0.4-0.3
		c0.1-0.1,0.2-0.1,0.3-0.1c0.2-0.1,0.4-0.4,0.4-0.5c0-0.1-0.1-0.3-0.1-0.3c0-0.1,0.1-0.2,0.3-0.3c0.2-0.2,0.4-0.5,0.7-0.6
		c0.2-0.1,0.4-0.1,0.5-0.2c0-0.2,0-0.3,0-0.4c0.1-0.1,0.2-0.2,0.3-0.2c0.3-0.1,0.5,0.2,0.8,0.2c0.1,0,0.3-0.1,0.4-0.2
		c0.1-0.1,0.3-0.1,0.4-0.2c0.1-0.1,0.3-0.2,0.4-0.2c0.4,0,0.5,0.4,0.7,0.6c0.2,0.2,0.6,0.5,0.8,0.7c0.1,0.1,0.3,0.1,0.5,0.2
		c0.3,0.1,1,0.6,1,0.9c0,0.2-0.1,0.3-0.1,0.4c0.2,0,0.5-0.2,0.5-0.5c0-0.2-0.2-0.2-0.1-0.4c0.1-0.2,0.5,0,0.6-0.1
		c0-0.3-0.4-0.3-0.6-0.4c-0.1-0.1-0.2-0.2-0.3-0.3c-0.2-0.1-0.4-0.1-0.5-0.2c-0.1-0.1-0.2-0.4-0.3-0.5c-0.2-0.2-0.6-0.3-0.5-0.8
		c0.1-0.1,0.2-0.2,0.3-0.2c0.2,0,0.2,0.2,0.3,0.3c0.1,0.1,0.2,0.1,0.3,0.1c0.1,0.1,0.2,0.3,0.3,0.4c0.2,0.2,0.6,0.3,0.9,0.4
		c0.3,0.1,0.7,0.3,0.8,0.5c0,0.1,0,0.3,0,0.4c0,0.1,0.1,0.3,0.2,0.4c0.2,0.3,0.5,0.5,0.7,0.8c0,0.4,0.2,0.7,0.6,0.6
		c0.2-0.1,0.1-0.2,0.2-0.4c0.1-0.1,0.4-0.1,0.4-0.3c0-0.3-0.7-0.4-0.6-0.8c0-0.1,0.2-0.1,0.3-0.1c0.2-0.2,0.7-0.6,0.9-0.2
		c0.1,0.8,0.4,1.4,0.9,1.8c0.4-0.1,0.5,0.2,0.9,0.2c0.2,0,0.3-0.3,0.4-0.3c0.3,0,0.5,0.3,0.8,0.3c0.5,0.1,0.8-0.5,1.3-0.2
		c0,0.4,0.1,0.6,0.1,0.8C74,49,73.8,49.2,73.7,49.5z M75.6,45.9c-0.2,0-0.6,0.1-0.9,0c-0.7,0-1.2-0.5-2-0.5c-0.2,0-0.3,0.1-0.5,0.1
		c-0.2,0.1-0.4,0.3-0.5,0.3c-0.2,0.1-0.6-0.1-0.8,0c-0.2,0.1-0.3,0.6-0.7,0.3c0-0.2,0.3-0.1,0.3-0.3c0-0.2-0.3-0.3-0.3-0.5
		c0-0.2,0.2-0.3,0.3-0.6c0-0.1,0-0.2,0-0.2c0-0.1,0.2-0.2,0.3-0.3c0.2-0.2,0.3-0.6,0.6-0.7c0.3,0,0.4,0.2,0.7,0.2
		c0.2,0.2,0.2,0.6,0.5,0.6c0.3,0,0.6-0.2,0.8-0.3c-0.1-0.2-0.3-0.1-0.3-0.3c-0.1-0.4,0.8-0.5,1.1-0.4c0.2,0.4-0.3,0.5-0.3,0.7
		c0,0.2,0.7,0.4,0.8,0.5c0.3,0.2,0.6,0.3,0.9,0.5C75.9,45.2,76.2,45.8,75.6,45.9z M81.4,47.7c-0.2,0.2-0.5,0.3-0.7,0.3
		c-0.3,0-0.5-0.2-0.8-0.3c-0.3-0.1-0.5-0.1-0.6-0.4c0-0.1,0-0.5,0.1-0.6c0-0.2,0.2-0.2,0.2-0.3c0-0.2-0.4-0.5-0.6-0.6
		c-0.2-0.2-0.5-0.4-0.6-0.6c0-0.1,0-0.2-0.1-0.3c-0.1-0.2-0.3-0.3-0.3-0.4c0-0.1,0.1-0.3,0.2-0.4c0.1-0.1,0.3-0.2,0.5-0.3
		c0.4-0.3,0.8-0.4,1.4-0.3c0.2,0.1,0.3,0.5,0.1,0.6c-0.4,0-0.8,0.1-0.8,0.4c0,0.3,0.7,0.7,1,0.9c0,0.2,0,0.3,0.2,0.4
		c0.4-0.1,0.8,0.1,0.7,0.4c-0.1,0.2-0.3,0-0.5,0.1c0,0,0,0.1-0.1,0.1C80.9,46.7,81.6,46.8,81.4,47.7z"/>
	<path class="st0" d="M126.1,76.7c0.3,1.3-1,2.5-1.8,3.4c-1.2,1.4-2.7,2.8-4.5,2.8c-0.5,0-1-0.2-1.3-0.5c-0.4-0.5-0.5-1.1-0.6-1.8
		c-0.3,0.1-0.6,0.1-0.9,0.2c-0.3-1.1-1.8-1.5-2.9-1.2c-1.7,0.5-3.2,1.4-5,1.5c-0.3,0-0.8-0.1-0.8-0.4c0-0.1,0.1-0.3,0.1-0.4
		c0.6-1.2,0.3-2.8,0.3-4.1c0-0.2,0.2-0.3,0.3-0.5c0-0.1,0-0.3,0.1-0.4c0.1-0.1,0.3-0.2,0.4-0.2c0.4-0.2,0.7-0.5,1.1-0.6
		c0.1,0,0.2,0,0.3,0c0.2,0,0.5-0.2,0.8-0.3c0.3-0.1,0.6,0,0.8-0.2c1.3-0.7,1.6-2.8,3.4-2.5c0.2,0,0.4,0.1,0.6,0.1
		c0.4-0.1,0.7-0.6,1-0.9c0.7-0.6,1.8-0.3,2.7,0.1c-0.4,0.1-0.6,0.7-0.4,1.1c0.2,0.4,0.6,0.7,1,0.9c0.3,0.1,0.7,0.3,0.9,0
		c0.1-0.1,0.1-0.2,0.2-0.3c0.3-0.7,0.5-1.5,0.9-2.1c0.5,0.1,0.5,0.5,0.5,1c0.2,0.2,0.5,0.1,0.6,0.4c0,0.1-0.1,0.3,0,0.4
		c0,0.2,0.2,0.4,0.2,0.6c0.1,0.3-0.1,0.6,0.1,0.8c0.2,0.3,0.6,0.3,0.8,0.6c0,0.2,0.1,0.3,0.1,0.4c0,0.1,0,0.2,0,0.3
		c0.1,0.2,0.3,0.2,0.4,0.3c0,0.1,0,0.2,0.1,0.3c0.1,0.2,0.2,0.3,0.4,0.5C126,76.3,126,76.5,126.1,76.7z"/>
	<path class="st0" d="M126.4,69.8c-0.1,0.1-0.3-0.1-0.5-0.1c-0.3-0.1-0.5,0-0.7-0.1c-0.2-0.2-0.3-0.6-0.5-0.8
		c-0.1-0.1-0.5-0.3-0.7-0.3c-0.4,0-0.4,0.5-0.8,0.7c-0.3,0-0.5,0.1-0.8,0c-0.3-0.1-0.4-0.4-0.7-0.5c-0.3,0-0.9,0.4-0.9,0
		c-0.1-0.3,0.4-0.4,0.4-0.6c0-0.2-0.2-0.6-0.3-0.6c-0.1-0.1-0.3-0.1-0.4-0.2c-0.1-0.1-0.2-0.2-0.4-0.3c-0.5-0.3-1.3-0.2-1.5-0.6
		c0-0.1,0-0.2,0-0.3c-0.1-0.1-0.3-0.2-0.3-0.3c-0.2-0.3-0.1-0.8,0.2-0.8c0.3,0,0.8,0.3,0.9,0.5c0,0.1,0,0.2,0,0.3
		c0,0.1,0.2,0.5,0.4,0.5c0.3,0,0.4-0.4,0.6-0.5c0.2-0.1,0.4-0.2,0.6-0.2c0.2,0,0.4,0.2,0.6,0.3c0.2,0.1,0.4,0.1,0.6,0.2
		c0.2,0.1,0.3,0.2,0.5,0.2c0.6,0.2,1.3,0.3,1.6,0.7c0.1,0.1,0.1,0.3,0.2,0.4c0.1,0.1,0.7,0.2,0.7,0.4c0,0.2-0.2,0.2-0.2,0.4
		c0,0.4,0.5,0.3,0.6,0.7C125.9,69,126.7,69.6,126.4,69.8z"/>
</g>
</svg>
