<?xml version="1.0" encoding="utf-8"?>
<!-- Generator: Adobe Illustrator 21.0.0, SVG Export Plug-In . SVG Version: 6.00 Build 0)  -->
<svg version="1.1" id="Layer_1" xmlns="http://www.w3.org/2000/svg" xmlns:xlink="http://www.w3.org/1999/xlink" x="0px" y="0px"
	 viewBox="0 0 51 65" style="enable-background:new 0 0 51 65;" xml:space="preserve">
<style type="text/css">
	.st0{fill:none;stroke:#4E85F2;stroke-linejoin:round;stroke-miterlimit:10;}
	.st1{fill:#4E85F2;}
</style>
<g>
	<path class="st0" d="M38.2,12.4c0-0.8-0.3-1.5-0.9-2.1c-0.6-0.5-1.3-0.9-2.1-0.9H17.6c-1.6,0-3,1.3-3,3l0.1,41.1
		c0,0.8,0.3,1.5,0.9,2.1c0.6,0.5,1.3,0.9,2.1,0.9h17.6c1.6,0,3-1.3,3-3L38.2,12.4z M26.5,54.7c-1,0-1.8-0.8-1.8-1.8s0.8-1.9,1.8-1.9
		s1.9,0.8,1.9,1.9C28.4,53.9,27.5,54.7,26.5,54.7z"/>
	<polygon class="st0" points="22.3,11.5 31,11.5 31,12.5 22.3,12.5 	"/>
	<path class="st1" d="M28.4,52.9c0,1-0.8,1.8-1.8,1.8s-1.8-0.8-1.8-1.8s0.8-1.9,1.8-1.9C27.5,51,28.3,51.9,28.4,52.9z"/>
	
		<rect x="16.7" y="15" transform="matrix(1 -1.467636e-03 1.467636e-03 1 -4.701007e-02 3.885483e-02)" class="st0" width="19.5" height="34.1"/>
</g>
<path id="CODE_2_" class="st1" d="M34.2,33.5L34.2,33.5l-3,3l0,0c-0.1,0.1-0.3,0.2-0.5,0.2c-0.4,0-0.8-0.3-0.8-0.8
	c0-0.2,0.1-0.4,0.2-0.5l0,0l2.5-2.5l-2.5-2.5l0,0c-0.1-0.1-0.2-0.3-0.2-0.5c0-0.4,0.3-0.8,0.8-0.8c0.2,0,0.4,0.1,0.5,0.2l0,0l3,3
	c0.2,0.1,0.3,0.3,0.3,0.6C34.5,33.1,34.4,33.3,34.2,33.5z M25.2,38.4c-0.1,0.3-0.4,0.5-0.7,0.5c-0.4,0-0.8-0.3-0.8-0.8
	c0-0.1,0-0.2,0-0.3l4-10.5c0.1-0.3,0.4-0.5,0.7-0.5c0.4,0,0.8,0.3,0.8,0.8c0,0.1,0,0.2,0,0.3L25.2,38.4z M22.7,30.5L20.2,33l2.5,2.5
	l0,0c0.1,0.1,0.2,0.3,0.2,0.5c0,0.4-0.3,0.8-0.8,0.8c-0.2,0-0.4-0.1-0.5-0.2l0,0l-3-3l0,0c-0.1-0.1-0.2-0.3-0.2-0.5s0.1-0.4,0.3-0.6
	l3-3l0,0c0.1-0.1,0.3-0.2,0.5-0.2c0.4,0,0.8,0.3,0.8,0.8C23,30.1,22.9,30.3,22.7,30.5L22.7,30.5z"/>
</svg>
