<svg id="Layer_1" data-name="Layer 1" xmlns="http://www.w3.org/2000/svg" width="172.36" height="222.48" viewBox="0 0 172.36 222.48"><defs><style>.cls-1{fill:none;stroke:#4e85f2;stroke-linejoin:round;stroke-width:2.71px;}.cls-2{fill:#4e85f2;}</style></defs><title>mob app</title><path class="cls-1" d="M118,55.53a7.8,7.8,0,0,0-2.44-5.69,9,9,0,0,0-5.69-2.44H62.19a8.16,8.16,0,0,0-8.13,8.13l.27,111.41a7.8,7.8,0,0,0,2.44,5.69,9,9,0,0,0,5.69,2.44h47.71a8.16,8.16,0,0,0,8.13-8.13ZM86.32,170.2a4.86,4.86,0,0,1-4.88-4.88,5,5,0,1,1,4.88,4.88Z"/><polygon class="cls-1" points="74.93 53.09 98.51 53.09 98.51 55.8 74.93 55.8 74.93 53.09"/><path class="cls-2" d="M91.47,165.32a4.88,4.88,0,0,1-9.76,0,5.1,5.1,0,0,1,4.88-5.15C89,160.17,91.19,162.61,91.47,165.32Z"/><rect class="cls-1" x="59.75" y="62.58" width="52.86" height="92.44" transform="translate(-0.16 0.13) rotate(-0.08)"/><path id="CODE" class="cls-2" d="M107.19,112.73h0l-8.13,8.13h0a2.07,2.07,0,0,1-1.36.54,2.14,2.14,0,0,1-2.17-2.17,2.07,2.07,0,0,1,.54-1.36h0l6.78-6.78-6.78-6.78h0a2.07,2.07,0,0,1-.54-1.36,2.14,2.14,0,0,1,2.17-2.17,2.07,2.07,0,0,1,1.36.54h0l8.13,8.13a1.64,1.64,0,0,1,.81,1.63A2.34,2.34,0,0,1,107.19,112.73ZM82.79,126a2,2,0,0,1-1.9,1.36,2.14,2.14,0,0,1-2.17-2.17v-.81L89.57,95.92a2,2,0,0,1,1.9-1.36,2.14,2.14,0,0,1,2.17,2.17v.81ZM76,104.6l-6.78,6.78L76,118.15h0a2.07,2.07,0,0,1,.54,1.36,2.14,2.14,0,0,1-2.17,2.17,2.07,2.07,0,0,1-1.36-.54h0L64.9,113h0a2.07,2.07,0,0,1-.54-1.36,2.34,2.34,0,0,1,.81-1.63l8.13-8.13h0a2.07,2.07,0,0,1,1.36-.54,2.14,2.14,0,0,1,2.17,2.17A4.68,4.68,0,0,1,76,104.6Z"/></svg>