<svg id="Layer_1" data-name="Layer 1" xmlns="http://www.w3.org/2000/svg" width="172.36" height="222.48" viewBox="0 0 172.36 222.48"><defs><style>.cls-1{fill:none;stroke:#4e85f2;stroke-linejoin:round;stroke-width:2.51px;}.cls-2{fill:#4e85f2;}</style></defs><title>mob app</title><path class="cls-1" d="M115.62,59.75a7.21,7.21,0,0,0-2.26-5.26,8.35,8.35,0,0,0-5.26-2.26H64a7.54,7.54,0,0,0-7.52,7.52l.25,103A7.21,7.21,0,0,0,59,168a8.35,8.35,0,0,0,5.26,2.26h44.1a7.54,7.54,0,0,0,7.52-7.52Zm-29.32,106a4.49,4.49,0,0,1-4.51-4.51,4.64,4.64,0,1,1,4.51,4.51Z"/><polygon class="cls-1" points="75.78 57.49 97.58 57.49 97.58 60 75.78 60 75.78 57.49"/><path class="cls-2" d="M91.07,161.23a4.51,4.51,0,0,1-9,0,4.71,4.71,0,0,1,4.51-4.76C88.81,156.47,90.82,158.72,91.07,161.23Z"/><rect class="cls-1" x="61.75" y="66.26" width="48.86" height="85.44" transform="translate(-0.16 0.13) rotate(-0.08)"/><path id="CODE" class="cls-2" d="M105.6,112.62h0l-7.52,7.52h0a1.91,1.91,0,0,1-1.25.5,2,2,0,0,1-2-2,1.91,1.91,0,0,1,.5-1.25h0l6.26-6.26-6.26-6.26h0a1.91,1.91,0,0,1-.5-1.25,2,2,0,0,1,2-2,1.91,1.91,0,0,1,1.25.5h0l7.52,7.52a1.52,1.52,0,0,1,.75,1.5A2.17,2.17,0,0,1,105.6,112.62ZM83,124.9a1.88,1.88,0,0,1-1.75,1.25,2,2,0,0,1-2-2v-.75l10-26.31a1.88,1.88,0,0,1,1.75-1.25,2,2,0,0,1,2,2v.75ZM76.78,105.1l-6.26,6.26,6.26,6.26h0a1.91,1.91,0,0,1,.5,1.25,2,2,0,0,1-2,2,1.91,1.91,0,0,1-1.25-.5h0l-7.52-7.52h0a1.91,1.91,0,0,1-.5-1.25,2.17,2.17,0,0,1,.75-1.5l7.52-7.52h0a1.91,1.91,0,0,1,1.25-.5,2,2,0,0,1,2,2,4.33,4.33,0,0,1-.75,1Z"/></svg>