<?xml version="1.0" encoding="utf-8"?>
<!-- Generator: Adobe Illustrator 21.0.0, SVG Export Plug-In . SVG Version: 6.00 Build 0)  -->
<svg version="1.1" id="Layer_1" xmlns="http://www.w3.org/2000/svg" xmlns:xlink="http://www.w3.org/1999/xlink" x="0px" y="0px"
	 viewBox="0 0 152 126.3" style="enable-background:new 0 0 152 126.3;" xml:space="preserve">
<style type="text/css">
	.st0{fill:#4285F4;}
	.st1{fill:none;stroke:#4285F4;stroke-width:2.8527;stroke-linecap:round;stroke-linejoin:round;stroke-miterlimit:10;}
</style>
<g>
	<g>
		<g>
			<path class="st0" d="M123.9,18.3c2.8,0,5.2,2.3,5.2,5.2v6.4L22.8,30.1v-6.4c0-2.9,2.3-5.2,5.2-5.2L123.9,18.3L123.9,18.3
				 M123.9,15.3L123.9,15.3L28,15.4c-4.5,0-8.2,3.7-8.2,8.2V30v3h3L129,32.8h3v-3v-6.4C132,19,128.4,15.3,123.9,15.3L123.9,15.3z"/>
		</g>
		<g>
			<path class="st0" d="M129.1,32.9l0.1,69.6c0,2.9-2.3,5.2-5.2,5.2l-95.9,0.1l0,0c-2.9,0-5.2-2.3-5.2-5.2L22.8,33L129.1,32.9
				 M132.1,29.9h-3L22.8,30.1h-3v3l0.1,69.6c0,4.5,3.7,8.2,8.2,8.2l95.9-0.1c2.2,0,4.2-0.9,5.8-2.4c1.5-1.5,2.4-3.6,2.4-5.8
				L132.1,33L132.1,29.9L132.1,29.9z"/>
		</g>
		<g>
			<path class="st0" d="M30.4,23.7L30.4,23.7c-1,0-1.8,0.8-1.8,1.8s0.8,1.8,1.8,1.8l0,0c1,0,1.8-0.8,1.8-1.8S31.4,23.7,30.4,23.7
				L30.4,23.7z"/>
		</g>
		<g>
			<path class="st0" d="M37.2,23.7L37.2,23.7c-1,0-1.8,0.8-1.8,1.8s0.8,1.8,1.8,1.8l0,0c1,0,1.8-0.8,1.8-1.8S38.2,23.7,37.2,23.7
				L37.2,23.7z"/>
		</g>
		<g>
			<path class="st0" d="M45.7,23.7L45.7,23.7c-1,0-1.8,0.8-1.8,1.8s0.8,1.8,1.8,1.8l0,0c1,0,1.8-0.8,1.8-1.8
				C47.4,24.5,46.6,23.7,45.7,23.7L45.7,23.7z"/>
		</g>
	</g>
</g>
<g>
	<g>
		<g>
			<path class="st0" d="M55.9,55.8h-7.7V42.4h7.7v2.3H51v2.9h4.5v2.3H51v3.5h4.9V55.8z"/>
		</g>
		<g>
			<path class="st0" d="M68,55.8h-2.8v-6c0-0.7-0.1-1.3-0.4-1.7c-0.3-0.4-0.7-0.6-1.3-0.6c-0.8,0-1.3,0.3-1.7,0.8
				c-0.3,0.5-0.5,1.4-0.5,2.6v4.8h-2.8V45.5h2.1l0.4,1.3h0.2c0.3-0.5,0.7-0.9,1.3-1.1c0.5-0.3,1.2-0.4,1.9-0.4c1.2,0,2.1,0.3,2.7,1
				c0.6,0.6,0.9,1.6,0.9,2.8L68,55.8L68,55.8z"/>
		</g>
	</g>
	<g>
		<g>
			<path class="st0" d="M82.5,97.2h-2.8V83.8h7.7v2.3h-4.9v3.5H87v2.3h-4.5V97.2z"/>
		</g>
		<g>
			<path class="st0" d="M95.5,86.7c0.4,0,0.7,0,0.9,0.1l-0.2,2.6c-0.2-0.1-0.5-0.1-0.8-0.1c-0.9,0-1.6,0.2-2.1,0.7s-0.7,1.1-0.7,1.9
				v5.2h-2.8V86.9h2.1l0.4,1.7h0.1c0.3-0.6,0.7-1,1.3-1.4C94.3,86.9,94.9,86.7,95.5,86.7z"/>
		</g>
	</g>
	<path class="st1" d="M88.7,76.5c3.4-4.5,4.2-10.7,1.6-16.2c-2.9-6-9-9.3-15.3-8.9"/>
	<path class="st1" d="M59.2,62.6c-3.4,4.5-4.3,10.8-1.7,16.2c2.9,6,9,9.3,15.3,8.9"/>
	<polyline class="st1" points="96.4,73.2 88.7,76.9 85,69.2 	"/>
	<polyline class="st1" points="51.4,66 59.1,62.3 62.8,70 	"/>
</g>
</svg>
