<svg id="Layer_1" data-name="Layer 1" xmlns="http://www.w3.org/2000/svg" width="172.36" height="222.48" viewBox="0 0 172.36 222.48"><defs><style>.cls-1{fill:#4285f4;}.cls-2{fill:none;stroke:#4285f4;stroke-linecap:round;stroke-linejoin:round;stroke-width:2.85px;}</style></defs><title>multilingual</title><path class="cls-1" d="M131.79,68.58a5,5,0,0,1,5,5v6.09l-101.21.19V73.73a4.92,4.92,0,0,1,5-5l91.31-.19h0m0-2.86h0l-91.31.1a7.84,7.84,0,0,0-7.81,7.81v9h2.86l101.12-.19h2.86v-9a7.74,7.74,0,0,0-7.71-7.71Z"/><path class="cls-1" d="M136.74,82.48l.1,66.27a4.92,4.92,0,0,1-5,5l-91.31.1h0a4.92,4.92,0,0,1-5-5l-.1-66.27,101.21-.1m2.86-2.86h-2.86l-101.21.19H32.67v2.86l.1,66.27a7.84,7.84,0,0,0,7.81,7.81l91.31-.1a8,8,0,0,0,5.52-2.29,7.86,7.86,0,0,0,2.29-5.52l-.1-66.27v-3Z"/><path class="cls-1" d="M42.76,73.73h0a1.71,1.71,0,1,0,0,3.43h0a1.71,1.71,0,1,0,0-3.43Z"/><path class="cls-1" d="M49.24,73.73h0a1.71,1.71,0,1,0,0,3.43h0a1.71,1.71,0,1,0,0-3.43Z"/><path class="cls-1" d="M57.33,73.73h0a1.71,1.71,0,1,0,0,3.43h0A1.71,1.71,0,0,0,59,75.44a1.84,1.84,0,0,0-1.71-1.71Z"/><path class="cls-1" d="M70.08,103.94h-7.7V90.54h7.7v2.3h-4.9v2.9h4.5V98h-4.5v3.5h4.9Z"/><path class="cls-1" d="M82.18,103.94h-2.8v-6a2.86,2.86,0,0,0-.4-1.7,1.49,1.49,0,0,0-1.3-.6,2,2,0,0,0-1.7.8,5.39,5.39,0,0,0-.5,2.6v4.8h-2.8V93.64h2.1l.4,1.3h.2a2.37,2.37,0,0,1,1.3-1.1,3.81,3.81,0,0,1,1.9-.4,3.34,3.34,0,0,1,2.7,1,3.93,3.93,0,0,1,.9,2.8v6.7Z"/><path class="cls-1" d="M96.68,145.34h-2.8v-13.4h7.7v2.3h-4.9v3.5h4.5V140h-4.5Z"/><path class="cls-1" d="M109.68,134.84a2.22,2.22,0,0,1,.9.1l-.2,2.6a2,2,0,0,0-.8-.1,2.82,2.82,0,0,0-2.1.7,2.49,2.49,0,0,0-.7,1.9v5.2H104V135h2.1l.4,1.7h.1a3.48,3.48,0,0,1,1.3-1.4A4.07,4.07,0,0,1,109.68,134.84Z"/><path class="cls-2" d="M102.88,124.64a15.72,15.72,0,0,0-13.7-25.1"/><path class="cls-2" d="M73.38,110.74A15.65,15.65,0,0,0,87,135.84"/><polyline class="cls-2" points="110.58 121.34 102.88 125.04 99.18 117.34"/><polyline class="cls-2" points="65.58 114.14 73.28 110.44 76.98 118.14"/></svg>