<svg id="Layer_1" data-name="Layer 1" xmlns="http://www.w3.org/2000/svg" width="172.36" height="222.48" viewBox="0 0 172.36 222.48"><defs><style>.cls-1{fill:#4285f4;}.cls-2{fill:none;stroke:#4285f4;stroke-linecap:round;stroke-linejoin:round;stroke-width:2.41px;}</style></defs><title>mvp</title><path class="cls-1" d="M131.79,68.58a5,5,0,0,1,5,5v6.09l-101.21.19V73.73a4.92,4.92,0,0,1,5-5l91.31-.19h0m0-2.86h0l-91.31.1a7.84,7.84,0,0,0-7.81,7.81v9h2.86l101.12-.19h2.86v-9a7.74,7.74,0,0,0-7.71-7.71Z"/><path class="cls-1" d="M136.74,82.48l.1,66.27a4.92,4.92,0,0,1-5,5l-91.31.1h0a4.92,4.92,0,0,1-5-5l-.1-66.27,101.21-.1m2.86-2.86h-2.86l-101.21.19H32.67v2.86l.1,66.27a7.84,7.84,0,0,0,7.81,7.81l91.31-.1a8,8,0,0,0,5.52-2.29,7.86,7.86,0,0,0,2.29-5.52l-.1-66.27v-3Z"/><path class="cls-1" d="M42.76,73.73h0a1.71,1.71,0,1,0,0,3.43h0a1.71,1.71,0,1,0,0-3.43Z"/><path class="cls-1" d="M49.24,73.73h0a1.71,1.71,0,1,0,0,3.43h0a1.71,1.71,0,1,0,0-3.43Z"/><path class="cls-1" d="M57.33,73.73h0a1.71,1.71,0,1,0,0,3.43h0A1.71,1.71,0,0,0,59,75.44a1.84,1.84,0,0,0-1.71-1.71Z"/><rect class="cls-2" x="48.76" y="89.53" width="75.41" height="14.47"/><rect class="cls-2" x="48.76" y="114.19" width="34.75" height="11.14"/><rect class="cls-2" x="48.76" y="133.04" width="34.75" height="11.14"/><rect class="cls-2" x="93.13" y="114.19" width="30.94" height="29.99"/></svg>