<?xml version="1.0" encoding="utf-8"?>
<!-- Generator: Adobe Illustrator 21.0.0, SVG Export Plug-In . SVG Version: 6.00 Build 0)  -->
<svg version="1.1" id="Layer_1" xmlns="http://www.w3.org/2000/svg" xmlns:xlink="http://www.w3.org/1999/xlink" x="0px" y="0px"
	 viewBox="0 0 144 124" style="enable-background:new 0 0 144 124;" xml:space="preserve">
<style type="text/css">
	.st0{fill:#4285F4;}
	.st1{fill:none;stroke:#4285F4;stroke-width:2.5356;stroke-linecap:round;stroke-linejoin:round;stroke-miterlimit:10;}
</style>
<g>
	<g>
		<path class="st0" d="M119.9,17.2c2.8,0,5.2,2.3,5.2,5.2v6.4L18.8,29v-6.4c0-2.9,2.3-5.2,5.2-5.2L119.9,17.2L119.9,17.2
			 M119.9,14.2L119.9,14.2L24,14.3c-4.5,0-8.2,3.7-8.2,8.2v6.4v3h3L125,31.7h3v-3v-6.4C128,17.9,124.4,14.2,119.9,14.2L119.9,14.2z"
			/>
	</g>
	<g>
		<path class="st0" d="M125.1,31.8l0.1,69.6c0,2.9-2.3,5.2-5.2,5.2l-95.9,0.1l0,0c-2.9,0-5.2-2.3-5.2-5.2l-0.1-69.6L125.1,31.8
			 M128.1,28.8h-3L18.8,29h-3v3l0.1,69.6c0,4.5,3.7,8.2,8.2,8.2l95.9-0.1c2.2,0,4.2-0.9,5.8-2.4c1.5-1.5,2.4-3.6,2.4-5.8l-0.1-69.6
			L128.1,28.8L128.1,28.8z"/>
	</g>
	<g>
		<path class="st0" d="M26.4,22.6L26.4,22.6c-1,0-1.8,0.8-1.8,1.8s0.8,1.8,1.8,1.8l0,0c1,0,1.8-0.8,1.8-1.8S27.4,22.6,26.4,22.6
			L26.4,22.6z"/>
	</g>
	<g>
		<path class="st0" d="M33.2,22.6L33.2,22.6c-1,0-1.8,0.8-1.8,1.8s0.8,1.8,1.8,1.8l0,0c1,0,1.8-0.8,1.8-1.8S34.2,22.6,33.2,22.6
			L33.2,22.6z"/>
	</g>
	<g>
		<path class="st0" d="M41.7,22.6L41.7,22.6c-1,0-1.8,0.8-1.8,1.8s0.8,1.8,1.8,1.8l0,0c1,0,1.8-0.8,1.8-1.8
			C43.4,23.4,42.6,22.6,41.7,22.6L41.7,22.6z"/>
	</g>
	<rect x="32.7" y="39.2" class="st1" width="79.2" height="15.2"/>
	<rect x="32.7" y="65.1" class="st1" width="36.5" height="11.7"/>
	<rect x="32.7" y="84.9" class="st1" width="36.5" height="11.7"/>
	<rect x="79.3" y="65.1" class="st1" width="32.5" height="31.5"/>
</g>
</svg>
