<?xml version="1.0" encoding="utf-8"?>
<!-- Generator: Adobe Illustrator 21.0.0, SVG Export Plug-In . SVG Version: 6.00 Build 0)  -->
<svg version="1.1" id="Layer_1" xmlns="http://www.w3.org/2000/svg" xmlns:xlink="http://www.w3.org/1999/xlink" x="0px" y="0px"
	 viewBox="0 0 164 139" style="enable-background:new 0 0 164 139;" xml:space="preserve">
<style type="text/css">
	.st0{fill:#4285F4;}
	.st1{clip-path:url(#SVGID_2_);}
	.st2{fill:#FFFFFF;}
</style>
<g>
	<g>
		<path class="st0" d="M138.7,29.8c0-4.5-3.7-8.2-8.2-8.2l0,0l-95.9,0.1c-4.5,0-8.2,3.7-8.2,8.2v6.4v3h3l106.2-0.1h3v-3L138.7,29.8z
			 M135.7,36.2L29.5,36.3v-6.4c0-2.9,2.3-5.2,5.2-5.2l95.9-0.1l0,0c2.9,0,5.2,2.3,5.2,5.2v6.4H135.7z"/>
	</g>
	<g>
		<path class="st0" d="M138.8,83v-3v-2.6v-3.1l-3-3V77l1.7,1.7l-1.7,1.7v2.8V86v22.8c0,2.9-2.3,5.2-5.2,5.2l-95.9,0.1l0,0
			c-2.9,0-5.2-2.3-5.2-5.2l-0.1-69.6l106.2-0.1v25.1v5.6l2.7-2.7c0.1-0.1,0.2-0.2,0.3-0.3v-2.3v-2.1V39.1v-3h-3l0,0L29.4,36.2h-3v3
			l0.1,69.6c0,4.5,3.7,8.2,8.2,8.2l95.9-0.1c2.2,0,4.2-0.9,5.8-2.4c1.5-1.5,2.4-3.6,2.4-5.8V83z"/>
	</g>
	<g>
		<path class="st0" d="M37.1,30L37.1,30c-1,0-1.8,0.8-1.8,1.8s0.8,1.8,1.8,1.8l0,0c1,0,1.8-0.8,1.8-1.8C38.8,30.8,38.1,30,37.1,30
			L37.1,30z"/>
	</g>
	<g>
		<path class="st0" d="M43.9,30L43.9,30c-1,0-1.8,0.8-1.8,1.8s0.8,1.8,1.8,1.8l0,0c1,0,1.8-0.8,1.8-1.8C45.6,30.8,44.8,30,43.9,30
			L43.9,30z"/>
	</g>
	<g>
		<path class="st0" d="M52.3,30L52.3,30c-1,0-1.8,0.8-1.8,1.8s0.8,1.8,1.8,1.8l0,0c1,0,1.8-0.8,1.8-1.8C54.1,30.7,53.3,30,52.3,30
			L52.3,30z"/>
	</g>
	<g>
		<polygon class="st0" points="116.1,45.5 110.4,49.4 110.4,50.3 113.1,50.3 116.1,48.1 		"/>
	</g>
	<g>
		<polygon class="st0" points="113.1,50.3 110.4,50.3 110.4,51.2 116.1,55.1 116.1,52.5 113,50.3 		"/>
	</g>
	<g>
		<polygon class="st0" points="125.3,45.5 125.3,48.1 128.4,50.2 131,50.2 131,49.4 		"/>
	</g>
	<g>
		<polygon class="st0" points="131,50.2 128.4,50.2 128.5,50.3 125.3,52.5 125.3,55.1 131,51.2 		"/>
	</g>
	<g>
		<polygon class="st0" points="123.7,43.6 121.5,43.8 117.6,56.1 120,56 		"/>
	</g>
	<g>
		<g>
			<path class="st0" d="M39.1,51.1C39.1,51.1,39,51.1,39.1,51.1c-3.7,0-6.7,0.6-6.7,1.4c0,0.7,3,1.3,6.6,1.3l0,0
				c3.6,0,6.6-0.6,6.6-1.4C45.6,51.7,42.7,51.1,39.1,51.1L39.1,51.1z"/>
		</g>
		<g>
			<path class="st0" d="M42.7,57.5L42.7,57.5c-2.7,0-4.9,0.6-4.9,1.4c0,0.7,2.2,1.3,4.8,1.3l0,0c2.7,0,4.9-0.6,4.9-1.4
				C47.5,58.1,45.3,57.5,42.7,57.5L42.7,57.5z"/>
		</g>
		<g>
			<path class="st0" d="M37.3,64L37.3,64c-2.7,0-4.9,0.6-4.9,1.4c0,0.7,2.2,1.3,4.8,1.3l0,0c2.7,0,4.9-0.6,4.9-1.4
				C42.1,64.6,40,64,37.3,64L37.3,64z"/>
		</g>
		<g>
			<path class="st0" d="M39.8,70.2L39.8,70.2c-4.1,0-7.4,0.6-7.4,1.4c0,0.7,3.3,1.3,7.3,1.3c0,0,0,0,0.1,0c4,0,7.3-0.6,7.3-1.4
				C47.1,70.8,43.8,70.2,39.8,70.2L39.8,70.2z"/>
		</g>
		<g>
			<path class="st0" d="M43.1,76.6C43,76.6,43,76.6,43.1,76.6c-3.7,0-6.7,0.6-6.7,1.4c0,0.7,3,1.3,6.6,1.3l0,0
				c3.6,0,6.6-0.6,6.6-1.4C49.6,77.2,46.7,76.6,43.1,76.6L43.1,76.6z"/>
		</g>
		<g>
			<path class="st0" d="M58.8,76.6L58.8,76.6c-2.5,0-4.5,0.6-4.5,1.3c0,0.7,2,1.3,4.4,1.3l0,0c2.5,0,4.5-0.6,4.5-1.3
				S61.2,76.6,58.8,76.6L58.8,76.6z"/>
		</g>
		<g>
			<path class="st0" d="M76.9,76.6L76.9,76.6c-4.1,0-7.4,0.6-7.4,1.4c0,0.7,3.3,1.3,7.3,1.3c0,0,0,0,0.1,0c4,0,7.3-0.6,7.3-1.4
				C84.2,77.2,80.9,76.6,76.9,76.6L76.9,76.6z"/>
		</g>
		<g>
			<path class="st0" d="M43.8,82.8C43.8,82.8,43.7,82.8,43.8,82.8c-4.1,0-7.4,0.6-7.4,1.4c0,0.7,3.3,1.3,7.3,1.3c0,0,0,0,0.1,0
				c4,0,7.3-0.6,7.3-1.4C51.1,83.4,47.8,82.8,43.8,82.8L43.8,82.8z"/>
		</g>
		<g>
			<path class="st0" d="M58.2,82.8L58.2,82.8c-2.3,0-4.3,0.6-4.3,1.3c0,0.7,1.9,1.3,4.2,1.3l0,0c2.3,0,4.2-0.6,4.2-1.3
				C62.4,83.4,60.5,82.8,58.2,82.8L58.2,82.8z"/>
		</g>
		<g>
			<path class="st0" d="M71,82.8L71,82.8c-2.3,0-4.3,0.6-4.3,1.3c0,0.7,1.9,1.3,4.2,1.3l0,0c2.3,0,4.2-0.6,4.2-1.3
				C75.2,83.4,73.3,82.8,71,82.8L71,82.8z"/>
		</g>
		<g>
			<path class="st0" d="M43.8,90.5L43.8,90.5c-4.1,0-7.4,0.6-7.4,1.4c0,0.7,3.3,1.3,7.3,1.3c0,0,0,0,0.1,0c4,0,7.3-0.6,7.3-1.4
				C51.1,91.1,47.8,90.5,43.8,90.5L43.8,90.5z"/>
		</g>
		<g>
			<path class="st0" d="M39.5,98.5L39.5,98.5c-2.8,0-5.1,0.6-5.1,1.4c0,0.7,2.3,1.3,5,1.3l0,0c2.8,0,5.1-0.6,5.1-1.4
				C44.6,99.1,42.3,98.5,39.5,98.5L39.5,98.5z"/>
		</g>
		<g>
			<path class="st0" d="M58.2,90.5L58.2,90.5c-2.3,0-4.3,0.6-4.3,1.3c0,0.7,1.9,1.3,4.2,1.3l0,0c2.3,0,4.2-0.6,4.2-1.3
				C62.4,91.1,60.5,90.5,58.2,90.5L58.2,90.5z"/>
		</g>
		<g>
			<path class="st0" d="M71,90.4L71,90.4c-2.3,0-4.3,0.6-4.3,1.3c0,0.7,1.9,1.3,4.2,1.3l0,0c2.3,0,4.2-0.6,4.2-1.3
				C75.2,91,73.3,90.4,71,90.4L71,90.4z"/>
		</g>
		<g>
			<path class="st0" d="M56.7,57.5L56.7,57.5c-2.7,0-4.9,0.6-4.9,1.4c0,0.7,2.2,1.3,4.8,1.3l0,0c2.7,0,4.9-0.6,4.9-1.4
				C61.6,58.1,59.4,57.5,56.7,57.5L56.7,57.5z"/>
		</g>
		<g>
			<path class="st0" d="M69.8,57.5L69.8,57.5c-1.9,0-3.4,0.6-3.4,1.3c0,0.7,1.5,1.3,3.3,1.3l0,0c1.8,0,3.4-0.6,3.4-1.3
				S71.6,57.5,69.8,57.5L69.8,57.5z"/>
		</g>
		<g>
			<path class="st0" d="M83.1,57.5L83.1,57.5c-1.3,0-2.4,0.6-2.4,1.3c0,0.7,1.1,1.3,2.4,1.3l0,0c1.3,0,2.4-0.6,2.4-1.3
				S84.4,57.5,83.1,57.5L83.1,57.5z"/>
		</g>
	</g>
</g>
<g>
	<g>
		<g>
			<defs>
				<path id="SVGID_1_" d="M29.5,39.4l0.1,69.6c0,2.9,2.3,5.2,5.2,5.2l95.9-0.1c2.9,0,5.2-2.3,5.2-5.2l-0.1-69.6L29.5,39.4z"/>
			</defs>
			<clipPath id="SVGID_2_">
				<use xlink:href="#SVGID_1_"  style="overflow:visible;"/>
			</clipPath>
			<g class="st1">
				<path class="st0" d="M103.8,65.2c-1.1-0.9-1.2-2.5-0.3-3.6c0.3-0.3,0.6-0.5,0.9-0.7c-0.1-0.3-0.3-0.7-0.5-1
					c-0.3,0.2-0.7,0.3-1,0.3c-1.4,0.1-2.6-1-2.7-2.4c0-0.4,0-0.8,0.2-1.1c-0.3-0.2-0.7-0.3-1-0.4c-0.1,0.3-0.3,0.7-0.6,0.9
					c-1,1-2.6,1.1-3.6,0.1c-0.3-0.3-0.5-0.6-0.6-0.9c-0.3,0.1-0.7,0.3-1,0.4c0.1,0.3,0.2,0.7,0.2,1.1c0,1.4-1.1,2.5-2.5,2.5
					c-0.4,0-0.8-0.1-1.1-0.3c-0.4,0.7-0.6,1.5-0.8,2.3c0.1,0.1,0.3,0.1,0.4,0.2c1.2,0.8,1.5,2.3,0.8,3.5c-0.2,0.3-0.4,0.6-0.7,0.7
					c0.2,0.5,0.5,1,0.8,1.5c0.3-0.2,0.5-0.3,0.9-0.3c1.4-0.3,2.7,0.7,3,2c0.1,0.4,0,0.8-0.1,1.2c0.4,0.2,0.9,0.3,1.4,0.4
					c0.1-0.3,0.2-0.7,0.4-1c0.8-1.1,2.4-1.4,3.6-0.6c0.3,0.2,0.6,0.5,0.7,0.9c0.3-0.2,0.6-0.3,0.9-0.5c-0.2-0.3-0.3-0.6-0.4-1
					c-0.2-1.4,0.8-2.7,2.2-2.8c0.4,0,0.8,0,1.1,0.1c0.1-0.3,0.2-0.7,0.3-1C104.5,65.6,104.1,65.4,103.8,65.2z M97.1,67.1
					c-1.5,0-2.7-1.2-2.7-2.7s1.2-2.7,2.7-2.7s2.7,1.2,2.7,2.7S98.6,67.1,97.1,67.1z"/>
			</g>
		</g>
	</g>
</g>
<g>
	<g>
		<path class="st2" d="M145.1,65.9c-1.7-1.7-4.2-2.1-6.3-1.2c-0.6,0.3-1.2,0.7-1.8,1.2l-1.3,1.3l-2.1,2.1l-2.8,2.8l-22,22l-2,10.1
			l10.1-2l21.9-21.9l0.1-0.1l0,0l2.8-2.8l0,0l3.3-3.3c1.1-1.1,1.7-2.6,1.7-4C146.7,68.5,146.2,67,145.1,65.9z M135.8,80.4
			l-19.9,19.9l-6.5,1.3l1.3-6.5l21.6-21.6l5.2,5.2L135.8,80.4z M143.7,72.5l-3.3,3.3l-1.5-1.6l-3-3l-0.7-0.7l3.3-3.3
			c0.1-0.1,0.2-0.2,0.3-0.3c1.5-1.1,3.6-1.1,4.9,0.3c0.7,0.7,1.1,1.6,1.1,2.6C144.7,70.9,144.3,71.8,143.7,72.5z"/>
		<path class="st0" d="M146.5,64.5c-2.1-2.1-5.1-2.7-7.7-1.9c-1.1,0.3-2.1,0.9-3,1.8c-0.1,0-0.1,0.1-0.2,0.1L107,93.1l-2.7,13.6
			l13.6-2.7l17.9-17.9l3-3l7.7-7.7c1.5-1.5,2.3-3.4,2.3-5.4C148.7,67.8,147.9,65.9,146.5,64.5z M143.7,72.5l-3.3,3.3l-1.5,1.5
			l-1.3,1.3l-1.7,1.7L116,100.2l-6.5,1.3l1.3-6.5l21.6-21.6l2.8-2.8l3.3-3.3c0.1-0.1,0.2-0.2,0.3-0.3c1.5-1.1,3.6-1.1,4.9,0.3
			c0.7,0.7,1.1,1.6,1.1,2.6C144.7,70.9,144.3,71.8,143.7,72.5z"/>
	</g>
	<g>
		<polygon class="st0" points="138.9,80.1 138.9,80.1 138.8,80 137.5,78.7 132.3,73.5 130.9,72 133.7,69.2 135.1,70.6 135.8,71.3 
			138.8,74.3 140.3,75.8 141.7,77.3 141.7,77.3 		"/>
	</g>
</g>
</svg>
