<svg id="Layer_1" data-name="Layer 1" xmlns="http://www.w3.org/2000/svg" xmlns:xlink="http://www.w3.org/1999/xlink" width="172.36" height="222.48" viewBox="0 0 172.36 222.48"><defs><style>.cls-1{fill:none;}.cls-2{fill:#4285f4;}.cls-3{clip-path:url(#clip-path);}.cls-4{fill:#fff;}</style><clipPath id="clip-path"><path class="cls-1" d="M35.38,85.1,35.47,146A4.52,4.52,0,0,0,40,150.5l83.85-.09a4.52,4.52,0,0,0,4.55-4.55L128.32,85Z"/></clipPath></defs><title>tailor maid</title><path class="cls-2" d="M130.86,76.7a7.2,7.2,0,0,0-7.17-7.17h0l-83.85.09a7.2,7.2,0,0,0-7.17,7.17V85h2.62l92.86-.09h2.62V82.3Zm-2.62,5.6-92.86.09v-5.6a4.52,4.52,0,0,1,4.55-4.55l83.85-.09h0a4.52,4.52,0,0,1,4.55,4.55v5.6Z"/><path class="cls-2" d="M130.95,123.22v-7.61L128.32,113v5l1.49,1.49-1.49,1.49v24.83a4.52,4.52,0,0,1-4.55,4.55l-83.85.09h0a4.52,4.52,0,0,1-4.55-4.55L35.29,85l92.86-.09v26.84l2.36-2.36.26-.26V82.21h-2.62l-92.86.09H32.67v2.62l.09,60.86a7.2,7.2,0,0,0,7.17,7.17l83.85-.09a7.37,7.37,0,0,0,5.07-2.1,7.21,7.21,0,0,0,2.1-5.07Z"/><path class="cls-2" d="M42,76.88h0A1.57,1.57,0,0,0,42,80h0a1.57,1.57,0,0,0,1.57-1.57A1.63,1.63,0,0,0,42,76.88Z"/><path class="cls-2" d="M48,76.88h0A1.57,1.57,0,1,0,48,80h0a1.57,1.57,0,0,0,1.57-1.57A1.69,1.69,0,0,0,48,76.88Z"/><path class="cls-2" d="M55.31,76.88h0a1.57,1.57,0,0,0,0,3.15h0a1.57,1.57,0,0,0,1.57-1.57,1.51,1.51,0,0,0-1.57-1.57Z"/><polygon class="cls-2" points="111.1 90.43 106.11 93.84 106.11 94.63 108.48 94.63 111.1 92.7 111.1 90.43"/><polygon class="cls-2" points="108.48 94.63 106.11 94.63 106.11 95.41 111.1 98.82 111.1 96.55 108.39 94.63 108.48 94.63"/><polygon class="cls-2" points="119.14 90.43 119.14 92.7 121.85 94.54 124.13 94.54 124.13 93.84 119.14 90.43"/><polygon class="cls-2" points="124.13 94.54 121.85 94.54 121.94 94.63 119.14 96.55 119.14 98.82 124.13 95.41 124.13 94.54"/><polygon class="cls-2" points="117.74 88.77 115.82 88.94 112.41 99.7 114.51 99.61 117.74 88.77"/><path class="cls-2" d="M43.77,95.33h0c-3.24,0-5.86.52-5.86,1.22s2.62,1.14,5.77,1.14h0c3.15,0,5.77-.52,5.77-1.22s-2.54-1.14-5.68-1.14Z"/><path class="cls-2" d="M46.92,100.92h0c-2.36,0-4.28.52-4.28,1.22s1.92,1.14,4.2,1.14h0c2.36,0,4.28-.52,4.28-1.22s-1.92-1.14-4.2-1.14Z"/><path class="cls-2" d="M42.2,106.61h0c-2.36,0-4.28.52-4.28,1.22s1.92,1.14,4.2,1.14h0c2.36,0,4.28-.52,4.28-1.22s-1.84-1.14-4.2-1.14Z"/><path class="cls-2" d="M44.39,112h0c-3.58,0-6.47.52-6.47,1.22s2.89,1.14,6.38,1.14h.09c3.5,0,6.38-.52,6.38-1.22S47.88,112,44.39,112Z"/><path class="cls-2" d="M47.27,117.62h0c-3.24,0-5.86.52-5.86,1.22S44,120,47.18,120h0c3.15,0,5.77-.52,5.77-1.22s-2.54-1.14-5.68-1.14Z"/><path class="cls-2" d="M61,117.62h0c-2.19,0-3.93.52-3.93,1.14s1.75,1.14,3.85,1.14h0c2.19,0,3.93-.52,3.93-1.14s-1.75-1.14-3.85-1.14Z"/><path class="cls-2" d="M76.82,117.62h0c-3.58,0-6.47.52-6.47,1.22S73.24,120,76.74,120h.09c3.5,0,6.38-.52,6.38-1.22s-2.89-1.14-6.38-1.14Z"/><path class="cls-2" d="M47.88,123h0c-3.58,0-6.47.52-6.47,1.22s2.89,1.14,6.38,1.14h.09c3.5,0,6.38-.52,6.38-1.22S51.38,123,47.88,123Z"/><path class="cls-2" d="M60.47,123h0c-2,0-3.76.52-3.76,1.14s1.66,1.14,3.67,1.14h0c2,0,3.67-.52,3.67-1.14S62.48,123,60.47,123Z"/><path class="cls-2" d="M71.67,123h0c-2,0-3.76.52-3.76,1.14s1.66,1.14,3.67,1.14h0c2,0,3.67-.52,3.67-1.14S73.68,123,71.67,123Z"/><path class="cls-2" d="M47.88,129.78h0c-3.58,0-6.47.52-6.47,1.22s2.89,1.14,6.38,1.14h.09c3.5,0,6.38-.52,6.38-1.22s-2.89-1.14-6.38-1.14Z"/><path class="cls-2" d="M44.12,136.77h0c-2.45,0-4.46.52-4.46,1.22s2,1.14,4.37,1.14h0c2.45,0,4.46-.52,4.46-1.22s-1.92-1.14-4.37-1.14Z"/><path class="cls-2" d="M60.47,129.78h0c-2,0-3.76.52-3.76,1.14S58.38,132,60.39,132h0c2,0,3.67-.52,3.67-1.14s-1.57-1.14-3.58-1.14Z"/><path class="cls-2" d="M71.67,129.69h0c-2,0-3.76.52-3.76,1.14S69.57,132,71.58,132h0c2,0,3.67-.52,3.67-1.14s-1.57-1.14-3.58-1.14Z"/><path class="cls-2" d="M59.16,100.92h0c-2.36,0-4.28.52-4.28,1.22s1.92,1.14,4.2,1.14h0c2.36,0,4.28-.52,4.28-1.22s-1.84-1.14-4.2-1.14Z"/><path class="cls-2" d="M70.62,100.92h0c-1.66,0-3,.52-3,1.14s1.31,1.14,2.89,1.14h0c1.57,0,3-.52,3-1.14s-1.31-1.14-2.89-1.14Z"/><path class="cls-2" d="M82.25,100.92h0c-1.14,0-2.1.52-2.1,1.14s1,1.14,2.1,1.14h0c1.14,0,2.1-.52,2.1-1.14s-1-1.14-2.1-1.14Z"/><g class="cls-3"><path class="cls-2" d="M100.34,107.66a2.22,2.22,0,0,1-.26-3.15,4.81,4.81,0,0,1,.79-.61,4.08,4.08,0,0,0-.44-.87,1.69,1.69,0,0,1-.87.26,2.24,2.24,0,0,1-2.36-2.1,1.73,1.73,0,0,1,.17-1,3.65,3.65,0,0,0-.87-.35,1.57,1.57,0,0,1-.52.79,2.22,2.22,0,0,1-3.15.09,2.06,2.06,0,0,1-.52-.79c-.26.09-.61.26-.87.35a3.14,3.14,0,0,1,.17,1,2.16,2.16,0,0,1-2.19,2.19,1.76,1.76,0,0,1-1-.26,7.83,7.83,0,0,0-.7,2c.09.09.26.09.35.17a2.25,2.25,0,0,1,.7,3.06,1.38,1.38,0,0,1-.61.61,9.56,9.56,0,0,0,.7,1.31,1.22,1.22,0,0,1,.79-.26,2.27,2.27,0,0,1,2.62,1.75,2.15,2.15,0,0,1-.09,1,5,5,0,0,0,1.22.35,3.65,3.65,0,0,1,.35-.87,2.32,2.32,0,0,1,3.15-.52,1.4,1.4,0,0,1,.61.79c.26-.17.52-.26.79-.44a2.62,2.62,0,0,1-.35-.87,2.13,2.13,0,0,1,1.92-2.45,3.28,3.28,0,0,1,1,.09c.09-.26.17-.61.26-.87A7.87,7.87,0,0,1,100.34,107.66Zm-5.86,1.66A2.36,2.36,0,1,1,96.85,107,2.35,2.35,0,0,1,94.49,109.32Z"/></g><path class="cls-4" d="M136.46,108.27a5,5,0,0,0-5.51-1,8.21,8.21,0,0,0-1.57,1l-1.14,1.14-1.84,1.84L124,113.69l-19.24,19.24L103,141.76,111.8,140l19.15-19.15.09-.09h0l2.45-2.45h0l2.89-2.89a5.17,5.17,0,0,0,.09-7.17Zm-8.13,12.68-17.4,17.4-5.68,1.14,1.14-5.68,18.89-18.89,4.55,4.55Zm6.91-6.91-2.89,2.89-1.31-1.4-2.62-2.62-.61-.61,2.89-2.89.26-.26a3.21,3.21,0,0,1,4.28.26,3.17,3.17,0,0,1,1,2.27A4.13,4.13,0,0,1,135.23,114Z"/><path class="cls-2" d="M137.68,107a6.72,6.72,0,0,0-6.73-1.66,5.87,5.87,0,0,0-2.62,1.57c-.09,0-.09.09-.17.09l-25,25-2.36,11.89,11.89-2.36,15.65-15.65,2.62-2.62,6.73-6.73a6.63,6.63,0,0,0,2-4.72A7.11,7.11,0,0,0,137.68,107Zm-2.45,7-2.89,2.89L131,118.23l-1.14,1.14-1.49,1.49L111,138.26l-5.68,1.14,1.14-5.68,18.89-18.89,2.45-2.45,2.89-2.89.26-.26a3.21,3.21,0,0,1,4.28.26,3.17,3.17,0,0,1,1,2.27A4.12,4.12,0,0,1,135.23,114Z"/><polygon class="cls-2" points="131.03 120.68 131.03 120.68 130.95 120.6 129.81 119.46 125.26 114.91 124.04 113.6 126.49 111.15 127.71 112.38 128.32 112.99 130.95 115.61 132.26 116.92 133.48 118.23 133.48 118.23 131.03 120.68"/></svg>