<svg id="Layer_1" data-name="Layer 1" xmlns="http://www.w3.org/2000/svg" width="172.36" height="149.36" viewBox="0 0 172.36 149.36"><defs><style>.cls-1{fill:#4285f4;}.cls-2,.cls-3,.cls-4{fill:none;}.cls-3,.cls-4{stroke:#4285f4;stroke-miterlimit:10;stroke-width:3px;}.cls-4{stroke-linecap:round;}</style></defs><title>ux</title><path class="cls-1" d="M129.48,34.18a4.69,4.69,0,0,1,4.7,4.7v5.8l-96.1.1V39a4.69,4.69,0,0,1,4.7-4.7l86.7-.1h0m0-2.7h0l-86.8.1a7.38,7.38,0,0,0-7.4,7.4v8.5H38l96.1-.1h2.7v-8.5a7.24,7.24,0,0,0-7.3-7.4"/><path class="cls-1" d="M134.18,47.38l.1,63a4.69,4.69,0,0,1-4.7,4.7l-86.7.1h0a4.69,4.69,0,0,1-4.7-4.7l-.1-63,96.1-.1m2.7-2.7h-2.7l-96.1.1h-2.7v2.7l.1,63a7.38,7.38,0,0,0,7.4,7.4l86.8-.1a7.26,7.26,0,0,0,5.2-2.2,7.44,7.44,0,0,0,2.2-5.2l-.1-63Z"/><path class="cls-1" d="M44.88,39.08h0a1.6,1.6,0,1,0,0,3.2h0a1.6,1.6,0,1,0,0-3.2"/><path class="cls-1" d="M51.08,39.08h0a1.6,1.6,0,1,0,0,3.2h0a1.58,1.58,0,0,0,1.6-1.6,1.64,1.64,0,0,0-1.6-1.6"/><path class="cls-1" d="M58.68,39h0a1.6,1.6,0,0,0,0,3.2h0a1.58,1.58,0,0,0,1.6-1.6,1.64,1.64,0,0,0-1.6-1.6"/><path class="cls-2" d="M38.08,47.48l.1,63a4.69,4.69,0,0,0,4.7,4.7l86.8-.1a4.69,4.69,0,0,0,4.7-4.7l-.1-63Z"/><path class="cls-3" d="M104,70.18H68a6.49,6.49,0,0,1-6.5-6.5h0a6.49,6.49,0,0,1,6.5-6.5h36a6.49,6.49,0,0,1,6.5,6.5h0A6.49,6.49,0,0,1,104,70.18Z"/><path class="cls-3" d="M48.48,101.68V87.58a4.55,4.55,0,0,1,4.5-4.5h4.1a4.55,4.55,0,0,1,4.5,4.5v14.1a4.55,4.55,0,0,1-4.5,4.5H53A4.48,4.48,0,0,1,48.48,101.68Z"/><path class="cls-3" d="M69.48,101.68V87.58a4.55,4.55,0,0,1,4.5-4.5h4.1a4.55,4.55,0,0,1,4.5,4.5v14.1a4.55,4.55,0,0,1-4.5,4.5H74A4.48,4.48,0,0,1,69.48,101.68Z"/><path class="cls-3" d="M90.48,101.68V87.58a4.55,4.55,0,0,1,4.5-4.5h4.1a4.55,4.55,0,0,1,4.5,4.5v14.1a4.55,4.55,0,0,1-4.5,4.5H95A4.48,4.48,0,0,1,90.48,101.68Z"/><path class="cls-3" d="M111.48,101.68V87.58a4.55,4.55,0,0,1,4.5-4.5h4.1a4.55,4.55,0,0,1,4.5,4.5v14.1a4.55,4.55,0,0,1-4.5,4.5H116A4.48,4.48,0,0,1,111.48,101.68Z"/><line class="cls-4" x1="54.98" y1="75.68" x2="117.98" y2="75.68"/><line class="cls-3" x1="85.98" y1="70.68" x2="85.98" y2="75.68"/><line class="cls-3" x1="96.98" y1="75.68" x2="96.98" y2="82.68"/><line class="cls-4" x1="117.98" y1="76.68" x2="117.98" y2="82.68"/><line class="cls-4" x1="54.98" y1="75.68" x2="54.98" y2="82.68"/><line class="cls-4" x1="75.98" y1="75.68" x2="75.98" y2="82.68"/></svg>