<svg id="Layer_1" data-name="Layer 1" xmlns="http://www.w3.org/2000/svg" width="172.36" height="222.48" viewBox="0 0 172.36 222.48"><defs><style>.cls-1{fill:#4285f4;}.cls-2,.cls-3,.cls-4{fill:none;}.cls-3,.cls-4{stroke:#4285f4;stroke-miterlimit:10;stroke-width:3.15px;}.cls-4{stroke-linecap:round;}</style></defs><title>ux</title><path class="cls-1" d="M131.7,68.66a4.94,4.94,0,0,1,4.94,4.94v6.1l-101,.11v-6.1a4.94,4.94,0,0,1,4.94-4.94l91.15-.11h0m0-2.84h0l-91.25.11a7.76,7.76,0,0,0-7.78,7.78v8.94h2.84l101-.11h2.84V73.6a7.61,7.61,0,0,0-7.67-7.78"/><path class="cls-1" d="M136.64,82.54l.11,66.23a4.94,4.94,0,0,1-4.94,4.94l-91.15.11h0a4.94,4.94,0,0,1-4.94-4.94l-.11-66.23,101-.11m2.84-2.84h-2.84l-101,.11H32.77v2.84l.11,66.23a7.76,7.76,0,0,0,7.78,7.78l91.25-.11a7.63,7.63,0,0,0,5.47-2.31,7.82,7.82,0,0,0,2.31-5.47l-.11-66.23Z"/><path class="cls-1" d="M42.76,73.81h0a1.68,1.68,0,1,0,0,3.36h0a1.68,1.68,0,1,0,0-3.36"/><path class="cls-1" d="M49.28,73.81h0a1.68,1.68,0,1,0,0,3.36h0A1.66,1.66,0,0,0,51,75.5a1.73,1.73,0,0,0-1.68-1.68"/><path class="cls-1" d="M57.27,73.71h0a1.68,1.68,0,0,0,0,3.36h0A1.66,1.66,0,0,0,59,75.39a1.73,1.73,0,0,0-1.68-1.68"/><path class="cls-2" d="M35.61,82.64l.11,66.23a4.94,4.94,0,0,0,4.94,4.94l91.25-.11a4.94,4.94,0,0,0,4.94-4.94l-.11-66.23Z"/><path class="cls-3" d="M104.89,106.51H67a6.82,6.82,0,0,1-6.83-6.83h0A6.82,6.82,0,0,1,67,92.84h37.85a6.82,6.82,0,0,1,6.83,6.83h0A6.82,6.82,0,0,1,104.89,106.51Z"/><path class="cls-3" d="M46.55,139.63V124.8a4.78,4.78,0,0,1,4.73-4.73h4.31a4.78,4.78,0,0,1,4.73,4.73v14.82a4.78,4.78,0,0,1-4.73,4.73H51.28A4.71,4.71,0,0,1,46.55,139.63Z"/><path class="cls-3" d="M68.62,139.63V124.8a4.78,4.78,0,0,1,4.73-4.73h4.31a4.78,4.78,0,0,1,4.73,4.73v14.82a4.78,4.78,0,0,1-4.73,4.73H73.35A4.71,4.71,0,0,1,68.62,139.63Z"/><path class="cls-3" d="M90.7,139.63V124.8a4.78,4.78,0,0,1,4.73-4.73h4.31a4.78,4.78,0,0,1,4.73,4.73v14.82a4.78,4.78,0,0,1-4.73,4.73H95.43A4.71,4.71,0,0,1,90.7,139.63Z"/><path class="cls-3" d="M112.78,139.63V124.8a4.78,4.78,0,0,1,4.73-4.73h4.31a4.78,4.78,0,0,1,4.73,4.73v14.82a4.78,4.78,0,0,1-4.73,4.73h-4.31A4.71,4.71,0,0,1,112.78,139.63Z"/><line class="cls-4" x1="53.38" y1="112.29" x2="119.61" y2="112.29"/><line class="cls-3" x1="85.97" y1="107.03" x2="85.97" y2="112.29"/><line class="cls-3" x1="97.53" y1="112.29" x2="97.53" y2="119.65"/><line class="cls-4" x1="119.61" y1="113.34" x2="119.61" y2="119.65"/><line class="cls-4" x1="53.38" y1="112.29" x2="53.38" y2="119.65"/><line class="cls-4" x1="75.46" y1="112.29" x2="75.46" y2="119.65"/></svg>