<?xml version="1.0" encoding="utf-8"?>
<!-- Generator: Adobe Illustrator 21.0.0, SVG Export Plug-In . SVG Version: 6.00 Build 0)  -->
<svg version="1.1" id="Layer_1" xmlns="http://www.w3.org/2000/svg" xmlns:xlink="http://www.w3.org/1999/xlink" x="0px" y="0px"
	 viewBox="0 0 142 115" style="enable-background:new 0 0 142 115;" xml:space="preserve">
<style type="text/css">
	.st0{fill:#4285F4;}
	.st1{fill:none;}
	.st2{fill:none;stroke:#4285F4;stroke-width:3;stroke-miterlimit:10;}
	.st3{fill:none;stroke:#4285F4;stroke-width:3;stroke-linecap:round;stroke-miterlimit:10;}
</style>
<path class="st0" d="M110,25c2.6,0,4.7,2.1,4.7,4.7v5.8l-96.1,0.1v-5.8c0-2.6,2.1-4.7,4.7-4.7L110,25L110,25 M110,22.3L110,22.3
	l-86.8,0.1c-4.1,0-7.4,3.3-7.4,7.4v5.8v2.7h2.7l96.1-0.1h2.7v-2.7v-5.8C117.4,25.6,114.1,22.3,110,22.3"/>
<path class="st0" d="M114.7,38.2l0.1,63c0,2.6-2.1,4.7-4.7,4.7L23.4,106l0,0c-2.6,0-4.7-2.1-4.7-4.7l-0.1-63L114.7,38.2 M117.4,35.5
	h-2.7l-96.1,0.1h-2.7v2.7l0.1,63c0,4.1,3.3,7.4,7.4,7.4l86.8-0.1c2,0,3.8-0.8,5.2-2.2s2.2-3.3,2.2-5.2l-0.1-63L117.4,35.5z"/>
<path class="st0" d="M25.4,29.9L25.4,29.9c-0.9,0-1.6,0.7-1.6,1.6c0,0.9,0.7,1.6,1.6,1.6l0,0c0.9,0,1.6-0.7,1.6-1.6
	C27,30.6,26.3,29.9,25.4,29.9"/>
<path class="st0" d="M31.6,29.9L31.6,29.9c-0.9,0-1.6,0.7-1.6,1.6c0,0.9,0.7,1.6,1.6,1.6l0,0c0.9,0,1.6-0.7,1.6-1.6
	C33.2,30.6,32.4,29.9,31.6,29.9"/>
<path class="st0" d="M39.2,29.8L39.2,29.8c-0.9,0-1.6,0.7-1.6,1.6c0,0.9,0.7,1.6,1.6,1.6l0,0c0.9,0,1.6-0.7,1.6-1.6
	C40.8,30.6,40.1,29.8,39.2,29.8"/>
<path class="st1" d="M18.6,38.3l0.1,63c0,2.6,2.1,4.7,4.7,4.7l86.8-0.1c2.6,0,4.7-2.1,4.7-4.7l-0.1-63L18.6,38.3z"/>
<path class="st2" d="M84.5,61h-36c-3.6,0-6.5-2.9-6.5-6.5l0,0c0-3.6,2.9-6.5,6.5-6.5h36c3.6,0,6.5,2.9,6.5,6.5l0,0
	C91,58.1,88.1,61,84.5,61z"/>
<path class="st2" d="M29,92.5V78.4c0-2.4,2-4.5,4.5-4.5h4.1c2.4,0,4.5,2,4.5,4.5v14.1c0,2.4-2,4.5-4.5,4.5h-4.1C31,97,29,95,29,92.5
	z"/>
<path class="st2" d="M50,92.5V78.4c0-2.4,2-4.5,4.5-4.5h4.1c2.4,0,4.5,2,4.5,4.5v14.1c0,2.4-2,4.5-4.5,4.5h-4.1C52,97,50,95,50,92.5
	z"/>
<path class="st2" d="M71,92.5V78.4c0-2.4,2-4.5,4.5-4.5h4.1c2.4,0,4.5,2,4.5,4.5v14.1c0,2.4-2,4.5-4.5,4.5h-4.1C73,97,71,95,71,92.5
	z"/>
<path class="st2" d="M92,92.5V78.4c0-2.4,2-4.5,4.5-4.5h4.1c2.4,0,4.5,2,4.5,4.5v14.1c0,2.4-2,4.5-4.5,4.5h-4.1C94,97,92,95,92,92.5
	z"/>
<line class="st3" x1="35.5" y1="66.5" x2="98.5" y2="66.5"/>
<line class="st2" x1="66.5" y1="61.5" x2="66.5" y2="66.5"/>
<line class="st2" x1="77.5" y1="66.5" x2="77.5" y2="73.5"/>
<line class="st3" x1="98.5" y1="67.5" x2="98.5" y2="73.5"/>
<line class="st3" x1="35.5" y1="66.5" x2="35.5" y2="73.5"/>
<line class="st3" x1="56.5" y1="66.5" x2="56.5" y2="73.5"/>
</svg>
