<svg id="Layer_1" data-name="Layer 1" xmlns="http://www.w3.org/2000/svg" xmlns:xlink="http://www.w3.org/1999/xlink" width="138" height="193" viewBox="0 0 138 193"><defs><style>.cls-1,.cls-4{fill:none;}.cls-2{fill:#4285f4;}.cls-3{clip-path:url(#clip-path);}.cls-4{stroke:#4285f4;stroke-miterlimit:10;stroke-width:2.01px;}</style><clipPath id="clip-path"><path class="cls-1" d="M29.89,94,30,140.7a3.46,3.46,0,0,0,3.46,3.46l64.15-.09A3.46,3.46,0,0,0,101,140.6L101,93.91Z"/></clipPath></defs><title>web app</title><path class="cls-2" d="M97.5,84.15A3.46,3.46,0,0,1,101,87.61V91.9L29.89,92V87.71a3.46,3.46,0,0,1,3.45-3.47l64.15-.09h0m0-2h0l-64.15.09a5.48,5.48,0,0,0-5.46,5.48V94h2l71.06-.1h2V87.6a5.48,5.48,0,0,0-5.47-5.46Z"/><path class="cls-2" d="M101,93.91,101,140.6a3.46,3.46,0,0,1-3.45,3.47l-64.15.09h0A3.46,3.46,0,0,1,30,140.7L29.89,94l71.06-.1m2-2h-2L29.89,92h-2v2L28,140.7a5.48,5.48,0,0,0,5.47,5.47l64.16-.09A5.47,5.47,0,0,0,103,140.6L103,93.91v-2Z"/><path class="cls-2" d="M35,87.74h0a1.18,1.18,0,0,0,0,2.35h0a1.18,1.18,0,0,0,0-2.35Z"/><path class="cls-2" d="M39.5,87.73h0a1.18,1.18,0,0,0,0,2.35h0a1.18,1.18,0,0,0,0-2.35Z"/><path class="cls-2" d="M45.17,87.72h0a1.18,1.18,0,0,0,0,2.35h0a1.18,1.18,0,0,0,0-2.35Z"/><polygon class="cls-2" points="87.86 98.13 84.04 100.77 84.04 101.33 85.8 101.32 87.86 99.9 87.86 98.13 87.86 98.13"/><polygon class="cls-2" points="85.8 101.32 84.04 101.33 84.04 101.96 87.87 104.59 87.86 102.82 85.75 101.36 85.8 101.32 85.8 101.32"/><polygon class="cls-2" points="93.98 98.12 93.98 99.89 96.05 101.31 97.81 101.31 97.81 100.75 93.98 98.12 93.98 98.12"/><polygon class="cls-2" points="97.81 101.31 96.05 101.31 96.1 101.35 93.99 102.81 93.99 104.58 97.81 101.94 97.81 101.31 97.81 101.31"/><polygon class="cls-2" points="92.89 96.89 91.47 96.99 88.83 105.27 90.46 105.17 92.89 96.89 92.89 96.89"/><path class="cls-2" d="M36.3,101.9h0c-2.43,0-4.42.41-4.42.91s2,.89,4.39.89h0c2.43,0,4.42-.41,4.42-.91s-2-.89-4.39-.89Z"/><path class="cls-2" d="M38.71,106.19h0c-1.79,0-3.25.41-3.25.91s1.45.9,3.23.9h0c1.79,0,3.25-.41,3.25-.91s-1.45-.9-3.23-.9Z"/><path class="cls-2" d="M35.12,110.56h0c-1.79,0-3.25.41-3.25.91s1.45.9,3.23.9h0c1.79,0,3.25-.41,3.25-.91s-1.45-.9-3.23-.9Z"/><path class="cls-2" d="M36.81,114.72h0c-2.7,0-4.91.41-4.91.91s2.19.89,4.87.89h0c2.7,0,4.91-.41,4.91-.91s-2.19-.89-4.87-.89Z"/><path class="cls-2" d="M39,119h0c-2.44,0-4.44.41-4.44.91s2,.89,4.41.89h0c2.44,0,4.44-.41,4.44-.91s-2-.89-4.41-.89Z"/><path class="cls-2" d="M49.5,119h0c-1.64,0-3,.41-3,.9s1.34.9,3,.9h0c1.64,0,3-.41,3-.9s-1.34-.9-3-.9Z"/><path class="cls-2" d="M61.63,119h0c-2.7,0-4.91.41-4.91.91s2.19.89,4.87.89h0c2.7,0,4.91-.41,4.91-.91s-2.19-.89-4.87-.89Z"/><path class="cls-2" d="M39.44,123.16h0c-2.7,0-4.91.41-4.91.91s2.19.89,4.87.89h0c2.7,0,4.91-.41,4.91-.91s-2.19-.89-4.87-.89Z"/><path class="cls-2" d="M49.1,123.15h0c-1.56,0-2.83.41-2.83.9s1.27.9,2.82.9h0c1.56,0,2.83-.41,2.83-.9s-1.27-.9-2.82-.9Z"/><path class="cls-2" d="M57.67,123.14h0c-1.56,0-2.83.41-2.83.9s1.27.9,2.82.9h0c1.56,0,2.83-.41,2.83-.9s-1.27-.9-2.82-.9Z"/><path class="cls-2" d="M39.45,128.29h0c-2.7,0-4.91.41-4.91.91s2.19.89,4.87.89h0c2.7,0,4.91-.41,4.91-.91s-2.19-.89-4.87-.89Z"/><path class="cls-2" d="M36.61,133.7h0c-1.86,0-3.39.41-3.39.91s1.52.9,3.37.9h0c1.86,0,3.39-.41,3.39-.91s-1.51-.9-3.37-.9Z"/><path class="cls-2" d="M49.1,128.28h0c-1.56,0-2.83.41-2.83.9s1.27.9,2.82.9h0c1.56,0,2.83-.41,2.83-.9s-1.27-.9-2.82-.9Z"/><path class="cls-2" d="M57.68,128.26h0c-1.56,0-2.83.41-2.83.9s1.27.9,2.82.9h0c1.56,0,2.83-.41,2.83-.9s-1.27-.9-2.82-.9Z"/><path class="cls-2" d="M48.11,106.18h0c-1.79,0-3.25.41-3.25.91s1.45.9,3.23.9h0c1.79,0,3.25-.41,3.25-.91s-1.45-.9-3.23-.9Z"/><path class="cls-2" d="M56.85,106.17h0c-1.24,0-2.25.41-2.25.9s1,.9,2.24.9h0c1.24,0,2.25-.41,2.25-.9s-1-.9-2.24-.9Z"/><path class="cls-2" d="M65.76,106.15h0c-.89,0-1.62.41-1.62.9s.73.9,1.62.9h0c.89,0,1.62-.41,1.62-.9s-.73-.9-1.62-.9Z"/><g class="cls-3"><path class="cls-2" d="M106,132.59a5.45,5.45,0,0,1-.71-7.66,5.38,5.38,0,0,1,1.92-1.47,16.86,16.86,0,0,0-1-2.1,5.43,5.43,0,0,1-7.59-6.84,16.8,16.8,0,0,0-2.19-.82,5.42,5.42,0,0,1-10.21.22,16.81,16.81,0,0,0-2.15.91A5.42,5.42,0,0,1,76.79,122a16.79,16.79,0,0,0-1.67,4.83,5.44,5.44,0,0,1,1,9.58,16.78,16.78,0,0,0,1.78,3.22A5.43,5.43,0,0,1,86,145.79a16.71,16.71,0,0,0,3,.77,5.42,5.42,0,0,1,10.11-1.48,16.87,16.87,0,0,0,2-1.17,5.43,5.43,0,0,1,6.35-8,16.81,16.81,0,0,0,.68-2.24A5.4,5.4,0,0,1,106,132.59Zm-14.43,4.1a5.86,5.86,0,1,1,5.85-5.86A5.86,5.86,0,0,1,91.61,136.7Z"/><path class="cls-2" d="M79.64,111.33a1.7,1.7,0,0,1,.38-2.86,5.31,5.31,0,0,0-.33-.66,1.67,1.67,0,0,1-.7.2,1.7,1.7,0,0,1-1.68-2.34,5.15,5.15,0,0,0-.69-.26,1.7,1.7,0,0,1-3.2.07,5.27,5.27,0,0,0-.67.29A1.7,1.7,0,0,1,70.47,108a5.27,5.27,0,0,0-.52,1.51,1.73,1.73,0,0,1,.29.15,1.71,1.71,0,0,1,0,2.85,5.26,5.26,0,0,0,.56,1,1.7,1.7,0,0,1,2.52,1.93,5.2,5.2,0,0,0,.93.24,1.7,1.7,0,0,1,3.17-.46,5.29,5.29,0,0,0,.64-.37,1.7,1.7,0,0,1,2-2.51,5.27,5.27,0,0,0,.21-.7A1.68,1.68,0,0,1,79.64,111.33Zm-4.52,1.29a1.84,1.84,0,1,1,1.83-1.84A1.83,1.83,0,0,1,75.11,112.62Z"/></g><path class="cls-4" d="M101.87,113.87h15.48a18.91,18.91,0,1,0-2.52-37.69A25.81,25.81,0,0,0,81.19,63.61a30.43,30.43,0,0,0-51.28-1.41c-.65,0-1.3-.08-2-.08a25.88,25.88,0,0,0-.66,51.74v0h1.44"/></svg>