<svg id="Layer_1" data-name="Layer 1" xmlns="http://www.w3.org/2000/svg" xmlns:xlink="http://www.w3.org/1999/xlink" width="172.36" height="222.48" viewBox="0 0 172.36 222.48"><defs><style>.cls-1,.cls-4{fill:none;}.cls-2{fill:#4285f4;}.cls-3{clip-path:url(#clip-path);}.cls-4{stroke:#4285f4;stroke-miterlimit:10;stroke-width:3px;}</style><clipPath id="clip-path"><path class="cls-1" d="M47.66,108.8l.07,45.9a3.4,3.4,0,0,0,3.4,3.4h0l63.19-.09a3.4,3.4,0,0,0,3.4-3.4h0l-.07-45.9Z"/></clipPath></defs><title>web app</title><path class="cls-2" d="M114.25,99.1a3.4,3.4,0,0,1,3.4,3.4h0v4.22l-70,.1V102.6a3.41,3.41,0,0,1,3.4-3.41l63.19-.09h0m0-2h0l-63.19.09a5.39,5.39,0,0,0-5.37,5.39v6.2h2l70-.1h2v-6.2a5.39,5.39,0,0,0-5.38-5.37Z"/><path class="cls-2" d="M117.66,108.7l.07,45.9a3.4,3.4,0,0,1-3.39,3.41h0l-63.19.09h0a3.4,3.4,0,0,1-3.41-3.39h0l-.07-45.9,70-.1m2-2h-2l-70,.1h-2v2l.07,45.9a5.39,5.39,0,0,0,5.38,5.37l63.2-.09a5.38,5.38,0,0,0,5.37-5.39h0l-.07-45.9v-2Z"/><path class="cls-2" d="M52.66,102.63h0a1.16,1.16,0,0,0,0,2.31h0a1.16,1.16,0,1,0,.22-2.31Z"/><path class="cls-2" d="M57.12,102.62h0a1.16,1.16,0,0,0,0,2.31h0a1.16,1.16,0,1,0,.22-2.31Z"/><path class="cls-2" d="M62.7,102.61h0a1.16,1.16,0,0,0,0,2.31h0a1.16,1.16,0,0,0,0-2.31Z"/><polygon class="cls-2" points="104.76 112.84 100.99 115.44 101 115.98 102.73 115.98 104.76 114.58 104.76 112.84 104.76 112.84"/><polygon class="cls-2" points="102.73 115.98 101 115.98 101 116.61 104.77 119.19 104.76 117.45 102.68 116.02 102.73 115.98 102.73 115.98"/><polygon class="cls-2" points="110.78 112.83 110.79 114.57 112.82 115.97 114.55 115.97 114.55 115.42 110.78 112.83 110.78 112.83"/><polygon class="cls-2" points="114.55 115.97 112.82 115.97 112.88 116 110.79 117.44 110.79 119.19 114.56 116.59 114.55 115.97 114.55 115.97"/><polygon class="cls-2" points="109.71 111.63 108.31 111.72 105.71 119.86 107.32 119.77 109.71 111.63 109.71 111.63"/><path class="cls-2" d="M54,116.55h0c-2.4,0-4.36.4-4.36.89s2,.88,4.33.88h0c2.4,0,4.36-.4,4.36-.89S56.38,116.55,54,116.55Z"/><path class="cls-2" d="M56.34,120.77h0c-1.76,0-3.2.4-3.2.89s1.43.88,3.19.88h0c1.76,0,3.2-.4,3.2-.89S58.1,120.77,56.34,120.77Z"/><path class="cls-2" d="M52.81,125.07h0c-1.76,0-3.2.4-3.2.89s1.43.88,3.19.88h0c1.76,0,3.2-.4,3.2-.89S54.57,125.07,52.81,125.07Z"/><path class="cls-2" d="M54.47,129.15h0c-2.66,0-4.83.41-4.83.89s2.16.88,4.8.88h0c2.66,0,4.83-.41,4.83-.89S57.11,129.15,54.47,129.15Z"/><path class="cls-2" d="M56.59,133.37h0c-2.4,0-4.37.4-4.37.89s2,.88,4.34.88h0c2.4,0,4.37-.4,4.37-.89S58.93,133.37,56.59,133.37Z"/><path class="cls-2" d="M67,133.35h0c-1.62,0-2.94.4-2.94.89s1.32.88,2.93.88h0c1.62,0,2.94-.4,2.94-.89S68.61,133.35,67,133.35Z"/><path class="cls-2" d="M78.92,133.34h0c-2.66,0-4.83.41-4.83.89s2.16.88,4.8.88h0c2.66,0,4.83-.41,4.83-.89S81.56,133.34,78.92,133.34Z"/><path class="cls-2" d="M57.07,137.45h0c-2.66,0-4.83.41-4.83.89s2.16.88,4.8.88h0c2.66,0,4.83-.41,4.83-.89S59.71,137.45,57.07,137.45Z"/><path class="cls-2" d="M66.58,137.44h0c-1.54,0-2.79.4-2.79.89s1.25.88,2.78.88h0c1.54,0,2.79-.4,2.79-.89S68.11,137.44,66.58,137.44Z"/><path class="cls-2" d="M75,137.43h0c-1.54,0-2.79.4-2.79.89s1.25.88,2.78.88h0c1.54,0,2.79-.4,2.79-.89S76.53,137.43,75,137.43Z"/><path class="cls-2" d="M57.07,142.49h0c-2.66,0-4.83.41-4.83.89s2.16.88,4.8.88h0c2.66,0,4.83-.41,4.83-.89S59.71,142.49,57.07,142.49Z"/><path class="cls-2" d="M54.27,147.81h0c-1.83,0-3.34.4-3.33.89s1.49.88,3.32.88h0c1.83,0,3.34-.4,3.33-.89S56.1,147.81,54.27,147.81Z"/><path class="cls-2" d="M66.58,142.48h0c-1.54,0-2.79.4-2.79.89s1.25.88,2.78.88h0c1.54,0,2.79-.4,2.79-.89S68.11,142.48,66.58,142.48Z"/><path class="cls-2" d="M75,142.46h0c-1.54,0-2.79.4-2.79.89s1.25.88,2.78.88h0c1.54,0,2.79-.4,2.79-.89S76.53,142.46,75,142.46Z"/><path class="cls-2" d="M65.6,120.76h0c-1.76,0-3.2.4-3.2.89s1.43.88,3.19.88h0c1.76,0,3.2-.4,3.2-.89S67.36,120.76,65.6,120.76Z"/><path class="cls-2" d="M74.21,120.74h0c-1.22,0-2.21.4-2.21.89s1,.88,2.21.88h0c1.22,0,2.21-.4,2.21-.89S75.42,120.74,74.21,120.74Z"/><path class="cls-2" d="M83,120.73h0c-.88,0-1.6.4-1.6.89s.72.88,1.6.88h0c.88,0,1.6-.4,1.6-.89S83.88,120.73,83,120.73Z"/><g class="cls-3"><path class="cls-2" d="M122.67,146.72a5.34,5.34,0,0,1,1.2-9,16.56,16.56,0,0,0-1-2.06,5.34,5.34,0,0,1-7.48-6.73,16.57,16.57,0,0,0-2.16-.8,5.34,5.34,0,0,1-10.06.22,16.58,16.58,0,0,0-2.12.9,5.34,5.34,0,0,1-7.18,7A16.48,16.48,0,0,0,92.22,141a5.35,5.35,0,0,1,1,9.42A16.48,16.48,0,0,0,95,153.65a5.34,5.34,0,0,1,7.93,6.05,16.48,16.48,0,0,0,2.93.76,5.34,5.34,0,0,1,10-1.45,16.63,16.63,0,0,0,2-1.15A5.34,5.34,0,0,1,124,150a16.5,16.5,0,0,0,.67-2.21A5.32,5.32,0,0,1,122.67,146.72Zm-14.22,4a5.76,5.76,0,1,1,5.76-5.76h0a5.76,5.76,0,0,1-5.72,5.8h0Z"/><path class="cls-2" d="M96.66,125.82A1.67,1.67,0,0,1,97,123a5.21,5.21,0,0,0-.32-.65,1.65,1.65,0,0,1-.69.2,1.67,1.67,0,0,1-1.65-2.3,5.08,5.08,0,0,0-.68-.25,1.67,1.67,0,0,1-3.15.07,5.19,5.19,0,0,0-.66.28,1.67,1.67,0,0,1-2.25,2.21,5.17,5.17,0,0,0-.52,1.49,1.71,1.71,0,0,1,.29.15,1.68,1.68,0,0,1,0,2.8,5.17,5.17,0,0,0,.55,1,1.67,1.67,0,0,1,2.49,1.9,5.13,5.13,0,0,0,.92.24,1.67,1.67,0,0,1,3.12-.45,5.21,5.21,0,0,0,.63-.36,1.67,1.67,0,0,1,2-2.47,5.17,5.17,0,0,0,.21-.69A1.66,1.66,0,0,1,96.66,125.82Zm-4.45,1.26A1.81,1.81,0,1,1,94,125.25s0,0,0,0a1.81,1.81,0,0,1-1.8,1.8Z"/></g><path class="cls-4" d="M118.56,128.32H133.8a18.59,18.59,0,1,0-2.48-37A25.45,25.45,0,0,0,98.18,78.9a30,30,0,0,0-50.51-1.39c-.64,0-1.28-.08-1.94-.08a25.44,25.44,0,0,0-.65,50.87H46.5"/></svg>