<svg id="Layer_1" data-name="Layer 1" xmlns="http://www.w3.org/2000/svg" xmlns:xlink="http://www.w3.org/1999/xlink" width="172.36" height="222.48" viewBox="0 0 172.36 222.48"><defs><style>.cls-1,.cls-4{fill:none;}.cls-2{fill:#4285f4;}.cls-3{clip-path:url(#clip-path);}.cls-4{stroke:#4285f4;stroke-miterlimit:10;stroke-width:1.61px;}</style><clipPath id="clip-path"><path class="cls-1" d="M54.9,109.25l.05,37.35a2.77,2.77,0,0,0,2.77,2.77l51.32-.07a2.77,2.77,0,0,0,2.76-2.77l-.05-37.35Z"/></clipPath></defs><title>web app</title><path class="cls-2" d="M109,101.36a2.77,2.77,0,0,1,2.77,2.77v3.44l-56.85.08v-3.43a2.77,2.77,0,0,1,2.76-2.78l51.32-.07h0m0-1.61h0l-51.32.07a4.38,4.38,0,0,0-4.37,4.38v5H54.9l56.85-.08h1.61v-5A4.38,4.38,0,0,0,109,99.75Z"/><path class="cls-2" d="M111.75,109.17l.05,37.35a2.77,2.77,0,0,1-2.76,2.77l-51.32.07h0a2.77,2.77,0,0,1-2.77-2.77l-.05-37.35,56.85-.08m1.61-1.61h-1.61l-56.85.08H53.29v1.61l.05,37.35A4.38,4.38,0,0,0,57.72,151L109,150.9a4.37,4.37,0,0,0,4.37-4.38l-.05-37.35v-1.61Z"/><path class="cls-2" d="M59,104.23h0a.94.94,0,0,0,0,1.88h0a.94.94,0,0,0,0-1.88Z"/><path class="cls-2" d="M62.58,104.22h0a.94.94,0,0,0,0,1.88h0a.94.94,0,0,0,0-1.88Z"/><path class="cls-2" d="M67.11,104.22h0a.94.94,0,0,0,0,1.88h0a.94.94,0,0,0,0-1.88Z"/><polygon class="cls-2" points="101.27 112.54 98.21 114.65 98.21 115.1 99.62 115.1 101.27 113.96 101.27 112.54 101.27 112.54"/><polygon class="cls-2" points="99.62 115.1 98.21 115.1 98.21 115.61 101.27 117.71 101.27 116.29 99.58 115.13 99.62 115.1 99.62 115.1"/><polygon class="cls-2" points="106.16 112.53 106.17 113.95 107.82 115.09 109.22 115.09 109.22 114.64 106.16 112.53 106.16 112.53"/><polygon class="cls-2" points="109.22 115.09 107.82 115.09 107.86 115.12 106.17 116.29 106.17 117.7 109.22 115.59 109.22 115.09 109.22 115.09"/><polygon class="cls-2" points="105.29 111.55 104.16 111.63 102.04 118.25 103.35 118.18 105.29 111.55 105.29 111.55"/><path class="cls-2" d="M60,115.56h0c-1.95,0-3.54.33-3.54.73S58,117,60,117h0c1.95,0,3.54-.33,3.54-.73s-1.58-.72-3.52-.72Z"/><path class="cls-2" d="M61.95,119h0c-1.43,0-2.6.33-2.6.72s1.16.72,2.59.72h0c1.43,0,2.6-.33,2.6-.72s-1.16-.72-2.59-.72Z"/><path class="cls-2" d="M59.08,122.49h0c-1.43,0-2.6.33-2.6.72s1.16.72,2.59.72h0c1.43,0,2.6-.33,2.6-.72s-1.16-.72-2.59-.72Z"/><path class="cls-2" d="M60.43,125.81h0c-2.16,0-3.93.33-3.93.73s1.75.71,3.9.71h0c2.16,0,3.93-.33,3.93-.73s-1.75-.71-3.9-.71Z"/><path class="cls-2" d="M62.15,129.25h0c-2,0-3.55.33-3.55.73s1.58.72,3.53.72h0c2,0,3.55-.33,3.55-.73s-1.58-.72-3.53-.72Z"/><path class="cls-2" d="M70.58,129.23h0c-1.31,0-2.39.33-2.39.72s1.07.72,2.38.72h0c1.31,0,2.39-.33,2.39-.72s-1.07-.72-2.38-.72Z"/><path class="cls-2" d="M80.28,129.22h0c-2.16,0-3.93.33-3.93.73s1.75.71,3.9.71h0c2.16,0,3.93-.33,3.93-.73s-1.75-.71-3.9-.71Z"/><path class="cls-2" d="M62.54,132.57h0c-2.16,0-3.93.33-3.93.73s1.75.72,3.9.72h0c2.16,0,3.93-.33,3.93-.73s-1.75-.72-3.9-.72Z"/><path class="cls-2" d="M70.26,132.56h0c-1.25,0-2.27.33-2.27.72s1,.72,2.26.72h0c1.25,0,2.27-.33,2.27-.72s-1-.72-2.26-.72Z"/><path class="cls-2" d="M77.11,132.55h0c-1.25,0-2.27.33-2.27.72s1,.72,2.26.72h0c1.25,0,2.27-.33,2.27-.72s-1-.72-2.26-.72Z"/><path class="cls-2" d="M62.54,136.67h0c-2.16,0-3.93.33-3.93.73s1.75.71,3.9.71h0c2.16,0,3.93-.33,3.93-.73s-1.75-.71-3.9-.71Z"/><path class="cls-2" d="M60.26,141h0c-1.49,0-2.71.33-2.71.72s1.21.72,2.7.72h0c1.49,0,2.71-.33,2.71-.72s-1.21-.72-2.7-.72Z"/><path class="cls-2" d="M70.26,136.66h0c-1.25,0-2.27.33-2.27.72s1,.72,2.26.72h0c1.25,0,2.27-.33,2.27-.72s-1-.72-2.26-.72Z"/><path class="cls-2" d="M77.12,136.65h0c-1.25,0-2.27.33-2.27.72s1,.72,2.26.72h0c1.25,0,2.27-.33,2.27-.72s-1-.72-2.26-.72Z"/><path class="cls-2" d="M69.47,119h0c-1.43,0-2.6.33-2.6.72s1.16.72,2.59.72h0c1.43,0,2.6-.33,2.6-.72s-1.16-.72-2.59-.72Z"/><path class="cls-2" d="M76.46,119h0c-1,0-1.8.33-1.8.72s.81.72,1.79.72h0c1,0,1.8-.33,1.8-.72s-.81-.72-1.79-.72Z"/><path class="cls-2" d="M83.59,119h0c-.71,0-1.3.33-1.3.72s.58.72,1.3.72h0c.71,0,1.3-.33,1.3-.72s-.58-.72-1.3-.72Z"/><g class="cls-3"><path class="cls-2" d="M115.81,140.12a4.36,4.36,0,0,1-.57-6.13,4.31,4.31,0,0,1,1.54-1.17,13.49,13.49,0,0,0-.83-1.68,4.34,4.34,0,0,1-6.07-5.48,13.44,13.44,0,0,0-1.75-.65,4.33,4.33,0,0,1-8.17.18,13.45,13.45,0,0,0-1.72.73,4.34,4.34,0,0,1-5.83,5.74,13.43,13.43,0,0,0-1.34,3.86,4.35,4.35,0,0,1,.82,7.66,13.42,13.42,0,0,0,1.43,2.57,4.34,4.34,0,0,1,6.44,4.92,13.36,13.36,0,0,0,2.38.62,4.33,4.33,0,0,1,8.08-1.18,13.5,13.5,0,0,0,1.62-.94,4.34,4.34,0,0,1,5.08-6.41,13.45,13.45,0,0,0,.54-1.79A4.32,4.32,0,0,1,115.81,140.12Zm-11.54,3.28a4.69,4.69,0,1,1,4.68-4.69A4.69,4.69,0,0,1,104.27,143.4Z"/><path class="cls-2" d="M94.69,123.1a1.36,1.36,0,0,1,.3-2.29,4.25,4.25,0,0,0-.26-.53,1.34,1.34,0,0,1-.56.16,1.36,1.36,0,0,1-1.34-1.88,4.12,4.12,0,0,0-.55-.2,1.36,1.36,0,0,1-2.56.06,4.21,4.21,0,0,0-.54.23,1.36,1.36,0,0,1-1.83,1.8,4.21,4.21,0,0,0-.42,1.21l.23.12a1.36,1.36,0,0,1,0,2.28,4.21,4.21,0,0,0,.45.81,1.36,1.36,0,0,1,2,1.54,4.16,4.16,0,0,0,.75.19,1.36,1.36,0,0,1,2.53-.37,4.23,4.23,0,0,0,.51-.29,1.36,1.36,0,0,1,1.59-2,4.22,4.22,0,0,0,.17-.56A1.35,1.35,0,0,1,94.69,123.1Zm-3.62,1a1.47,1.47,0,1,1,1.47-1.47A1.47,1.47,0,0,1,91.07,124.13Z"/></g><path class="cls-4" d="M112.48,125.14h12.38a15.13,15.13,0,1,0-2-30.15A20.65,20.65,0,0,0,95.93,84.93a24.35,24.35,0,0,0-41-1.13c-.52,0-1-.07-1.57-.07a20.7,20.7,0,0,0-.53,41.39H54"/></svg>